<svg width="60" height="60" viewBox="0 0 60 60" fill="none" xmlns="http://www.w3.org/2000/svg">
<g id="Frame 42">
<rect width="60" height="60" rx="8" fill="#BC6D39"/>
<path id="Vector" d="M30.0476 24.2381C30.0476 24.7904 30.4953 25.2381 31.0476 25.2381H32.8571C33.4094 25.2381 33.8571 24.7904 33.8571 24.2381V20.5238C33.8571 19.9715 34.3049 19.5238 34.8571 19.5238H38.5714C39.1237 19.5238 39.5714 19.0761 39.5714 18.5238V16.7143C39.5714 16.162 39.1237 15.7143 38.5714 15.7143H34.8571C34.3049 15.7143 33.8571 15.2666 33.8571 14.7143V11C33.8571 10.4477 33.4094 10 32.8571 10H31.0476C30.4953 10 30.0476 10.4477 30.0476 11V14.7143C30.0476 15.2666 29.5999 15.7143 29.0476 15.7143H25.3333C24.7811 15.7143 24.3333 16.162 24.3333 16.7143V18.5238C24.3333 19.0761 24.781 19.5238 25.3333 19.5238H29.0476C29.5999 19.5238 30.0476 19.9715 30.0476 20.5238V24.2381ZM22.4286 42.381C20.3333 42.381 18.6381 44.0952 18.6381 46.1905C18.6381 48.2857 20.3333 50 22.4286 50C24.5238 50 26.2381 48.2857 26.2381 46.1905C26.2381 44.0952 24.5238 42.381 22.4286 42.381ZM41.4762 42.381C39.381 42.381 37.6857 44.0952 37.6857 46.1905C37.6857 48.2857 39.381 50 41.4762 50C43.5714 50 45.2857 48.2857 45.2857 46.1905C45.2857 44.0952 43.5714 42.381 41.4762 42.381ZM24.2389 33.3752C24.4146 33.0557 24.7504 32.8571 25.1151 32.8571H38.7143C40.1429 32.8571 41.4 32.0762 42.0476 30.8952L48.9181 18.4181C49.1843 17.9346 49.0084 17.3268 48.5252 17.0602L46.9605 16.1969C46.4773 15.9303 45.8694 16.1056 45.6023 16.5887L38.9997 28.5315C38.8236 28.8499 38.4884 29.0476 38.1245 29.0476H25.9759C25.5893 29.0476 25.2374 28.8248 25.072 28.4754L17.4994 12.4769C17.334 12.1275 16.9821 11.9048 16.5955 11.9048H12C11.4477 11.9048 11 12.3525 11 12.9048V14.7143C11 15.2666 11.4477 15.7143 12 15.7143H14.177C14.5633 15.7143 14.915 15.9367 15.0806 16.2857L21.4468 29.7078C21.5848 29.9988 21.5742 30.3386 21.4182 30.6204L19.0952 34.819C17.7048 37.3714 19.5333 40.4762 22.4286 40.4762H44.2857C44.838 40.4762 45.2857 40.0285 45.2857 39.4762V37.6667C45.2857 37.1144 44.838 36.6667 44.2857 36.6667H24.1198C23.3592 36.6667 22.8771 35.8512 23.2436 35.1847L24.2389 33.3752Z" fill="white"/>
</g>
</svg>
