<svg width="48" height="87" viewBox="0 0 48 87" fill="none" xmlns="http://www.w3.org/2000/svg">
<g id="_1" clip-path="url(#clip0_123_1395)">
<path id="Vector" d="M29.9398 86.1683L47.0126 80.8477L46.0615 0.5L11.792 0.624088L0.987434 4.7776L29.9398 86.1683Z" fill="#EFE7D0"/>
<path id="Vector_2" d="M1.95419 86.5038L29.9394 86.1714L28.9701 4.44889L0.984883 4.78126L1.95419 86.5038Z" fill="#D8CFB8"/>
<path id="Vector_3" d="M1.42927 46.0651C1.44489 46.0651 1.46052 46.0651 1.47809 46.0651L29.4633 45.7334C29.5746 45.7285 29.6796 45.6805 29.7561 45.5996C29.8326 45.5187 29.8746 45.4111 29.8733 45.2997C29.872 45.1883 29.8274 45.0818 29.7489 45.0027C29.6705 44.9236 29.5644 44.8782 29.4531 44.876L1.46783 45.2077C1.35815 45.2087 1.25306 45.2518 1.17421 45.3281C1.09537 45.4044 1.0488 45.5081 1.0441 45.6178C1.03941 45.7274 1.07694 45.8347 1.14897 45.9175C1.221 46.0002 1.32203 46.0522 1.43121 46.0626L1.42927 46.0651Z" fill="#3F434C"/>
<path id="Vector_4" d="M26.219 43.4822L28.2934 43.4614L28.1614 30.2525L26.087 30.2732L26.219 43.4822Z" fill="#FCF8EB"/>
<path id="Vector_5" d="M26.3643 60.7178L28.4385 60.6931L28.2819 47.4851L26.2076 47.5097L26.3643 60.7178Z" fill="#FCF8EB"/>
<path id="Vector_6" d="M13.1342 19.9231L17.188 19.875L17.0459 7.89358L12.9921 7.94172L13.1342 19.9231Z" fill="#606060"/>
</g>
<defs>
<clipPath id="clip0_123_1395">
<rect width="46.0251" height="86" fill="white" transform="translate(0.987434 0.5)"/>
</clipPath>
</defs>
</svg>
