<svg xmlns="http://www.w3.org/2000/svg" width="47" height="86" viewBox="0 0 47 86" fill="none">
  <g clip-path="url(#clip0_48_275)">
    <path d="M28.9524 85.6683L46.0251 80.3477L45.0741 0L10.8046 0.124088L0 4.2776L28.9524 85.6683Z" fill="#EFE7D0"/>
    <path d="M0.966756 86.0038L28.952 85.6714L27.9827 3.94889L-0.00255138 4.28126L0.966756 86.0038Z" fill="#D8CFB8"/>
    <path d="M0.441837 45.565C0.45746 45.565 0.473083 45.565 0.490658 45.565L28.4759 45.2333C28.5871 45.2285 28.6921 45.1805 28.7686 45.0996C28.8451 45.0186 28.8872 44.9111 28.8859 44.7997C28.8845 44.6883 28.8399 44.5817 28.7615 44.5027C28.6831 44.4236 28.577 44.3781 28.4656 44.3759L0.480396 44.7077C0.370716 44.7087 0.265621 44.7518 0.186778 44.8281C0.107934 44.9044 0.0613639 45.0081 0.0566675 45.1177C0.051971 45.2274 0.0895023 45.3347 0.161533 45.4174C0.233563 45.5002 0.334591 45.5522 0.44378 45.5626L0.441837 45.565Z" fill="#3F434C"/>
    <path d="M25.2316 42.9822L27.306 42.9615L27.174 29.7525L25.0996 29.7733L25.2316 42.9822Z" fill="#FCF8EB"/>
    <path d="M25.3768 60.2178L27.4511 60.1931L27.2945 46.9851L25.2202 47.0097L25.3768 60.2178Z" fill="#FCF8EB"/>
    <path d="M12.1468 19.4232L16.2006 19.3751L16.0585 7.39367L12.0046 7.44182L12.1468 19.4232Z" fill="#606060"/>
  </g>
  <defs>
    <clipPath id="clip0_48_275">
      <rect width="46.0251" height="86" fill="white"/>
    </clipPath>
  </defs>
</svg>