<svg xmlns="http://www.w3.org/2000/svg" width="60" height="86" viewBox="0 0 60 86" fill="none">
  <g clip-path="url(#clip0_48_237)">
    <path d="M30 0C13.4329 0 0 13.3946 0 29.9161C0.0196626 37.1764 2.58037 44.2106 7.25501 49.8455C9.37735 52.4244 10.5251 55.6421 10.5043 58.9543C10.5043 61.4488 12.2949 63.4678 14.5032 63.4678H45.4968C47.7051 63.4678 49.4957 61.4488 49.4957 58.9543C49.4743 55.6413 50.6222 52.4228 52.745 49.8432C57.4196 44.2084 59.9803 37.1742 60 29.9139C60 13.399 46.5671 0 30 0ZM51.8102 49.0759C49.5126 51.8747 48.2694 55.3632 48.2899 58.9543C48.2899 60.7721 47.039 62.256 45.5035 62.256H14.5032C12.9678 62.256 11.7168 60.7721 11.7168 58.9388C11.7367 55.3453 10.491 51.855 8.18982 49.056C3.69647 43.6381 1.234 36.8761 1.21256 29.8962C1.21256 14.0868 14.1261 1.20965 30 1.20965C45.8739 1.20965 58.7874 14.0868 58.7874 29.9161C58.766 36.896 56.3035 43.658 51.8102 49.0759Z" fill="#70CAFE"/>
    <path opacity="0.6" d="M14.5032 62.2714C12.9678 62.2714 11.7168 60.7876 11.7168 58.9543C11.7374 55.3607 10.4917 51.8701 8.18983 49.0715C3.69518 43.6543 1.23254 36.8918 1.21255 29.9117C1.21255 14.0868 14.1261 1.20966 30 1.20966C45.8739 1.20966 58.7874 14.0868 58.7874 29.9161C58.7675 36.8962 56.3048 43.6587 51.8102 49.0759C49.5119 51.8743 48.2687 55.363 48.2899 58.9543C48.2899 60.7743 47.039 62.2582 45.5035 62.2582L14.5032 62.2714Z" fill="#70CAFE"/>
    <path opacity="0.6" d="M30 57.2626C45.1506 57.2626 57.4326 45.0152 57.4326 29.9073C57.4326 14.7994 45.1506 2.55197 30 2.55197C14.8494 2.55197 2.56735 14.7994 2.56735 29.9073C2.56735 45.0152 14.8494 57.2626 30 57.2626Z" fill="url(#paint0_radial_48_237)"/>
    <path d="M36.8418 26.8179C35.6864 29.1165 34.0797 31.1695 32.1135 32.8595C31.6029 33.3084 31.0685 33.7307 30.5126 34.1245L28.7807 32.9767C27.0781 31.5504 25.4636 29.9803 24.2895 28.1249C23.9252 27.5492 23.6167 26.9413 23.3682 26.3093C23.0468 25.4891 22.8284 24.6336 22.7179 23.7617C22.6674 23.3722 22.6395 22.9801 22.6343 22.5875C22.6118 20.7365 23.2124 19.1354 23.874 17.4636C23.9711 17.2181 24.0682 16.9705 24.1675 16.7228C24.2804 16.4264 24.3933 16.1279 24.5085 15.8382C24.5085 15.8227 24.522 15.7984 24.5288 15.7785C25.1453 14.1177 25.8136 12.4149 26.2088 10.6701C26.3854 9.92321 26.4942 9.16246 26.5339 8.39677C26.5339 8.24197 26.5475 8.08717 26.5497 7.93459C26.5339 7.26256 26.4026 6.59796 26.1614 5.96863C26.1117 5.81383 26.0575 5.66124 26.001 5.50644C25.9694 5.4202 25.9356 5.32953 25.904 5.23886C26.6423 5.68115 27.6517 6.28929 28.0852 6.56571C29.3862 7.42548 30.6093 8.39323 31.7409 9.45825C32.5182 10.1737 33.254 10.9312 33.9447 11.7272C36.0176 14.1177 37.6705 16.8931 38.0882 19.989C38.4134 22.3376 37.8872 24.6773 36.8418 26.8179Z" fill="#88BD27"/>
    <path d="M36.8418 26.8179C35.6864 29.1165 34.0797 31.1695 32.1135 32.8595C31.6029 33.3084 31.0685 33.7307 30.5126 34.1245L28.7807 32.9767C27.0781 31.5504 25.4636 29.9802 24.2895 28.1249C23.9252 27.5492 23.6167 26.9413 23.3682 26.3093C23.5158 26.5947 23.6953 26.8632 23.9033 27.1098C24.6078 27.9258 25.7685 28.7131 26.8388 28.9232C27.6833 29.089 28.2523 28.5826 28.3968 27.8175C28.5999 26.7326 28.7267 25.6354 28.7761 24.5335C28.9071 21.8688 28.4239 19.2858 28.1665 16.6542C28.0762 15.7055 27.9542 14.759 27.7826 13.8214C27.6968 13.3592 27.5997 12.897 27.5004 12.4326C27.2136 11.0814 26.9246 9.71699 26.5339 8.39234C26.5339 8.23755 26.5475 8.08275 26.5497 7.93016C26.5334 7.25963 26.4021 6.59656 26.1614 5.96863C26.1117 5.81383 26.0575 5.66124 26.001 5.50644C26.5453 6.40962 27.0048 7.35926 27.3739 8.34369C29.9974 14.9391 31.2925 21.9695 31.1877 29.047C31.1877 29.3146 31.1877 29.6132 31.3819 29.7989C31.6077 30.0201 32.0006 29.9692 32.3145 29.8741C34.1103 29.3391 35.6922 28.2712 36.8418 26.8179Z" fill="#70A02A"/>
    <path d="M26.2901 42.9945C26.2101 43.5794 26.0978 44.1596 25.9536 44.7327C25.8289 45.2323 25.6781 45.7253 25.502 46.2099L23.9214 46.1634C22.2257 45.9246 20.5344 45.5575 18.9741 44.8211C17.9961 44.3561 17.1142 43.7181 16.3729 42.9392C16.269 42.8308 16.1697 42.718 16.0726 42.6075C15.8697 42.3734 15.6805 42.1282 15.5058 41.8733C14.6816 40.6747 14.3587 39.3854 14.0404 38.0232C13.9929 37.822 13.9478 37.6229 13.9026 37.4195C13.8439 37.1806 13.7874 36.9374 13.7265 36.7008C13.7265 36.6875 13.7265 36.6698 13.7152 36.6543C13.372 35.3164 13.0491 33.9343 12.532 32.6317C12.2737 31.9595 11.9445 31.3154 11.5498 30.71C11.3418 30.3998 11.0919 30.1186 10.8069 29.8741C10.6917 29.7724 10.5811 29.6729 10.4524 29.58C10.3237 29.4871 10.2108 29.3898 10.0888 29.2969L9.97141 29.2085C10.6307 29.1974 11.5294 29.1819 11.9246 29.1864C13.122 29.2206 14.3141 29.356 15.4877 29.591C16.2908 29.7421 17.0846 29.937 17.8654 30.1749C20.216 30.8914 22.4695 32.0347 24.0863 33.8856C26.2178 36.3359 26.7259 39.8078 26.2901 42.9945Z" fill="#88BD27"/>
    <path d="M26.281 43.0078C26.224 43.591 26.1144 44.1683 25.9536 44.7327C25.8289 45.2323 25.6781 45.7253 25.502 46.2099L23.9214 46.1635C22.2256 45.9246 20.5344 45.5575 18.9741 44.8211C17.996 44.3561 17.1142 43.7181 16.3729 42.9392C16.5535 43.0055 16.7319 43.0763 16.9058 43.136C17.6431 43.3978 18.4302 43.4975 19.2112 43.4279C19.6063 43.3925 20.0376 43.2886 20.2589 42.9613C20.4802 42.634 20.4237 42.247 20.3425 41.8844C19.8909 39.8498 18.4954 38.1625 17.1541 36.5592C16.3638 35.6172 15.5743 34.6759 14.7855 33.7353C13.8823 32.6539 12.9791 31.5703 11.8862 30.6636C11.5441 30.378 11.1836 30.1143 10.8069 29.8741C10.6917 29.7724 10.5811 29.6729 10.4523 29.58C10.3236 29.4871 10.2107 29.3898 10.0888 29.2969C10.5324 29.5207 10.9615 29.7711 11.3736 30.0466C11.676 30.2132 11.9944 30.3502 12.3242 30.4557C13.1868 30.8184 13.9703 31.4088 14.7539 31.9219C16.4722 33.0586 18.0325 34.4075 19.5883 35.7344C21.3269 37.216 22.6027 39.3125 23.8785 41.1878C24.3459 41.8821 24.7614 42.8131 25.6217 43.0984C25.8904 43.1913 26.0168 43.0763 26.281 43.0078Z" fill="#70A02A"/>
    <path d="M53.4201 29.6684C53.226 29.7525 53.0318 29.8299 52.8444 29.9161C52.3366 30.1222 51.8702 30.4149 51.467 30.7808L51.4195 30.8294C50.8965 31.3449 50.4309 31.9135 50.0309 32.5256C49.2112 33.7507 48.5722 35.1218 47.9241 36.4398C47.9157 36.4541 47.9082 36.4689 47.9016 36.484C47.7864 36.7162 47.6758 36.9595 47.5628 37.1939C47.4499 37.4283 47.3777 37.5942 47.2851 37.7932C47.2174 37.937 47.1519 38.0807 47.0819 38.2222C46.8032 38.8321 46.4834 39.4231 46.1245 39.9914C45.7884 40.5188 45.3855 41.0025 44.9255 41.431C44.8833 41.4708 44.8404 41.5084 44.7968 41.5438C44.6017 41.7203 44.3959 41.885 44.1803 42.0369C43.1518 42.782 41.962 43.2852 40.703 43.5075C38.9463 43.8193 37.115 43.6933 35.3176 43.4345L33.6738 42.9923C33.5993 42.4284 33.5519 41.8534 33.5338 41.285C33.4934 40.1377 33.5644 38.9893 33.7461 37.8551C33.8308 37.3145 33.9446 36.7785 34.087 36.2496C34.726 33.8679 35.9363 31.7118 37.8669 30.3407C39.9398 28.8635 42.5117 28.335 45.0926 28.2863C45.9519 28.2684 46.8115 28.3016 47.6667 28.3858C48.9356 28.4944 50.1922 28.7127 51.4218 29.0382C51.8237 29.1687 52.745 29.4584 53.4201 29.6684Z" fill="#7CB834"/>
    <path d="M51.5392 30.0245C51.2118 30.0709 50.636 30.6149 50.3425 30.8051C49.9044 31.0823 49.4649 31.355 49.0238 31.6233C48.1409 32.1629 47.2535 32.6937 46.3751 33.2399C44.0525 34.6838 41.8977 36.3715 39.9488 38.2731C39.3346 38.8724 38.6188 39.527 38.4901 40.4182C38.4399 40.7217 38.4692 41.0328 38.5755 41.3221C38.6818 41.6115 38.8614 41.8696 39.0975 42.0723C39.327 42.2416 39.5889 42.3642 39.8675 42.4328C40.7468 42.6496 41.6689 42.6359 42.541 42.393C43.3183 42.18 44.0741 41.898 44.799 41.5504C44.604 41.7269 44.3981 41.8916 44.1826 42.0436C43.1541 42.7886 41.9643 43.2918 40.7053 43.5141C38.9485 43.826 37.1173 43.6999 35.3199 43.4412L33.6761 42.9989C33.6015 42.435 33.5541 41.86 33.5361 41.2917C33.4956 40.1444 33.5667 38.9959 33.7483 37.8618C33.833 37.3211 33.9468 36.7852 34.0893 36.2563C34.1367 36.4636 34.2127 36.6638 34.3151 36.8511C34.3761 36.9673 34.4626 37.0688 34.5684 37.1483C34.6742 37.2279 34.7966 37.2834 34.927 37.3111C35.4215 37.3885 35.7241 36.9728 36.0357 36.6764C36.4533 36.315 36.8937 35.9797 37.3544 35.6724C38.1023 35.1511 38.8896 34.6861 39.7095 34.2815C41.0191 33.5981 42.3762 33.0121 43.7423 32.4593C46.2713 31.4354 48.8341 30.4026 51.5392 30.0245Z" fill="#70A02A"/>
    <path d="M51.3631 30.0776L51.3179 30.0952L51.257 30.1174C51.2291 30.1257 51.202 30.1361 51.1757 30.1483C51.144 30.1483 51.1079 30.1726 51.0695 30.1903C50.9905 30.2169 50.9137 30.2456 50.8437 30.2788C50.7942 30.2955 50.746 30.3154 50.6992 30.3385C50.6134 30.3717 50.5186 30.4093 50.417 30.4535C48.159 31.4221 46.0206 32.8684 43.9974 34.2129C40.1023 36.7892 35.846 39.6442 33.7573 43.9763C32.9855 45.6334 32.4885 47.4004 32.2851 49.2108C32.179 50.0578 32.1203 50.9224 32.0999 51.7937C32.0074 55.7301 32.7051 59.83 33.3938 63.344C33.1002 63.3993 32.8044 63.4479 32.5086 63.4899H32.4815C31.9532 63.5725 31.4225 63.6352 30.8896 63.6779C30.3884 63.7199 29.8871 63.7509 29.3835 63.7642C29.0155 63.7774 28.6474 63.7818 28.2794 63.7752C27.751 63.7752 27.2204 63.7509 26.6988 63.7111L26.3601 63.6868C26.5294 62.413 26.8275 61.1193 26.8117 59.8322C26.7959 59.0118 26.7891 58.1958 26.7665 57.3798C26.7417 56.524 26.6988 55.6681 26.6107 54.8101C26.2982 51.5686 25.4645 48.3959 24.1404 45.4093C21.5302 39.6198 17.0209 34.5734 12.2317 30.4734L12.2971 30.5176C18.9186 34.8962 24.2257 40.9275 27.6697 47.9879L27.7126 48.0741C27.5907 47.822 28.1642 46.5969 28.2365 46.305C30.5419 38.0121 30.3635 29.0979 29.7855 20.5839C29.4671 15.9001 28.5955 11.1854 26.6875 6.87311C26.8072 7.13848 26.9381 7.39943 27.0781 7.65816C27.5523 8.52725 28.11 9.3499 28.5639 10.2234C28.7061 10.5021 28.8394 10.7829 28.9545 11.0704C29.6238 12.7487 30.1894 14.4649 30.648 16.2097C31.7658 20.4535 32.0864 24.7834 32.2399 29.1488C32.3137 31.2216 32.3137 33.2937 32.2399 35.3651C32.1948 36.7317 32.0932 38.0674 32.0525 39.4186C32.0322 40.0179 32.0232 40.6194 32.0367 41.2275C32.0367 40.772 34.7463 39.0161 35.1731 38.6822C39.9827 34.7857 45.5148 32.0745 51.3563 30.093L51.3631 30.0776Z" fill="#8C6239"/>
    <path d="M28.0965 50.3873C28.0965 50.3873 27.8052 48.9255 27.6449 47.9834L27.6878 48.0697C27.5659 47.8176 28.1394 46.5925 28.2117 46.3006C30.5171 38.0077 30.3387 29.0935 29.7607 20.5795C29.4423 15.8957 28.5707 11.181 26.6627 6.86868C26.7033 6.94387 26.8456 7.21145 27.0533 7.65374C28.0829 9.84304 30.7452 16.296 30.8355 24.7038C30.9484 35.1307 31.0319 41.1612 28.0965 50.3873Z" fill="#7A5130"/>
    <path d="M50.4057 30.4535C48.1477 31.4221 46.0093 32.8684 43.9861 34.2129C40.0911 36.7892 35.8347 39.6442 33.746 43.9763C32.9742 45.6334 32.4773 47.4004 32.2738 49.2108C32.1677 50.0578 32.109 50.9224 32.0886 51.7937C31.908 47.8574 31.8516 45.9158 33.0957 43.7043C37.4943 35.8648 47.2761 31.7405 50.4057 30.4535Z" fill="#7A5130"/>
    <path d="M51.3638 30.0775L51.3179 30.0958L51.3409 30.0844L51.3638 30.0775Z" fill="#7A5130"/>
    <path d="M26.7417 57.3798C26.7169 56.5239 26.674 55.6681 26.5859 54.8101C26.2734 51.5686 25.4396 48.3959 24.1156 45.4093C21.5054 39.6198 16.9961 34.5734 12.2068 30.4734L12.2723 30.5176C13.2704 31.212 23.9801 38.8923 26.9494 51.2298C27.455 53.2599 27.3832 55.3868 26.7417 57.3798Z" fill="#7A5130"/>
    <path opacity="0.1" d="M29.3836 63.7553C29.7155 63.773 30.4358 63.8504 30.7384 63.689C31.041 63.5275 30.9845 63.187 31.0297 62.8531C31.1821 61.5084 31.085 60.1479 30.7429 58.8371C30.4448 57.6275 29.8397 56.5394 29.4355 55.3674C29.1321 54.4136 29.0908 53.3984 29.3158 52.424C29.5936 51.0971 30.219 49.8742 30.8422 48.6646C30.2869 49.7549 29.973 50.9478 29.921 52.1652C29.8736 54.0538 30.7429 55.9247 31.3029 57.6938C31.8922 59.5713 32.459 61.493 32.459 63.4745C32.459 62.3113 32.6012 61.1923 32.4748 60.0224C32.3664 59.0184 32.1067 58.0498 31.9216 57.0569C31.5558 55.1926 31.3458 53.3022 31.2938 51.4045C31.2555 49.454 31.4068 45.0998 33.0619 42.8861C34.6922 40.7079 37.2369 37.1055 42.9971 33.8392C41.7372 34.5336 36.205 37.7048 31.6348 42.0989L32.0322 39.4098C32.0729 38.0586 32.1745 36.7229 32.2196 35.3562C32.2874 33.2922 32.2874 31.2201 32.2196 29.1399C32.0661 24.7746 31.7455 20.4446 30.6277 16.2009C30.1691 14.456 29.6035 12.7398 28.9342 11.0615C28.8191 10.7741 28.6858 10.4932 28.5413 10.2146C28.5413 10.2146 33.3622 23.085 30.2032 44.1732C30.2032 44.1732 29.1871 48.4368 28.1168 51.2962C25.8249 41.1126 17.0074 34.5026 17.0074 34.5026C26.5475 43.6668 27.5659 52.6186 27.5659 52.6208C27.742 54.1688 27.5501 55.604 27.3401 57.1277C27.0736 59.0361 28.6316 60.7588 28.4442 62.696C29.0516 61.2365 29.6636 59.7526 29.8419 58.1825C29.9684 59.3767 30.0903 60.6151 29.6997 61.754C29.5732 62.1189 29.3271 62.5169 29.3136 62.9105C29.2955 63.1914 29.3926 63.47 29.3836 63.7553Z" fill="white"/>
    <path d="M50.0489 31.5681C48.457 33.0829 47.5945 35.1904 46.8267 37.247C46.5924 37.9663 46.275 38.657 45.8806 39.3058C45.6745 39.6246 45.4211 39.9116 45.1287 40.1572C44.8376 40.3586 44.5361 40.5454 44.2255 40.7167C43.6 41.128 42.7104 41.2253 41.9788 41.3226C41.3578 41.4067 40.6398 41.4067 40.2107 40.9489C39.8314 40.5464 39.8224 39.9007 40.0459 39.4009C40.2993 38.9092 40.6528 38.4734 41.0846 38.1205C42.9294 36.4155 45.0565 35.1284 47.0142 33.5893C47.5245 33.189 48.0483 32.8064 48.5948 32.4482C48.857 32.2582 49.1307 32.0839 49.4144 31.9263C49.6436 31.8398 49.8576 31.7189 50.0489 31.5681Z" fill="#97D340"/>
    <path d="M36.8666 35.2036C37.0066 35.0798 37.1489 34.9582 37.2934 34.8409C37.9204 34.3436 38.5897 33.8997 39.294 33.5141C41.4391 32.2978 43.7626 31.4354 46.1019 30.6746C48.037 30.0444 50.0534 29.4738 52.0766 29.6839C49.9744 29.0094 47.7864 28.534 45.5826 28.5096C43.3787 28.4853 41.132 28.9276 39.2014 29.9957C38.5972 30.3392 38.0171 30.7219 37.465 31.1412C37.0748 31.4203 36.71 31.7318 36.3744 32.0722C35.4012 33.086 34.7814 34.3759 34.6041 35.7565C34.5702 36.0329 34.5928 36.3779 34.8435 36.5039C35.0941 36.63 35.3583 36.4619 35.5683 36.3005C36.0108 35.9666 36.4353 35.5774 36.8666 35.2036Z" fill="#97D340"/>
    <path d="M32.0887 20.1394C32.391 21.4846 32.5985 22.8486 32.7096 24.2217C32.7796 25.4468 32.7096 26.6764 32.8157 27.8971C33.807 28.3084 34.9338 27.645 35.6202 26.8223C36.826 25.3783 37.2821 23.419 37.176 21.5437C36.8982 16.495 33.6128 12.1694 30 8.86116C29.4806 8.3857 28.95 7.91909 28.4081 7.47018C27.9136 7.05885 27.3559 6.49273 26.7733 6.22736C27.1752 7.07433 27.9204 7.72228 28.4126 8.51839C30.0587 11.1721 30.8806 14.1774 31.4903 17.2071C31.701 18.1845 31.9005 19.162 32.0887 20.1394Z" fill="#97D340"/>
    <path d="M25.6556 27.0346C23.1085 25.9577 22.8647 23.1823 23.3705 20.7829C23.5164 20.1671 23.7081 19.5625 23.944 18.974C24.6139 17.1724 25.2853 15.3709 25.9582 13.5693C26.2394 12.9016 26.4366 12.2028 26.5452 11.4883C26.5091 11.8267 26.7575 12.3729 26.8252 12.7113C26.911 13.1535 26.981 13.5958 27.051 14.0381C27.1504 14.7856 27.3446 15.5153 27.3581 16.265C27.3897 17.9391 27.4101 19.6109 27.4326 21.2827C27.453 22.8595 27.6291 24.5247 27.331 26.0837C27.2656 26.4331 27.2272 26.9241 26.9043 27.1297C26.5814 27.3354 26.1275 27.2182 25.8136 27.0988L25.6556 27.0346Z" fill="#97D340"/>
    <path d="M25.9966 41.3071C25.9966 41.4443 25.9966 41.5814 25.9966 41.7207C25.9966 42.0524 25.8498 42.4173 25.4659 42.4482C25.3485 42.451 25.232 42.4268 25.1257 42.3777C25.0195 42.3286 24.9264 42.2558 24.854 42.1652C24.4521 41.7096 24.215 41.086 23.8989 40.5707C23.524 39.9604 23.1108 39.3766 22.6953 38.8016C21.9479 37.6959 21.1689 36.5106 20.1889 35.5906C18.4435 33.952 16.4451 32.5853 14.4965 31.2032C14.0661 30.8966 13.6191 30.6131 13.1575 30.354C12.7059 30.0952 12.1956 29.967 11.7349 29.7348C12.2249 29.8741 12.7623 29.9161 13.2659 30.0068C13.7694 30.0974 14.3339 30.2036 14.8645 30.3164C15.9444 30.5365 17.0111 30.8149 18.0596 31.1501C20.5434 31.9617 23.2531 33.1846 24.6756 35.4823L24.7637 35.626C25.2511 36.448 25.5917 37.3454 25.7708 38.2797C25.9488 39.279 26.0244 40.2932 25.9966 41.3071Z" fill="#97D340"/>
    <path d="M18.6354 42.7026C17.6444 42.6568 16.7058 42.2535 16.0003 41.5703C15.1942 40.7388 14.9119 39.538 14.6455 38.4522C14.3587 37.3023 13.9523 36.1988 13.6045 35.0709C13.4578 34.5933 13.3155 34.1134 13.1846 33.6291C13.0649 33.1868 13.0333 32.5057 12.8075 32.1165C14.4581 34.9604 17.0232 37.1077 18.8025 39.8565C19.1909 40.4558 19.5476 41.1148 19.5612 41.8291C19.5756 41.9651 19.558 42.1026 19.5099 42.231C19.4618 42.3593 19.3843 42.4753 19.2835 42.5699C19.0904 42.6882 18.8607 42.7352 18.6354 42.7026Z" fill="#97D340"/>
    <path opacity="0.6" d="M52.5642 23.1232C55.1688 16.3618 49.2319 7.90677 39.3037 4.23843C29.3754 0.570089 19.2155 3.07755 16.6109 9.83901C14.0062 16.6005 19.9432 25.0555 29.8714 28.7238C39.7997 32.3921 49.9596 29.8847 52.5642 23.1232Z" fill="url(#paint1_radial_48_237)"/>
    <path d="M49.367 64.6819V65.3674C49.3712 66.0121 49.1645 66.6411 48.7773 67.1623C48.3901 67.6836 47.8426 68.0698 47.2151 68.2644C46.9286 68.3517 46.6301 68.3957 46.33 68.3949H13.871C13.5716 68.3957 13.2739 68.3517 12.9881 68.2644C12.3603 68.0699 11.8126 67.6838 11.425 67.1625C11.0374 66.6413 10.8303 66.0122 10.834 65.3674V64.6819C10.8304 64.2878 10.9061 63.8969 11.0568 63.5315C11.2075 63.166 11.4302 62.8333 11.7122 62.5521C11.9942 62.271 12.33 62.047 12.7004 61.893C13.0708 61.739 13.4686 61.6579 13.871 61.6544H46.33C46.7324 61.6579 47.1301 61.739 47.5005 61.893C47.8709 62.047 48.2067 62.271 48.4887 62.5521C48.7707 62.8333 48.9935 63.166 49.1442 63.5315C49.2948 63.8969 49.3706 64.2878 49.367 64.6819Z" fill="#CDCDCD"/>
    <g opacity="0.3">
      <path d="M48.9154 66.9508C48.5307 67.5748 47.9258 68.039 47.2151 68.2555C46.9286 68.3429 46.6301 68.3869 46.33 68.386H13.871C13.5716 68.3869 13.2739 68.3429 12.9881 68.2555C12.3604 68.0611 11.8126 67.675 11.425 67.1537C11.0374 66.6324 10.8303 66.0034 10.834 65.3586V64.6819C10.8322 64.2313 10.9325 63.7859 11.1277 63.3778C11.323 62.9698 11.6083 62.6093 11.963 62.3223C11.6659 62.8031 11.5097 63.3547 11.5114 63.9167V64.5934C11.5073 65.2378 11.7141 65.8664 12.1013 66.3873C12.4885 66.9083 13.0359 67.294 13.6633 67.4882C13.9496 67.5765 14.2482 67.6212 14.5484 67.6209H47.0096C47.3091 67.621 47.6069 67.5763 47.8925 67.4882C48.2659 67.3758 48.6133 67.1933 48.9154 66.9508Z" fill="#231F20"/>
    </g>
    <path opacity="0.3" d="M46.9464 63.0675H30.8648C30.7796 63.0664 30.6983 63.0322 30.6386 62.9726C30.579 62.9129 30.5458 62.8326 30.5464 62.7491V62.6407C30.5459 62.5993 30.5536 62.5582 30.5693 62.5197C30.585 62.4813 30.6084 62.4462 30.638 62.4166C30.6676 62.387 30.7028 62.3634 30.7418 62.3473C30.7807 62.3311 30.8225 62.3226 30.8648 62.3223H46.9464C46.9888 62.3226 47.0308 62.3311 47.0698 62.3472C47.1089 62.3634 47.1443 62.3869 47.1741 62.4165C47.2039 62.446 47.2274 62.4811 47.2433 62.5196C47.2593 62.558 47.2674 62.5992 47.2671 62.6407V62.7491C47.2671 62.8328 47.2334 62.9131 47.1734 62.9727C47.1134 63.0323 47.0319 63.0664 46.9464 63.0675Z" fill="white"/>
    <path d="M48.1319 70.4227V71.0994C48.1367 71.792 47.8978 72.465 47.4552 73.0051C47.0127 73.5453 46.3936 73.9196 45.7023 74.065C45.5025 74.1058 45.2989 74.1266 45.0948 74.1269H15.0971C14.893 74.1266 14.6895 74.1058 14.4897 74.065C13.7988 73.9191 13.1802 73.5446 12.7381 73.0045C12.296 72.4644 12.0574 71.7917 12.0623 71.0994V70.4227C12.061 70.0201 12.1414 69.6211 12.2987 69.2491C12.4561 68.877 12.6874 68.5393 12.9791 68.2556C13.2649 68.3429 13.5626 68.3869 13.862 68.386H46.33C46.6301 68.3869 46.9286 68.3429 47.2151 68.2556C47.5068 68.5393 47.7381 68.877 47.8955 69.2491C48.0529 69.6211 48.1332 70.0201 48.1319 70.4227Z" fill="#B4B4B4"/>
    <g opacity="0.3">
      <path d="M47.6825 72.6872C47.4674 73.0383 47.1805 73.342 46.8396 73.5791C46.4988 73.8162 46.1116 73.9816 45.7023 74.065C45.5025 74.1058 45.2989 74.1266 45.0948 74.1269H15.0971C14.893 74.1266 14.6895 74.1058 14.4897 74.065C13.7988 73.9191 13.1802 73.5446 12.7381 73.0045C12.296 72.4644 12.0574 71.7917 12.0623 71.0994V70.4227C12.061 70.0201 12.1414 69.6211 12.2987 69.2491C12.4561 68.877 12.6874 68.5393 12.9791 68.2556L13.0694 68.2821C12.8522 68.7094 12.7393 69.1803 12.7397 69.6576V70.3321C12.7351 71.0245 12.9738 71.6973 13.4158 72.2377C13.8578 72.7781 14.4762 73.1531 15.1671 73.2998C15.3677 73.3407 15.5719 73.3614 15.7768 73.3617H45.7745C46.4698 73.3636 47.1441 73.1291 47.6825 72.6983V72.6872Z" fill="#231F20"/>
    </g>
    <path opacity="0.3" d="M46.4655 69.62H30.8648C30.7796 69.6188 30.6983 69.5847 30.6386 69.525C30.579 69.4654 30.5458 69.3851 30.5464 69.3016V69.1932C30.5459 69.1518 30.5536 69.1106 30.5693 69.0722C30.585 69.0337 30.6084 68.9987 30.638 68.9691C30.6676 68.9395 30.7028 68.9159 30.7418 68.8997C30.7807 68.8835 30.8225 68.875 30.8648 68.8748H46.4655C46.5078 68.875 46.5496 68.8835 46.5885 68.8997C46.6275 68.9159 46.6627 68.9395 46.6923 68.9691C46.7219 68.9987 46.7453 69.0337 46.761 69.0722C46.7767 69.1106 46.7844 69.1518 46.7838 69.1932V69.3016C46.7844 69.3851 46.7513 69.4654 46.6917 69.525C46.632 69.5847 46.5507 69.6188 46.4655 69.62Z" fill="white"/>
    <path d="M46.0522 75.4736V76.1481C46.0571 76.8339 45.8231 77.5008 45.3888 78.0388C44.9544 78.5767 44.3458 78.9535 43.6632 79.107C43.4506 79.1543 43.2332 79.178 43.0152 79.1778H17.1857C17.0816 79.1775 16.9776 79.1716 16.8741 79.1601C16.1206 79.076 15.4254 78.7218 14.9227 78.1656C14.4199 77.6095 14.145 76.8909 14.151 76.1481V75.4736C14.1493 74.9835 14.2686 74.5002 14.4987 74.0649C14.6985 74.1058 14.902 74.1265 15.1061 74.1269H45.0948C45.2989 74.1265 45.5024 74.1058 45.7022 74.0649C45.9342 74.4996 46.0543 74.9832 46.0522 75.4736Z" fill="#CDCDCD"/>
    <g opacity="0.3">
      <path d="M45.5984 77.7514C45.3865 78.0949 45.1058 78.3929 44.7732 78.6274C44.4407 78.8619 44.0631 79.028 43.6632 79.1158C43.4506 79.1631 43.2332 79.1869 43.0152 79.1866H17.1857C17.0816 79.1863 16.9776 79.1804 16.8741 79.1689C16.1206 79.0848 15.4254 78.7306 14.9227 78.1745C14.4199 77.6184 14.145 76.8997 14.151 76.157V75.4736C14.1493 74.9835 14.2686 74.5002 14.4987 74.0649C14.6267 74.0917 14.7565 74.1095 14.8871 74.118C14.8481 74.3118 14.8285 74.5088 14.8284 74.7063V75.383C14.8229 76.1256 15.0979 76.844 15.6006 77.4C16.1033 77.956 16.7982 78.3104 17.5515 78.3949C17.6554 78.3949 17.757 78.4104 17.8654 78.4104H43.6926C43.9106 78.4107 44.128 78.3869 44.3407 78.3396C44.8012 78.2429 45.2321 78.0414 45.5984 77.7514Z" fill="#231F20"/>
    </g>
    <path opacity="0.3" d="M44.7764 75.3365L30.8648 75.3188C30.7796 75.3177 30.6982 75.2835 30.6386 75.2239C30.579 75.1642 30.5458 75.0839 30.5464 75.0004V74.892C30.5458 74.8085 30.579 74.7282 30.6386 74.6685C30.6982 74.6089 30.7796 74.5747 30.8648 74.5736L44.7764 74.5891C44.8623 74.5902 44.9442 74.6246 45.0042 74.6847C45.0643 74.7447 45.0977 74.8256 45.0971 74.9097V75.0159C45.0977 75.0576 45.0898 75.099 45.074 75.1377C45.0582 75.1765 45.0347 75.2117 45.0049 75.2416C44.9751 75.2714 44.9396 75.2951 44.9004 75.3114C44.8612 75.3277 44.819 75.3362 44.7764 75.3365Z" fill="white"/>
    <path d="M43.6632 79.107C42.3988 83.0389 36.8892 86 30.2597 86C23.6301 86 18.1702 83.0588 16.8741 79.1601C16.9776 79.1716 17.0816 79.1775 17.1858 79.1778H43.0152C43.2332 79.178 43.4506 79.1543 43.6632 79.107Z" fill="#B4B4B4"/>
    <path opacity="0.3" d="M42.532 81.1901C40.3056 84.0407 35.645 86 30.2597 86C23.6708 86 18.1702 83.0676 16.8741 79.1601C16.9776 79.1716 17.0816 79.1775 17.1858 79.1778H17.8744C19.6018 82.6851 24.7975 85.2348 30.9393 85.2348C35.8257 85.2348 40.1159 83.6183 42.532 81.1901Z" fill="#231F20"/>
    <path opacity="0.3" d="M41.7936 80.6262L30.8648 80.613C30.8225 80.6127 30.7807 80.6042 30.7418 80.588C30.7028 80.5718 30.6676 80.5483 30.638 80.5187C30.6084 80.4891 30.585 80.454 30.5693 80.4155C30.5536 80.3771 30.5459 80.3359 30.5464 80.2945V80.184C30.5458 80.1005 30.579 80.0201 30.6386 79.9605C30.6983 79.9008 30.7796 79.8667 30.8648 79.8655L41.7936 79.8788C41.8789 79.8799 41.9602 79.9141 42.0198 79.9737C42.0795 80.0334 42.1126 80.1137 42.112 80.1972V80.3056C42.1126 80.3471 42.1048 80.3884 42.0892 80.4269C42.0735 80.4655 42.0502 80.5007 42.0206 80.5305C41.9911 80.5603 41.9558 80.5841 41.9169 80.6005C41.8779 80.6169 41.836 80.6257 41.7936 80.6262Z" fill="white"/>
  </g>
  <defs>
    <radialGradient id="paint0_radial_48_237" cx="0" cy="0" r="1" gradientUnits="userSpaceOnUse" gradientTransform="translate(30.6575 56.4055) rotate(-90) scale(47.3236 63.4801)">
      <stop offset="0.37" stop-color="white" stop-opacity="0"/>
      <stop offset="0.44" stop-color="white" stop-opacity="0.02"/>
      <stop offset="0.51" stop-color="white" stop-opacity="0.07"/>
      <stop offset="0.6" stop-color="white" stop-opacity="0.16"/>
      <stop offset="0.68" stop-color="white" stop-opacity="0.28"/>
      <stop offset="0.77" stop-color="white" stop-opacity="0.44"/>
      <stop offset="0.86" stop-color="white" stop-opacity="0.63"/>
      <stop offset="0.95" stop-color="white" stop-opacity="0.86"/>
      <stop offset="1" stop-color="white"/>
    </radialGradient>
    <radialGradient id="paint1_radial_48_237" cx="0" cy="0" r="1" gradientUnits="userSpaceOnUse" gradientTransform="translate(26.6599 43.5467) scale(41.0981 41.0551)">
      <stop offset="0.37" stop-color="white" stop-opacity="0"/>
      <stop offset="0.44" stop-color="white" stop-opacity="0.02"/>
      <stop offset="0.51" stop-color="white" stop-opacity="0.07"/>
      <stop offset="0.6" stop-color="white" stop-opacity="0.16"/>
      <stop offset="0.68" stop-color="white" stop-opacity="0.28"/>
      <stop offset="0.77" stop-color="white" stop-opacity="0.44"/>
      <stop offset="0.86" stop-color="white" stop-opacity="0.63"/>
      <stop offset="0.95" stop-color="white" stop-opacity="0.86"/>
      <stop offset="1" stop-color="white"/>
    </radialGradient>
    <clipPath id="clip0_48_237">
      <rect width="60" height="86" fill="white"/>
    </clipPath>
  </defs>
</svg>