<svg xmlns="http://www.w3.org/2000/svg" width="81" height="86" viewBox="0 0 81 86" fill="none">
  <g clip-path="url(#clip0_48_81)">
    <path d="M55.2705 4.90011L57.8912 0L59.4407 5.34064L63.018 1.09494L63.4286 6.64254L67.8061 3.23714L67.0599 8.74916L72.0468 6.33262L70.1758 11.5682L75.554 10.2463L72.6407 14.9767L78.1747 14.8071L74.346 18.8254L79.7944 19.8157L75.2181 22.9468L80.3422 25.053L75.2181 27.1596L79.7944 30.2907L74.346 31.2806L78.1747 35.2993L72.6407 35.1296L75.554 39.8601L70.1758 38.5382L72.0468 43.7738L67.0599 41.3572L67.8061 46.8692L63.4286 43.4638L63.018 49.0114L59.4407 44.7657L57.8912 50.1064L55.2705 45.2059L52.6498 50.1064L51.1003 44.7657L47.523 49.0114L47.1124 43.4638L42.7348 46.8692L43.4811 41.3572L38.4942 43.7738L40.3652 38.5382L34.9873 39.8601L37.9003 35.1296L32.3666 35.2993L36.195 31.2806L30.747 30.2907L35.3229 27.1596L30.1989 25.053L35.3229 22.9468L30.747 19.8157L36.195 18.8254L32.3666 14.8071L37.9003 14.9767L34.9873 10.2463L40.3652 11.5682L38.4942 6.33262L43.4811 8.74916L42.7348 3.23714L47.1124 6.64254L47.523 1.09494L51.1003 5.34064L52.6498 0L55.2705 4.90011Z" fill="url(#paint0_linear_48_81)"/>
    <path d="M73.4282 28.8855L78.3418 27.4336L73.8247 25.0084L78.3301 22.5618L73.4099 21.1335L77.3109 17.7989L72.2022 17.4299L75.3281 13.3535L70.2549 14.0594L72.4687 9.41876L67.6524 11.1691L68.8577 6.1678L64.509 8.88597L64.6531 3.74193L60.9616 7.30938L60.0383 2.24757L57.1656 6.50813L55.2151 1.75003L53.287 6.51746L50.3943 2.27072L49.4947 7.33702L45.7864 3.78754L45.9549 8.93054L41.5935 6.23345L42.8225 11.2289L37.9979 9.50168L40.2338 14.1316L35.1575 13.4499L38.3026 17.5114L33.1961 17.905L37.1128 21.2209L32.1992 22.6728L36.7167 25.0976L32.2109 27.5445L37.131 28.9729L33.2304 32.3071L38.3387 32.6765L35.2129 36.7529L40.2861 36.047L38.0722 40.6873L42.8885 38.9369L41.6833 43.9386L46.0319 41.2204L45.8878 46.3641L49.5793 42.797L50.5026 47.8584L53.375 43.5982L55.3258 48.3563L57.254 43.5889L60.1466 47.8353L61.0462 42.7693L64.7546 46.3188L64.5861 41.1758L68.9475 43.8729L67.7184 38.8774L72.543 40.6043L70.3071 35.9748L75.3834 36.6565L72.2383 32.5949L77.3449 32.201L73.4282 28.8855Z" fill="url(#paint1_linear_48_81)"/>
    <path d="M75.2631 25.0534C75.2631 35.3304 67.5806 43.8059 57.6711 44.9969C56.8746 45.0931 56.0731 45.1411 55.2709 45.1407C44.23 45.1407 35.279 36.1469 35.279 25.0534C35.2717 20.1996 37.021 15.5086 40.2008 11.8547C43.8673 7.63349 49.2585 4.96576 55.2705 4.96576C66.3117 4.96576 75.2631 13.9599 75.2631 25.0534Z" fill="url(#paint2_linear_48_81)"/>
    <path style="mix-blend-mode:multiply" opacity="0.2" d="M64.4445 36.899C63.4328 39.7323 61.0556 42.5151 57.6701 44.9969C56.8736 45.0931 56.0721 45.1411 55.2698 45.1406C44.229 45.1406 35.2779 36.1469 35.2779 25.0534C35.2706 20.1995 37.0199 15.5086 40.1998 11.8546C40.358 13.3169 41.1042 14.946 42.9113 16.62C44.76 18.3293 47.7197 20.0866 52.2991 21.7554C63.2299 25.7382 66.4045 31.4084 64.4445 36.899Z" fill="url(#paint3_linear_48_81)"/>
    <g style="mix-blend-mode:soft-light" opacity="0.3">
      <path d="M55.2705 40.0619C63.5204 40.0619 70.2082 33.3422 70.2082 25.053C70.2082 16.7639 63.5204 10.0442 55.2705 10.0442C47.0207 10.0442 40.3329 16.7639 40.3329 25.053C40.3329 33.3422 47.0207 40.0619 55.2705 40.0619Z" fill="white"/>
    </g>
    <path d="M40.2256 84.5544L33.8845 84.6587L33.9045 84.3941L30.0854 84.7303V85.9416L33.9351 85.998L33.9065 85.8504L40.2256 85.744V84.5544Z" fill="url(#paint4_linear_48_81)"/>
    <path d="M43.3274 63.405V84.5046L35.096 84.6415V63.4907L43.3274 63.405Z" fill="url(#paint5_linear_48_81)"/>
    <path d="M47.264 85.7734L33.9031 86V84.3609L47.264 84.1408V85.7734Z" fill="url(#paint6_linear_48_81)"/>
    <path style="mix-blend-mode:multiply" opacity="0.4" d="M43.3274 69.8727V74.128C42.3731 74.4338 41.2166 74.6211 39.9343 74.6387C37.9261 74.6657 36.1696 74.2676 35.096 73.6388V70.5748C36.1696 69.9134 37.9261 69.4729 39.9343 69.4487C41.2166 69.4332 42.3731 69.59 43.3274 69.8727Z" fill="url(#paint7_linear_48_81)"/>
    <path d="M71.3106 70.3254L62.9004 33.9124C62.6907 33.0041 61.798 32.284 60.9314 32.2267L1.81123 28.3213C0.686751 28.247 -0.124108 28.9512 0.0172254 29.986L5.72866 71.8055C5.88925 72.9803 6.99 73.936 8.1774 73.9039L70.075 72.2323C70.975 72.2077 71.5448 71.3395 71.3106 70.3254Z" fill="url(#paint8_linear_48_81)"/>
    <path d="M63.8027 32.2173L4.37719 28.3213C3.24687 28.2473 2.43223 28.9498 2.57425 29.9798L8.31698 71.6939C8.47825 72.8656 9.58451 73.8192 10.7781 73.7874L72.9969 72.1265C73.9017 72.1023 74.4756 71.2361 74.239 70.2244L65.7824 33.8989C65.5713 32.993 64.6741 32.2743 63.8027 32.2173Z" fill="url(#paint9_linear_48_81)"/>
    <path d="M12.0412 31.2882L12.8981 36.9329C12.9545 37.305 12.697 37.5929 12.3214 37.5749L6.49136 37.2985C6.10656 37.2802 5.73793 36.9585 5.68463 36.5812L4.87755 30.8556C4.82528 30.4849 5.10588 30.204 5.48759 30.2275L11.2613 30.5841C11.6333 30.6079 11.9858 30.9227 12.0412 31.2882Z" fill="url(#paint10_linear_48_81)"/>
    <path d="M13.2565 39.2949L14.1344 45.0785C14.1925 45.4585 13.9329 45.7602 13.5539 45.7484L7.66607 45.5667C7.2768 45.5546 6.90404 45.2305 6.84936 44.8432L6.02406 38.976C5.97041 38.5959 6.25308 38.3026 6.63891 38.3195L12.469 38.5848C12.8431 38.6028 13.1997 38.92 13.2565 39.2949Z" fill="url(#paint11_linear_48_81)"/>
    <path d="M14.5019 47.4988L15.4015 53.4268C15.461 53.8179 15.1996 54.1313 14.8169 54.1261L8.86993 54.0446C8.47688 54.0391 8.0993 53.7122 8.04462 53.3152L7.19663 47.2994C7.14161 46.9097 7.42668 46.6036 7.8156 46.6146L13.7038 46.7843C14.0827 46.795 14.4435 47.1149 14.5019 47.4988Z" fill="url(#paint12_linear_48_81)"/>
    <path d="M15.7781 55.9083L16.701 61.9866C16.7619 62.3878 16.4989 62.7146 16.1123 62.7163L10.1052 62.7402C9.70834 62.7419 9.32595 62.4119 9.26852 62.0049L8.39886 55.8347C8.34246 55.4349 8.62994 55.1153 9.02334 55.1202L14.9724 55.1893C15.3534 55.192 15.7186 55.5148 15.7781 55.9083Z" fill="url(#paint13_linear_48_81)"/>
    <path d="M17.0868 64.5307L18.0329 70.7628C18.0954 71.174 17.8307 71.515 17.44 71.5229L11.3709 71.6611C10.97 71.6701 10.5831 71.3377 10.524 70.9197L9.6299 64.5891C9.57213 64.1793 9.86202 63.8456 10.2592 63.8431L16.2667 63.8055C16.6563 63.802 17.0256 64.1289 17.0868 64.5307Z" fill="url(#paint14_linear_48_81)"/>
    <path d="M20.1992 31.7837L21.1105 37.3365C21.1707 37.7027 20.9413 37.986 20.5785 37.9688L14.9445 37.701C14.5724 37.6834 14.21 37.3672 14.1536 36.9961L13.2884 31.3663C13.2323 31.0014 13.5085 30.7247 13.8771 30.7475L19.4479 31.093C19.8059 31.1144 20.1398 31.424 20.1992 31.7837Z" fill="url(#paint15_linear_48_81)"/>
    <path d="M21.4916 39.6593L22.4249 45.3469C22.4864 45.7218 22.256 46.0175 21.8898 46.0061L16.2021 45.8306C15.8266 45.8192 15.4597 45.5006 15.4012 45.1199L14.515 39.3518C14.4576 38.978 14.7355 38.6895 15.1079 38.7064L20.7296 38.9628C21.093 38.9794 21.4314 39.291 21.4916 39.6593Z" fill="url(#paint16_linear_48_81)"/>
    <path d="M22.8155 47.7265L23.7714 53.5533C23.8347 53.9379 23.6029 54.2443 23.2333 54.2412L17.4905 54.1624C17.1123 54.1573 16.7402 53.8359 16.6804 53.4458L15.7725 47.5341C15.7137 47.1512 15.9936 46.8503 16.3698 46.861L22.0438 47.0244C22.4114 47.0351 22.7532 47.3492 22.8155 47.7265Z" fill="url(#paint17_linear_48_81)"/>
    <path d="M24.1717 55.9919L25.1514 61.9634C25.2161 62.3573 24.9829 62.679 24.6098 62.6804L18.8121 62.7035C18.4293 62.7035 18.0535 62.3812 17.9923 61.9811L17.0607 55.9204C17.0005 55.5278 17.2829 55.2141 17.6625 55.2186L23.3918 55.2843C23.7622 55.2884 24.1081 55.6052 24.1717 55.9919Z" fill="url(#paint18_linear_48_81)"/>
    <path d="M25.5617 64.4629L26.5661 70.5844C26.6325 70.9884 26.398 71.3238 26.0214 71.3321L20.1669 71.4624C19.7804 71.471 19.4001 71.1442 19.3372 70.734L18.3819 64.5186C18.3203 64.116 18.6044 63.7888 18.9878 63.7864L24.7728 63.7498C25.1463 63.7488 25.4967 64.0663 25.5617 64.4629Z" fill="url(#paint19_linear_48_81)"/>
    <path d="M28.1115 32.2633C28.0489 31.9088 27.7332 31.6044 27.3863 31.583L22.0015 31.2495C21.6446 31.2274 21.407 31.5004 21.4668 31.8597L22.386 37.3973C22.4465 37.7632 22.7931 38.0738 23.1532 38.0911L28.5685 38.3496C28.9196 38.3661 29.1363 38.087 29.073 37.7259L28.1115 32.2633Z" fill="url(#paint20_linear_48_81)"/>
    <path d="M29.4754 40.0118L30.4599 45.606C30.5249 45.9747 30.3099 46.266 29.9561 46.2549L24.4782 46.0856C24.1154 46.0742 23.7746 45.7615 23.7123 45.3873L22.7708 39.7146C22.7096 39.347 22.9579 39.0627 23.3176 39.0792L28.7405 39.327C29.0916 39.3436 29.4114 39.65 29.4754 40.0118Z" fill="url(#paint21_linear_48_81)"/>
    <path d="M30.8718 47.9469L31.8801 53.6763C31.8856 53.7067 31.909 53.7378 31.91 53.7668C31.9262 54.102 31.7116 54.3573 31.3832 54.3542L25.8506 54.2782C25.4843 54.2733 25.1346 53.9579 25.071 53.5747L24.1064 47.7631C24.0438 47.3865 24.2935 47.0904 24.6566 47.1008L30.1284 47.2583C30.4829 47.2676 30.8065 47.5758 30.8718 47.9469Z" fill="url(#paint22_linear_48_81)"/>
    <path d="M32.302 56.0735L33.3336 61.9425C33.4024 62.3294 33.1851 62.6456 32.8247 62.647L27.2457 62.6698C26.876 62.6715 26.5273 62.354 26.462 61.9608L25.4733 56.0055C25.4094 55.6199 25.6607 55.311 26.0273 55.3144L31.5493 55.3777C31.9083 55.3825 32.2353 55.6931 32.302 56.0735Z" fill="url(#paint23_linear_48_81)"/>
    <path d="M33.7673 64.3983L34.8257 70.4123C34.8945 70.809 34.6779 71.1379 34.314 71.1466L28.6834 71.2727C28.3103 71.2813 27.9575 70.9617 27.8925 70.5581L26.8791 64.4536C26.8134 64.0579 27.0662 63.7363 27.4362 63.7339L33.009 63.6993C33.368 63.6959 33.6988 64.0089 33.7673 64.3983Z" fill="url(#paint24_linear_48_81)"/>
    <path d="M35.7618 32.7266C35.6964 32.3776 35.3938 32.0784 35.0565 32.0574L29.8767 31.735C29.5311 31.7139 29.3357 31.9827 29.3987 32.3365L30.3684 37.7864C30.4327 38.146 30.7443 38.4515 31.0905 38.4681L36.3092 38.7179C36.649 38.7341 36.8346 38.4587 36.7683 38.1035L35.7618 32.7266Z" fill="url(#paint25_linear_48_81)"/>
    <path d="M37.1919 40.3542C37.1232 39.997 36.8192 39.6957 36.4791 39.6801L31.2546 39.441C30.9062 39.4251 30.7102 39.7057 30.7731 40.0678L31.7659 45.6469C31.8316 46.0155 32.1466 46.3227 32.4977 46.3337L37.7614 46.4968C38.1053 46.5075 38.2906 46.2204 38.2225 45.8569L37.1919 40.3542Z" fill="url(#paint26_linear_48_81)"/>
    <path d="M38.6558 48.1608C38.587 47.7952 38.2775 47.4915 37.9336 47.4819L32.6641 47.3298C32.3126 47.3195 32.1139 47.6121 32.1826 47.9828L33.1991 53.6963C33.2679 54.0736 33.585 54.3832 33.9395 54.3873L39.249 54.4596C39.5928 54.4644 39.7816 54.1655 39.7118 53.7934L38.6558 48.1608Z" fill="url(#paint27_linear_48_81)"/>
    <path d="M40.1534 56.1518L41.2352 61.922C41.3064 62.302 41.1073 62.613 40.759 62.6151L35.4014 62.6379C35.0444 62.6379 34.7346 62.3269 34.6658 61.942L33.6242 56.0883C33.5554 55.7082 33.7662 55.4045 34.1204 55.4086L39.4371 55.4694C39.7837 55.4729 40.0846 55.778 40.1534 56.1518Z" fill="url(#paint28_linear_48_81)"/>
    <path d="M41.6888 64.3361L42.7971 70.2444C42.8704 70.6342 42.6702 70.9579 42.3188 70.9658L36.9141 71.0892C36.5541 71.0971 36.2408 70.7838 36.1703 70.3881L35.1043 64.39C35.0355 64.0016 35.2456 63.6844 35.6029 63.682L40.9674 63.6475C41.3133 63.6451 41.6173 63.9529 41.6888 64.3361Z" fill="url(#paint29_linear_48_81)"/>
    <path d="M43.2665 33.1754C43.1977 32.8319 42.8569 32.5372 42.5302 32.5172L37.4539 32.2062C37.1197 32.1855 36.8731 32.4505 36.9381 32.7984L37.9532 38.1626C38.022 38.5167 38.3659 38.819 38.7029 38.8332L43.8177 39.0751C44.1464 39.0906 44.3875 38.8201 44.318 38.4704L43.2665 33.1754Z" fill="url(#paint30_linear_48_81)"/>
    <path d="M44.7613 40.6856C44.6925 40.3338 44.3462 40.037 44.0171 40.0218L38.8986 39.7896C38.5616 39.7744 38.314 40.0502 38.3827 40.4064L39.4219 45.8956C39.4907 46.258 39.8401 46.5611 40.1785 46.5714L45.3366 46.7304C45.6681 46.7407 45.9102 46.4591 45.8393 46.1015L44.7613 40.6856Z" fill="url(#paint31_linear_48_81)"/>
    <path d="M46.2868 48.3685C46.2153 48.0092 45.8666 47.7096 45.5347 47.6999L40.3738 47.5517C40.0337 47.542 39.7844 47.8281 39.8535 48.1933L40.9171 53.8124C40.9859 54.1835 41.3408 54.489 41.6833 54.4934L46.8837 54.565C47.218 54.5698 47.4615 54.2772 47.3886 53.9113L46.2868 48.3685Z" fill="url(#paint32_linear_48_81)"/>
    <path d="M47.8496 56.2307L48.9776 61.9051C49.0522 62.2796 48.8173 62.5837 48.4807 62.5851L43.2369 62.6051C42.893 62.6051 42.5234 62.2986 42.4515 61.9193L41.3621 56.1643C41.2916 55.7915 41.5309 55.493 41.8734 55.4971L47.058 55.5566C47.3613 55.5604 47.687 55.8078 47.7946 56.1291C47.8063 56.1616 47.8428 56.1965 47.8496 56.2307Z" fill="url(#paint33_linear_48_81)"/>
    <path d="M49.4498 64.2792L50.6045 70.089C50.6808 70.4722 50.4446 70.7887 50.1052 70.7963L44.8171 70.9127C44.4691 70.9203 44.0967 70.6097 44.0231 70.2217L42.9072 64.3276C42.835 63.9458 43.0757 63.6365 43.4209 63.6331L48.6719 63.6013C49.0089 63.5985 49.3748 63.9026 49.4498 64.2792Z" fill="url(#paint34_linear_48_81)"/>
    <path d="M50.3507 33.6094C50.2795 33.2711 49.9931 32.9812 49.6767 32.9619L44.7902 32.6596C44.4663 32.6395 44.2613 32.9014 44.3301 33.2435L45.3882 38.5261C45.457 38.875 45.7909 39.1705 46.1169 39.186L51.0178 39.4203C51.3362 39.4355 51.5144 39.1684 51.4422 38.8243L50.3507 33.6094Z" fill="url(#paint35_linear_48_81)"/>
    <path d="M51.8991 41.0041C51.8266 40.6586 51.537 40.3663 51.2182 40.3518L46.2933 40.1272C45.9669 40.1123 45.7609 40.3843 45.8311 40.735L46.9136 46.1375C46.9851 46.4944 47.3214 46.7922 47.6502 46.8022L52.59 46.9553C52.9108 46.9653 53.0893 46.6872 53.0153 46.3354L51.8991 41.0041Z" fill="url(#paint36_linear_48_81)"/>
    <path d="M53.4827 48.5664C53.4084 48.2123 53.1161 47.9186 52.7949 47.91L47.8308 47.7669C47.5017 47.7576 47.295 48.0402 47.3669 48.3992L48.4745 53.9275C48.5477 54.2923 48.8871 54.5926 49.219 54.5971L54.1979 54.6662C54.5215 54.6703 54.7 54.3815 54.6247 54.0215L53.4827 48.5664Z" fill="url(#paint37_linear_48_81)"/>
    <path d="M55.1027 56.3018L56.2719 61.8833C56.3489 62.2513 56.1759 62.5519 55.8503 62.5533L50.8104 62.5737C50.4769 62.5737 50.1474 62.2734 50.0725 61.9003L48.9377 56.2403C48.9217 56.1478 48.9259 56.0529 48.9501 55.9622C48.9709 55.8528 49.0299 55.7546 49.1166 55.6852C49.2033 55.6158 49.3118 55.5798 49.4225 55.5839L54.405 55.6409C54.7285 55.6447 55.0267 55.9401 55.1027 56.3018Z" fill="url(#paint38_linear_48_81)"/>
    <path d="M56.7602 64.2176L57.9565 69.9301C58.0353 70.3067 57.8623 70.6194 57.5342 70.627L52.4538 70.7406C52.1175 70.7482 51.7843 70.4442 51.7076 70.062L50.5467 64.2671C50.4714 63.8918 50.6935 63.5864 51.0281 63.5843L56.0532 63.5515C56.3785 63.5498 56.6828 63.8473 56.7602 64.2176Z" fill="url(#paint39_linear_48_81)"/>
    <path d="M57.3978 34.0309C57.3245 33.6975 56.9996 33.4121 56.6928 33.3931L51.9783 33.1005C51.6647 33.0808 51.4907 33.3389 51.5619 33.6764L52.6623 38.8778C52.7345 39.2213 53.0178 39.5115 53.3335 39.5267L58.1041 39.7537C58.4136 39.7686 58.6034 39.5053 58.5291 39.1663L57.3978 34.0309Z" fill="url(#paint40_linear_48_81)"/>
    <path d="M59.0001 41.3147C58.9251 40.9741 58.5967 40.6862 58.2876 40.6721L53.5376 40.4551C53.2216 40.4406 53.0473 40.7087 53.1202 41.0542L54.244 46.3731C54.3179 46.7241 54.604 47.0168 54.9224 47.0265L59.7288 47.175C60.0383 47.1847 60.2312 46.9114 60.1548 46.5649L59.0001 41.3147Z" fill="url(#paint41_linear_48_81)"/>
    <path d="M60.638 48.7613C60.5614 48.4127 60.2295 48.1231 59.9183 48.1142L55.1326 47.9759C54.8142 47.967 54.6395 48.2458 54.7141 48.5979L55.8633 54.0398C55.9393 54.3991 56.2282 54.6931 56.549 54.6962L61.3918 54.7626C61.7051 54.7667 61.897 54.4827 61.8189 54.1282L60.638 48.7613Z" fill="url(#paint42_linear_48_81)"/>
    <path d="M62.3131 56.3754L63.5211 61.8691C63.6009 62.2312 63.3918 62.5256 63.0768 62.5256L58.2216 62.546C57.8987 62.546 57.5978 62.2512 57.5205 61.8839L56.3441 56.3159C56.2681 55.9552 56.4338 55.665 56.7543 55.6688L61.603 55.7244C61.9162 55.7282 62.2347 56.0195 62.3131 56.3754Z" fill="url(#paint43_linear_48_81)"/>
    <path d="M64.0266 64.1634L65.2625 69.7826C65.344 70.153 65.1346 70.4587 64.8154 70.466L59.9262 70.578C59.6009 70.5852 59.2969 70.287 59.2175 69.9111L58.0139 64.2129C57.9359 63.8435 58.1016 63.5419 58.4249 63.5398L63.3106 63.509C63.6243 63.507 63.9465 63.8003 64.0266 64.1634Z" fill="url(#paint44_linear_48_81)"/>
    <path d="M64.1318 34.439C64.0562 34.1104 63.7429 33.8295 63.4441 33.8112L58.8788 33.5271C58.5748 33.5085 58.4156 33.7628 58.4892 34.0952L59.624 39.2188C59.6989 39.5571 59.9744 39.8428 60.2801 39.8574L64.897 40.0774C65.1961 40.092 65.3705 39.8325 65.2935 39.4984L64.1318 34.439Z" fill="url(#paint45_linear_48_81)"/>
    <path d="M65.7825 41.6146C65.7051 41.2791 65.3888 40.9958 65.0893 40.9823L60.4913 40.7719C60.1852 40.7577 60.026 41.0224 60.1013 41.3624L61.2619 46.6001C61.3386 46.9456 61.6165 47.2334 61.9249 47.2427L66.5748 47.3865C66.876 47.3958 67.0504 47.1266 66.972 46.7853L65.7825 41.6146Z" fill="url(#paint46_linear_48_81)"/>
    <path d="M67.4695 48.9482C67.3907 48.6051 67.0709 48.3201 66.7693 48.3114L62.1384 48.1777C61.8289 48.1688 61.6703 48.4438 61.7474 48.7914L62.9344 54.1469C63.0128 54.5003 63.2934 54.7899 63.604 54.794L68.2875 54.8583C68.5908 54.8624 68.7655 54.5819 68.6854 54.2336L67.4695 48.9482Z" fill="url(#paint47_linear_48_81)"/>
    <path d="M69.194 56.4442L70.4375 61.8484C70.5193 62.2046 70.3267 62.4945 70.0217 62.4956L65.3268 62.516C65.0142 62.516 64.725 62.2257 64.6449 61.8647L63.4306 56.3858C63.4124 56.3036 63.3732 56.2231 63.3835 56.1509C63.4124 55.9131 63.5599 55.7456 63.7986 55.7483L68.4959 55.8022C68.7982 55.8071 69.1132 56.0938 69.194 56.4442Z" fill="url(#paint48_linear_48_81)"/>
    <path d="M70.9574 64.1095L72.2297 69.6377C72.3136 70.0023 72.1207 70.3032 71.8133 70.3101L67.0836 70.4172C66.769 70.4241 66.4767 70.1311 66.3959 69.7608L65.1531 64.1568C65.0727 63.7937 65.226 63.4965 65.5386 63.4948L70.2614 63.4648C70.5668 63.4627 70.8749 63.7512 70.9574 64.1095Z" fill="url(#paint49_linear_48_81)"/>
    <path style="mix-blend-mode:multiply" opacity="0.2" d="M9.66122 30.4856C10.4686 30.9348 11.3228 31.4257 12.1437 31.9627L12.8981 36.9329C12.9545 37.305 12.697 37.5929 12.3214 37.5749L6.49137 37.2985C6.10657 37.2802 5.73793 36.9585 5.68463 36.5812L4.87756 30.8556C4.82529 30.4849 5.10555 30.204 5.48759 30.2275L9.66122 30.4856Z" fill="url(#paint50_linear_48_81)"/>
    <path style="mix-blend-mode:multiply" opacity="0.2" d="M13.2565 39.2949L14.1344 45.0785C14.1925 45.4585 13.9329 45.7602 13.5539 45.7484L7.66607 45.5667C7.2768 45.5546 6.90404 45.2305 6.84936 44.8432L6.02406 38.976C5.97041 38.5959 6.25308 38.3026 6.63891 38.3195L12.469 38.5848C12.8431 38.6028 13.1997 38.92 13.2565 39.2949Z" fill="url(#paint51_linear_48_81)"/>
    <path style="mix-blend-mode:multiply" opacity="0.2" d="M14.5019 47.4988L15.4015 53.4268C15.461 53.8179 15.1996 54.1313 14.8169 54.1261L8.86993 54.0446C8.47688 54.0391 8.0993 53.7122 8.04462 53.3152L7.19663 47.2994C7.14161 46.9097 7.42668 46.6036 7.8156 46.6146L13.7038 46.7843C14.0827 46.795 14.4435 47.1149 14.5019 47.4988Z" fill="url(#paint52_linear_48_81)"/>
    <path style="mix-blend-mode:multiply" opacity="0.2" d="M15.7781 55.9083L16.701 61.9866C16.7619 62.3878 16.4989 62.7146 16.1123 62.7163L10.1052 62.7402C9.70834 62.7419 9.32595 62.4119 9.26852 62.0049L8.39886 55.8347C8.34246 55.4349 8.62994 55.1153 9.02334 55.1202L14.9724 55.1893C15.3534 55.192 15.7186 55.5148 15.7781 55.9083Z" fill="url(#paint53_linear_48_81)"/>
    <path style="mix-blend-mode:multiply" opacity="0.2" d="M17.0868 64.5307L18.0329 70.7628C18.0954 71.174 17.8307 71.515 17.44 71.5229L11.3709 71.6611C10.97 71.6701 10.5831 71.3377 10.524 70.9197L9.6299 64.5891C9.57213 64.1793 9.86202 63.8456 10.2592 63.8431L16.2667 63.8055C16.6563 63.802 17.0256 64.1289 17.0868 64.5307Z" fill="url(#paint54_linear_48_81)"/>
    <path style="mix-blend-mode:multiply" opacity="0.2" d="M14.1529 36.9962L13.5236 32.9011C15.6037 34.2953 17.6567 35.9551 19.6704 37.9256L14.9414 37.701C14.569 37.6834 14.21 37.3672 14.1529 36.9962Z" fill="url(#paint55_linear_48_81)"/>
    <path style="mix-blend-mode:multiply" opacity="0.2" d="M20.7003 38.961C20.9823 39.2561 21.2217 39.5581 21.5256 39.866L22.4249 45.3469C22.4864 45.7218 22.256 46.0175 21.8898 46.0061L16.2021 45.8306C15.8266 45.8192 15.4597 45.5006 15.4012 45.1199L14.515 39.3518C14.4576 38.978 14.7276 38.6895 15.0996 38.7064L20.7003 38.961Z" fill="url(#paint56_linear_48_81)"/>
    <path style="mix-blend-mode:multiply" opacity="0.2" d="M22.8155 47.7265L23.7714 53.5533C23.8347 53.9379 23.6029 54.2443 23.2333 54.2412L17.4905 54.1624C17.1123 54.1573 16.7402 53.8359 16.6804 53.4458L15.7725 47.5341C15.7137 47.1512 15.9936 46.8503 16.3698 46.861L22.0438 47.0244C22.4114 47.0351 22.7532 47.3492 22.8155 47.7265Z" fill="url(#paint57_linear_48_81)"/>
    <path style="mix-blend-mode:multiply" opacity="0.2" d="M24.1717 55.9919L25.1514 61.9634C25.2161 62.3573 24.9829 62.679 24.6098 62.6804L18.8121 62.7035C18.4293 62.7035 18.0535 62.3812 17.9923 61.9811L17.0607 55.9204C17.0005 55.5278 17.2829 55.2141 17.6625 55.2186L23.3918 55.2843C23.7622 55.2884 24.1081 55.6052 24.1717 55.9919Z" fill="url(#paint58_linear_48_81)"/>
    <path style="mix-blend-mode:multiply" opacity="0.2" d="M25.5617 64.4629L26.5661 70.5844C26.6325 70.9884 26.398 71.3238 26.0214 71.3321L20.1669 71.4624C19.7804 71.471 19.4001 71.1442 19.3372 70.734L18.3819 64.5186C18.3203 64.116 18.6044 63.7888 18.9878 63.7864L24.7728 63.7498C25.1463 63.7488 25.4967 64.0663 25.5617 64.4629Z" fill="url(#paint59_linear_48_81)"/>
    <path style="mix-blend-mode:multiply" opacity="0.2" d="M23.7124 45.3881L23.0972 41.6744C24.2545 43.092 25.318 44.5844 26.2808 46.142L24.4861 46.0863C24.1223 46.0753 23.7746 45.7622 23.7124 45.3881Z" fill="url(#paint60_linear_48_81)"/>
    <path style="mix-blend-mode:multiply" opacity="0.2" d="M25.071 53.5733L24.1064 47.7617C24.0438 47.3851 24.2935 47.089 24.6566 47.0994L26.8994 47.164C27.1516 47.5934 27.3994 48.031 27.6428 48.477C28.9076 50.8092 30.3502 52.5247 31.9282 53.7661C31.9447 54.1013 31.7219 54.3559 31.3925 54.3514L25.8561 54.2758C25.4891 54.272 25.1346 53.9565 25.071 53.5733Z" fill="url(#paint61_linear_48_81)"/>
    <path style="mix-blend-mode:multiply" opacity="0.2" d="M32.302 56.0735L33.3336 61.9425C33.4024 62.3294 33.1851 62.6456 32.8247 62.647L27.2457 62.6698C26.876 62.6715 26.5273 62.354 26.462 61.9608L25.4733 56.0055C25.4094 55.6199 25.6607 55.311 26.0273 55.3144L31.5493 55.3777C31.9083 55.3825 32.2353 55.6931 32.302 56.0735Z" fill="url(#paint62_linear_48_81)"/>
    <path style="mix-blend-mode:multiply" opacity="0.2" d="M33.7673 64.3983L34.8257 70.4123C34.8945 70.809 34.6779 71.1379 34.314 71.1466L28.6834 71.2727C28.3103 71.2813 27.9575 70.9617 27.8925 70.5581L26.8791 64.4536C26.8134 64.0579 27.0662 63.7363 27.4362 63.7339L33.009 63.6993C33.368 63.6959 33.6988 64.0089 33.7673 64.3983Z" fill="url(#paint63_linear_48_81)"/>
    <path style="mix-blend-mode:multiply" opacity="0.2" d="M34.6407 55.4138C36.4213 56.2006 38.3587 56.554 40.2459 56.6446L41.2355 61.9216C41.3067 62.3017 41.1076 62.6127 40.7593 62.6147L35.4017 62.6375C35.0447 62.6375 34.7349 62.3266 34.6661 61.9417L33.6245 56.0879C33.5558 55.7079 33.7545 55.4042 34.1087 55.408L34.6407 55.4138Z" fill="url(#paint64_linear_48_81)"/>
    <path style="mix-blend-mode:multiply" opacity="0.2" d="M41.6888 64.3361L42.7971 70.2444C42.8704 70.6342 42.6702 70.9579 42.3188 70.9658L36.9141 71.0892C36.5541 71.0971 36.2408 70.7838 36.1703 70.3881L35.1043 64.39C35.0355 64.0016 35.2456 63.6844 35.6029 63.682L40.9674 63.6475C41.3133 63.6451 41.6173 63.9529 41.6888 64.3361Z" fill="url(#paint65_linear_48_81)"/>
    <path style="mix-blend-mode:multiply" opacity="0.2" d="M47.7805 56.1288C47.7922 56.1613 47.8428 56.1979 47.8493 56.2307L48.9772 61.9051C49.0519 62.2797 48.817 62.5837 48.4803 62.5851L43.2366 62.6051C42.8927 62.6051 42.523 62.2987 42.4512 61.9193L41.4577 56.6702C43.609 56.6681 45.6585 56.4204 47.7805 56.1288Z" fill="url(#paint66_linear_48_81)"/>
    <path style="mix-blend-mode:multiply" opacity="0.2" d="M49.4498 64.2792L50.6045 70.089C50.6808 70.4722 50.4446 70.7887 50.1052 70.7963L44.8171 70.9127C44.4691 70.9203 44.0967 70.6097 44.0231 70.2217L42.9072 64.3276C42.835 63.9458 43.0757 63.6365 43.4209 63.6331L48.6719 63.6013C49.0089 63.5985 49.3748 63.9026 49.4498 64.2792Z" fill="url(#paint67_linear_48_81)"/>
    <path style="mix-blend-mode:multiply" opacity="0.2" d="M55.1027 56.3018L56.2719 61.8833C56.3489 62.2513 56.1759 62.5519 55.8503 62.5532L50.8104 62.5736C50.4769 62.5736 50.1474 62.2734 50.0725 61.9002L48.9377 56.2403C48.9217 56.1478 48.9259 56.0529 48.9501 55.9622C49.8022 55.8402 50.6608 55.7203 51.5126 55.608L54.405 55.6426C54.7285 55.6447 55.0267 55.9401 55.1027 56.3018Z" fill="url(#paint68_linear_48_81)"/>
    <path style="mix-blend-mode:multiply" opacity="0.2" d="M56.7602 64.2176L57.9565 69.9301C58.0353 70.3067 57.8623 70.6194 57.5342 70.627L52.4538 70.7406C52.1175 70.7482 51.7843 70.4442 51.7076 70.062L50.5467 64.2671C50.4714 63.8918 50.6935 63.5864 51.0281 63.5843L56.0532 63.5515C56.3785 63.5498 56.6828 63.8473 56.7602 64.2176Z" fill="url(#paint69_linear_48_81)"/>
    <path style="mix-blend-mode:multiply" opacity="0.2" d="M62.3131 56.3754L63.5211 61.8691C63.6009 62.2312 63.3918 62.5256 63.0768 62.5256L58.2216 62.546C57.8987 62.546 57.5978 62.2512 57.5205 61.8839L56.3441 56.3159C56.2681 55.9552 56.4338 55.665 56.7543 55.6688L61.603 55.7244C61.9162 55.7282 62.2347 56.0195 62.3131 56.3754Z" fill="url(#paint70_linear_48_81)"/>
    <path style="mix-blend-mode:multiply" opacity="0.2" d="M64.0266 64.1634L65.2625 69.7826C65.344 70.153 65.1346 70.4587 64.8154 70.466L59.9262 70.578C59.6009 70.5852 59.2969 70.287 59.2175 69.9111L58.0139 64.2129C57.9359 63.8435 58.1016 63.5419 58.4249 63.5398L63.3106 63.509C63.6243 63.507 63.9465 63.8003 64.0266 64.1634Z" fill="url(#paint71_linear_48_81)"/>
    <path style="mix-blend-mode:multiply" opacity="0.2" d="M70.2332 60.9611L70.4375 61.8498C70.5193 62.206 70.3267 62.4959 70.0217 62.4969L65.3268 62.5173C65.0142 62.5173 64.725 62.2271 64.6449 61.866L63.4306 56.3871C63.4124 56.3049 63.3732 56.2244 63.3835 56.1522C65.4853 56.9009 67.519 58.1538 69.467 60.1602C69.7305 60.4318 69.8883 60.695 70.2332 60.9611Z" fill="url(#paint72_linear_48_81)"/>
    <path style="mix-blend-mode:multiply" opacity="0.2" d="M70.9574 64.1095L72.2297 69.6377C72.3136 70.0023 72.1207 70.3032 71.8133 70.3101L67.0836 70.4172C66.769 70.4241 66.4767 70.1311 66.3959 69.7608L65.1531 64.1568C65.0727 63.7937 65.226 63.4965 65.5386 63.4948L70.2614 63.4648C70.5668 63.4627 70.8749 63.7512 70.9574 64.1095Z" fill="url(#paint73_linear_48_81)"/>
  </g>
  <defs>
    <linearGradient id="paint0_linear_48_81" x1="51.7327" y1="87.5161" x2="56.3648" y2="6.5058" gradientUnits="userSpaceOnUse">
      <stop stop-color="#FFC444"/>
      <stop offset="1" stop-color="#F36F56"/>
    </linearGradient>
    <linearGradient id="paint1_linear_48_81" x1="51.2019" y1="83.1162" x2="56.2351" y2="8.2939" gradientUnits="userSpaceOnUse">
      <stop stop-color="#FFC444"/>
      <stop offset="1" stop-color="#F36F56"/>
    </linearGradient>
    <linearGradient id="paint2_linear_48_81" x1="68.6253" y1="-7.8833" x2="39.544" y2="63.1597" gradientUnits="userSpaceOnUse">
      <stop stop-color="#FCB148"/>
      <stop offset="0.05" stop-color="#FDBA46"/>
      <stop offset="0.14" stop-color="#FFC244"/>
      <stop offset="0.32" stop-color="#FFC444"/>
      <stop offset="0.48" stop-color="#FDB946"/>
      <stop offset="0.78" stop-color="#F99C4D"/>
      <stop offset="0.87" stop-color="#F8924F"/>
      <stop offset="1" stop-color="#F8924F"/>
    </linearGradient>
    <linearGradient id="paint3_linear_48_81" x1="35.2786" y1="28.4975" x2="64.9888" y2="28.4975" gradientUnits="userSpaceOnUse">
      <stop stop-color="#FCB148"/>
      <stop offset="0.05" stop-color="#FDBA46"/>
      <stop offset="0.14" stop-color="#FFC244"/>
      <stop offset="0.32" stop-color="#FFC444"/>
      <stop offset="0.48" stop-color="#FDB946"/>
      <stop offset="0.78" stop-color="#F99C4D"/>
      <stop offset="0.87" stop-color="#F8924F"/>
      <stop offset="1" stop-color="#F8924F"/>
    </linearGradient>
    <linearGradient id="paint4_linear_48_81" x1="35.8656" y1="87.8973" x2="35.187" y2="85.3894" gradientUnits="userSpaceOnUse">
      <stop stop-color="#EBEFF2"/>
      <stop offset="0.47" stop-color="#D2D9E1"/>
      <stop offset="0.99" stop-color="#B7C0CE"/>
    </linearGradient>
    <linearGradient id="paint5_linear_48_81" x1="41.5877" y1="60.0874" x2="35.337" y2="96.3335" gradientUnits="userSpaceOnUse">
      <stop stop-color="#EBEFF2"/>
      <stop offset="0.47" stop-color="#D2D9E1"/>
      <stop offset="0.99" stop-color="#B7C0CE"/>
    </linearGradient>
    <linearGradient id="paint6_linear_48_81" x1="41.0203" y1="82.5096" x2="39.8718" y2="89.1704" gradientUnits="userSpaceOnUse">
      <stop stop-color="#EBEFF2"/>
      <stop offset="0.47" stop-color="#D2D9E1"/>
      <stop offset="0.99" stop-color="#B7C0CE"/>
    </linearGradient>
    <linearGradient id="paint7_linear_48_81" x1="40.4759" y1="76.4741" x2="39.3859" y2="72.4442" gradientUnits="userSpaceOnUse">
      <stop stop-color="#EBEFF2"/>
      <stop offset="0.47" stop-color="#D2D9E1"/>
      <stop offset="0.99" stop-color="#B7C0CE"/>
    </linearGradient>
    <linearGradient id="paint8_linear_48_81" x1="60.9496" y1="31.0446" x2="5.9502" y2="72.5869" gradientUnits="userSpaceOnUse">
      <stop stop-color="#EBEFF2"/>
      <stop offset="0.47" stop-color="#D2D9E1"/>
      <stop offset="0.99" stop-color="#B7C0CE"/>
    </linearGradient>
    <linearGradient id="paint9_linear_48_81" x1="2.55809" y1="51.0528" x2="74.2902" y2="51.0528" gradientUnits="userSpaceOnUse">
      <stop stop-color="#EBEFF2"/>
      <stop offset="0.47" stop-color="#D2D9E1"/>
      <stop offset="0.99" stop-color="#B7C0CE"/>
    </linearGradient>
    <linearGradient id="paint10_linear_48_81" x1="59.6897" y1="-4.83311" x2="1.282" y2="39.2836" gradientUnits="userSpaceOnUse">
      <stop stop-color="#AA80F9"/>
      <stop offset="1" stop-color="#6165D7"/>
    </linearGradient>
    <linearGradient id="paint11_linear_48_81" x1="65.6683" y1="-0.351372" x2="5.87866" y2="44.8093" gradientUnits="userSpaceOnUse">
      <stop stop-color="#AA80F9"/>
      <stop offset="1" stop-color="#6165D7"/>
    </linearGradient>
    <linearGradient id="paint12_linear_48_81" x1="71.8927" y1="4.16899" x2="10.6703" y2="50.4121" gradientUnits="userSpaceOnUse">
      <stop stop-color="#AA80F9"/>
      <stop offset="1" stop-color="#6165D7"/>
    </linearGradient>
    <linearGradient id="paint13_linear_48_81" x1="78.3769" y1="8.726" x2="15.6672" y2="56.0922" gradientUnits="userSpaceOnUse">
      <stop stop-color="#AA80F9"/>
      <stop offset="1" stop-color="#6165D7"/>
    </linearGradient>
    <linearGradient id="paint14_linear_48_81" x1="85.1344" y1="13.3183" x2="20.8812" y2="61.85" gradientUnits="userSpaceOnUse">
      <stop stop-color="#AA80F9"/>
      <stop offset="1" stop-color="#6165D7"/>
    </linearGradient>
    <linearGradient id="paint15_linear_48_81" x1="61.5847" y1="0.522071" x2="5.25749" y2="43.0675" gradientUnits="userSpaceOnUse">
      <stop stop-color="#AA80F9"/>
      <stop offset="1" stop-color="#6165D7"/>
    </linearGradient>
    <linearGradient id="paint16_linear_48_81" x1="67.3443" y1="5.09769" x2="9.7079" y2="48.6322" gradientUnits="userSpaceOnUse">
      <stop stop-color="#AA80F9"/>
      <stop offset="1" stop-color="#6165D7"/>
    </linearGradient>
    <linearGradient id="paint17_linear_48_81" x1="73.3357" y1="9.71729" x2="14.342" y2="54.2766" gradientUnits="userSpaceOnUse">
      <stop stop-color="#AA80F9"/>
      <stop offset="1" stop-color="#6165D7"/>
    </linearGradient>
    <linearGradient id="paint18_linear_48_81" x1="79.5701" y1="14.3796" x2="19.17" y2="60.0015" gradientUnits="userSpaceOnUse">
      <stop stop-color="#AA80F9"/>
      <stop offset="1" stop-color="#6165D7"/>
    </linearGradient>
    <linearGradient id="paint19_linear_48_81" x1="86.0614" y1="19.0832" x2="24.2014" y2="65.8078" gradientUnits="userSpaceOnUse">
      <stop stop-color="#AA80F9"/>
      <stop offset="1" stop-color="#6165D7"/>
    </linearGradient>
    <linearGradient id="paint20_linear_48_81" x1="63.5534" y1="5.61016" x2="9.33525" y2="46.5627" gradientUnits="userSpaceOnUse">
      <stop stop-color="#AA80F9"/>
      <stop offset="1" stop-color="#6165D7"/>
    </linearGradient>
    <linearGradient id="paint21_linear_48_81" x1="69.1118" y1="10.2694" x2="13.6401" y2="52.1688" gradientUnits="userSpaceOnUse">
      <stop stop-color="#AA80F9"/>
      <stop offset="1" stop-color="#6165D7"/>
    </linearGradient>
    <linearGradient id="paint22_linear_48_81" x1="74.8752" y1="14.9888" x2="18.1256" y2="57.8533" gradientUnits="userSpaceOnUse">
      <stop stop-color="#AA80F9"/>
      <stop offset="1" stop-color="#6165D7"/>
    </linearGradient>
    <linearGradient id="paint23_linear_48_81" x1="80.8745" y1="19.7414" x2="22.786" y2="63.617" gradientUnits="userSpaceOnUse">
      <stop stop-color="#AA80F9"/>
      <stop offset="1" stop-color="#6165D7"/>
    </linearGradient>
    <linearGradient id="paint24_linear_48_81" x1="87.1113" y1="24.5482" x2="27.6423" y2="69.4667" gradientUnits="userSpaceOnUse">
      <stop stop-color="#AA80F9"/>
      <stop offset="1" stop-color="#6165D7"/>
    </linearGradient>
    <linearGradient id="paint25_linear_48_81" x1="65.5927" y1="10.4387" x2="13.5115" y2="49.7769" gradientUnits="userSpaceOnUse">
      <stop stop-color="#AA80F9"/>
      <stop offset="1" stop-color="#6165D7"/>
    </linearGradient>
    <linearGradient id="paint26_linear_48_81" x1="70.9355" y1="15.1862" x2="17.679" y2="55.4121" gradientUnits="userSpaceOnUse">
      <stop stop-color="#AA80F9"/>
      <stop offset="1" stop-color="#6165D7"/>
    </linearGradient>
    <linearGradient id="paint27_linear_48_81" x1="76.4835" y1="19.9864" x2="22.0103" y2="61.1313" gradientUnits="userSpaceOnUse">
      <stop stop-color="#AA80F9"/>
      <stop offset="1" stop-color="#6165D7"/>
    </linearGradient>
    <linearGradient id="paint28_linear_48_81" x1="82.2827" y1="24.8118" x2="26.5055" y2="66.9417" gradientUnits="userSpaceOnUse">
      <stop stop-color="#AA80F9"/>
      <stop offset="1" stop-color="#6165D7"/>
    </linearGradient>
    <linearGradient id="paint29_linear_48_81" x1="88.2757" y1="29.7144" x2="31.1928" y2="72.8305" gradientUnits="userSpaceOnUse">
      <stop stop-color="#AA80F9"/>
      <stop offset="1" stop-color="#6165D7"/>
    </linearGradient>
    <linearGradient id="paint30_linear_48_81" x1="68.3684" y1="14.4871" x2="17.2186" y2="53.1219" gradientUnits="userSpaceOnUse">
      <stop stop-color="#AA80F9"/>
      <stop offset="1" stop-color="#6165D7"/>
    </linearGradient>
    <linearGradient id="paint31_linear_48_81" x1="73.5908" y1="19.2532" x2="21.3189" y2="58.7352" gradientUnits="userSpaceOnUse">
      <stop stop-color="#AA80F9"/>
      <stop offset="1" stop-color="#6165D7"/>
    </linearGradient>
    <linearGradient id="paint32_linear_48_81" x1="79.0083" y1="24.0746" x2="25.5756" y2="64.4337" gradientUnits="userSpaceOnUse">
      <stop stop-color="#AA80F9"/>
      <stop offset="1" stop-color="#6165D7"/>
    </linearGradient>
    <linearGradient id="paint33_linear_48_81" x1="84.5103" y1="29.0424" x2="30.0313" y2="70.1921" gradientUnits="userSpaceOnUse">
      <stop stop-color="#AA80F9"/>
      <stop offset="1" stop-color="#6165D7"/>
    </linearGradient>
    <linearGradient id="paint34_linear_48_81" x1="90.4459" y1="33.8993" x2="34.5932" y2="76.0862" gradientUnits="userSpaceOnUse">
      <stop stop-color="#AA80F9"/>
      <stop offset="1" stop-color="#6165D7"/>
    </linearGradient>
    <linearGradient id="paint35_linear_48_81" x1="70.4416" y1="18.8458" x2="21.4717" y2="55.8342" gradientUnits="userSpaceOnUse">
      <stop stop-color="#AA80F9"/>
      <stop offset="1" stop-color="#6165D7"/>
    </linearGradient>
    <linearGradient id="paint36_linear_48_81" x1="75.4694" y1="23.6865" x2="25.4362" y2="61.4778" gradientUnits="userSpaceOnUse">
      <stop stop-color="#AA80F9"/>
      <stop offset="1" stop-color="#6165D7"/>
    </linearGradient>
    <linearGradient id="paint37_linear_48_81" x1="80.6815" y1="28.5859" x2="29.5486" y2="67.2079" gradientUnits="userSpaceOnUse">
      <stop stop-color="#AA80F9"/>
      <stop offset="1" stop-color="#6165D7"/>
    </linearGradient>
    <linearGradient id="paint38_linear_48_81" x1="86.1003" y1="33.5416" x2="33.8114" y2="73.037" gradientUnits="userSpaceOnUse">
      <stop stop-color="#AA80F9"/>
      <stop offset="1" stop-color="#6165D7"/>
    </linearGradient>
    <linearGradient id="paint39_linear_48_81" x1="91.7034" y1="38.5603" x2="38.242" y2="78.941" gradientUnits="userSpaceOnUse">
      <stop stop-color="#AA80F9"/>
      <stop offset="1" stop-color="#6165D7"/>
    </linearGradient>
    <linearGradient id="paint40_linear_48_81" x1="72.985" y1="22.7415" x2="25.5816" y2="58.5461" gradientUnits="userSpaceOnUse">
      <stop stop-color="#AA80F9"/>
      <stop offset="1" stop-color="#6165D7"/>
    </linearGradient>
    <linearGradient id="paint41_linear_48_81" x1="77.8644" y1="27.623" x2="29.4496" y2="64.1919" gradientUnits="userSpaceOnUse">
      <stop stop-color="#AA80F9"/>
      <stop offset="1" stop-color="#6165D7"/>
    </linearGradient>
    <linearGradient id="paint42_linear_48_81" x1="82.9188" y1="32.5659" x2="33.4581" y2="69.9249" gradientUnits="userSpaceOnUse">
      <stop stop-color="#AA80F9"/>
      <stop offset="1" stop-color="#6165D7"/>
    </linearGradient>
    <linearGradient id="paint43_linear_48_81" x1="88.1602" y1="37.5593" x2="37.607" y2="75.7438" gradientUnits="userSpaceOnUse">
      <stop stop-color="#AA80F9"/>
      <stop offset="1" stop-color="#6165D7"/>
    </linearGradient>
    <linearGradient id="paint44_linear_48_81" x1="93.5885" y1="42.6261" x2="41.9171" y2="81.6547" gradientUnits="userSpaceOnUse">
      <stop stop-color="#AA80F9"/>
      <stop offset="1" stop-color="#6165D7"/>
    </linearGradient>
    <linearGradient id="paint45_linear_48_81" x1="75.4839" y1="26.4337" x2="29.6633" y2="61.0431" gradientUnits="userSpaceOnUse">
      <stop stop-color="#AA80F9"/>
      <stop offset="1" stop-color="#6165D7"/>
    </linearGradient>
    <linearGradient id="paint46_linear_48_81" x1="80.2191" y1="31.3531" x2="33.4358" y2="66.6899" gradientUnits="userSpaceOnUse">
      <stop stop-color="#AA80F9"/>
      <stop offset="1" stop-color="#6165D7"/>
    </linearGradient>
    <linearGradient id="paint47_linear_48_81" x1="85.1196" y1="36.3359" x2="37.3415" y2="72.4241" gradientUnits="userSpaceOnUse">
      <stop stop-color="#AA80F9"/>
      <stop offset="1" stop-color="#6165D7"/>
    </linearGradient>
    <linearGradient id="paint48_linear_48_81" x1="90.1897" y1="41.371" x2="41.3784" y2="78.2392" gradientUnits="userSpaceOnUse">
      <stop stop-color="#AA80F9"/>
      <stop offset="1" stop-color="#6165D7"/>
    </linearGradient>
    <linearGradient id="paint49_linear_48_81" x1="95.4558" y1="46.4809" x2="45.5683" y2="84.1623" gradientUnits="userSpaceOnUse">
      <stop stop-color="#AA80F9"/>
      <stop offset="1" stop-color="#6165D7"/>
    </linearGradient>
    <linearGradient id="paint50_linear_48_81" x1="11.8847" y1="31.6203" x2="5.47676" y2="36.4602" gradientUnits="userSpaceOnUse">
      <stop stop-color="#AA80F9"/>
      <stop offset="1" stop-color="#6165D7"/>
    </linearGradient>
    <linearGradient id="paint51_linear_48_81" x1="13.4834" y1="39.4421" x2="6.58511" y2="44.6526" gradientUnits="userSpaceOnUse">
      <stop stop-color="#AA80F9"/>
      <stop offset="1" stop-color="#6165D7"/>
    </linearGradient>
    <linearGradient id="paint52_linear_48_81" x1="14.7849" y1="47.7165" x2="7.721" y2="53.052" gradientUnits="userSpaceOnUse">
      <stop stop-color="#AA80F9"/>
      <stop offset="1" stop-color="#6165D7"/>
    </linearGradient>
    <linearGradient id="paint53_linear_48_81" x1="16.1202" y1="56.1999" x2="8.88481" y2="61.6646" gradientUnits="userSpaceOnUse">
      <stop stop-color="#AA80F9"/>
      <stop offset="1" stop-color="#6165D7"/>
    </linearGradient>
    <linearGradient id="paint54_linear_48_81" x1="17.4909" y1="64.8997" x2="10.0774" y2="70.499" gradientUnits="userSpaceOnUse">
      <stop stop-color="#AA80F9"/>
      <stop offset="1" stop-color="#6165D7"/>
    </linearGradient>
    <linearGradient id="paint55_linear_48_81" x1="17.343" y1="34.8446" x2="14.2053" y2="37.2146" gradientUnits="userSpaceOnUse">
      <stop stop-color="#AA80F9"/>
      <stop offset="1" stop-color="#6165D7"/>
    </linearGradient>
    <linearGradient id="paint56_linear_48_81" x1="21.6068" y1="39.9731" x2="15.107" y2="44.8824" gradientUnits="userSpaceOnUse">
      <stop stop-color="#AA80F9"/>
      <stop offset="1" stop-color="#6165D7"/>
    </linearGradient>
    <linearGradient id="paint57_linear_48_81" x1="23.1363" y1="47.9967" x2="16.3298" y2="53.1379" gradientUnits="userSpaceOnUse">
      <stop stop-color="#AA80F9"/>
      <stop offset="1" stop-color="#6165D7"/>
    </linearGradient>
    <linearGradient id="paint58_linear_48_81" x1="24.5507" y1="56.3346" x2="17.582" y2="61.5984" gradientUnits="userSpaceOnUse">
      <stop stop-color="#AA80F9"/>
      <stop offset="1" stop-color="#6165D7"/>
    </linearGradient>
    <linearGradient id="paint59_linear_48_81" x1="26.0015" y1="64.882" x2="18.8644" y2="70.2729" gradientUnits="userSpaceOnUse">
      <stop stop-color="#AA80F9"/>
      <stop offset="1" stop-color="#6165D7"/>
    </linearGradient>
    <linearGradient id="paint60_linear_48_81" x1="24.7732" y1="43.8432" x2="23.2825" y2="44.969" gradientUnits="userSpaceOnUse">
      <stop stop-color="#AA80F9"/>
      <stop offset="1" stop-color="#6165D7"/>
    </linearGradient>
    <linearGradient id="paint61_linear_48_81" x1="29.041" y1="49.9444" x2="24.6945" y2="53.2276" gradientUnits="userSpaceOnUse">
      <stop stop-color="#AA80F9"/>
      <stop offset="1" stop-color="#6165D7"/>
    </linearGradient>
    <linearGradient id="paint62_linear_48_81" x1="32.716" y1="56.4643" x2="26.0141" y2="61.5268" gradientUnits="userSpaceOnUse">
      <stop stop-color="#AA80F9"/>
      <stop offset="1" stop-color="#6165D7"/>
    </linearGradient>
    <linearGradient id="paint63_linear_48_81" x1="34.2411" y1="64.8644" x2="27.3798" y2="70.0468" gradientUnits="userSpaceOnUse">
      <stop stop-color="#AA80F9"/>
      <stop offset="1" stop-color="#6165D7"/>
    </linearGradient>
    <linearGradient id="paint64_linear_48_81" x1="40.3511" y1="56.7831" x2="34.1705" y2="61.4514" gradientUnits="userSpaceOnUse">
      <stop stop-color="#AA80F9"/>
      <stop offset="1" stop-color="#6165D7"/>
    </linearGradient>
    <linearGradient id="paint65_linear_48_81" x1="42.2002" y1="64.8495" x2="35.6138" y2="69.8241" gradientUnits="userSpaceOnUse">
      <stop stop-color="#AA80F9"/>
      <stop offset="1" stop-color="#6165D7"/>
    </linearGradient>
    <linearGradient id="paint66_linear_48_81" x1="48.4618" y1="57.0302" x2="42.2177" y2="61.7462" gradientUnits="userSpaceOnUse">
      <stop stop-color="#AA80F9"/>
      <stop offset="1" stop-color="#6165D7"/>
    </linearGradient>
    <linearGradient id="paint67_linear_48_81" x1="49.9357" y1="64.7902" x2="43.4915" y2="69.6577" gradientUnits="userSpaceOnUse">
      <stop stop-color="#AA80F9"/>
      <stop offset="1" stop-color="#6165D7"/>
    </linearGradient>
    <linearGradient id="paint68_linear_48_81" x1="55.6281" y1="56.8536" x2="49.5953" y2="61.4106" gradientUnits="userSpaceOnUse">
      <stop stop-color="#AA80F9"/>
      <stop offset="1" stop-color="#6165D7"/>
    </linearGradient>
    <linearGradient id="paint69_linear_48_81" x1="57.3042" y1="64.7915" x2="51.136" y2="69.4505" gradientUnits="userSpaceOnUse">
      <stop stop-color="#AA80F9"/>
      <stop offset="1" stop-color="#6165D7"/>
    </linearGradient>
    <linearGradient id="paint70_linear_48_81" x1="62.8031" y1="56.8954" x2="56.9704" y2="61.3009" gradientUnits="userSpaceOnUse">
      <stop stop-color="#AA80F9"/>
      <stop offset="1" stop-color="#6165D7"/>
    </linearGradient>
    <linearGradient id="paint71_linear_48_81" x1="64.5709" y1="64.7532" x2="58.6092" y2="69.2563" gradientUnits="userSpaceOnUse">
      <stop stop-color="#AA80F9"/>
      <stop offset="1" stop-color="#6165D7"/>
    </linearGradient>
    <linearGradient id="paint72_linear_48_81" x1="68.1851" y1="58.2495" x2="64.1233" y2="61.3174" gradientUnits="userSpaceOnUse">
      <stop stop-color="#AA80F9"/>
      <stop offset="1" stop-color="#6165D7"/>
    </linearGradient>
    <linearGradient id="paint73_linear_48_81" x1="71.5241" y1="64.73" x2="65.768" y2="69.0776" gradientUnits="userSpaceOnUse">
      <stop stop-color="#AA80F9"/>
      <stop offset="1" stop-color="#6165D7"/>
    </linearGradient>
    <clipPath id="clip0_48_81">
      <rect width="80.3421" height="86" fill="white"/>
    </clipPath>
  </defs>
</svg>