<svg width="60" height="87" viewBox="0 0 60 87" fill="none" xmlns="http://www.w3.org/2000/svg">
<g id="Objects" clip-path="url(#clip0_123_1126)">
<path id="Vector" d="M30 0.5C13.4329 0.5 0 13.8946 0 30.4161C0.0196626 37.6764 2.58037 44.7106 7.25501 50.3455C9.37735 52.9244 10.5251 56.1421 10.5043 59.4543C10.5043 61.9488 12.2949 63.9678 14.5032 63.9678H45.4968C47.7051 63.9678 49.4957 61.9488 49.4957 59.4543C49.4743 56.1413 50.6222 52.9228 52.745 50.3432C57.4196 44.7084 59.9803 37.6742 60 30.4139C60 13.899 46.5671 0.5 30 0.5ZM51.8102 49.5759C49.5126 52.3747 48.2694 55.8632 48.2899 59.4543C48.2899 61.2721 47.039 62.756 45.5035 62.756H14.5032C12.9678 62.756 11.7168 61.2721 11.7168 59.4388C11.7367 55.8453 10.491 52.355 8.18982 49.556C3.69647 44.1381 1.234 37.3761 1.21256 30.3962C1.21256 14.5868 14.1261 1.70965 30 1.70965C45.8739 1.70965 58.7874 14.5868 58.7874 30.4161C58.766 37.396 56.3035 44.158 51.8102 49.5759Z" fill="#70CAFE"/>
<path id="Vector_2" opacity="0.6" d="M14.5032 62.7715C12.9678 62.7715 11.7168 61.2876 11.7168 59.4544C11.7374 55.8608 10.4917 52.3702 8.18983 49.5715C3.69518 44.1544 1.23254 37.3919 1.21255 30.4118C1.21255 14.5868 14.1261 1.70972 30 1.70972C45.8739 1.70972 58.7874 14.5868 58.7874 30.4162C58.7675 37.3963 56.3048 44.1588 51.8102 49.576C49.5119 52.3744 48.2687 55.8631 48.2899 59.4544C48.2899 61.2744 47.039 62.7582 45.5035 62.7582L14.5032 62.7715Z" fill="#70CAFE"/>
<path id="Vector_3" opacity="0.6" d="M30 57.7626C45.1506 57.7626 57.4326 45.5152 57.4326 30.4073C57.4326 15.2994 45.1506 3.052 30 3.052C14.8494 3.052 2.56737 15.2994 2.56737 30.4073C2.56737 45.5152 14.8494 57.7626 30 57.7626Z" fill="url(#paint0_radial_123_1126)"/>
<path id="Vector_4" d="M36.8418 27.3178C35.6864 29.6164 34.0797 31.6694 32.1135 33.3594C31.6029 33.8083 31.0685 34.2306 30.5126 34.6244L28.7807 33.4766C27.0781 32.0503 25.4636 30.4802 24.2895 28.6248C23.9252 28.0491 23.6167 27.4412 23.3682 26.8092C23.0468 25.989 22.8284 25.1335 22.7179 24.2616C22.6674 23.8721 22.6395 23.48 22.6343 23.0874C22.6118 21.2364 23.2124 19.6353 23.874 17.9635C23.9711 17.718 24.0682 17.4704 24.1675 17.2227C24.2804 16.9264 24.3933 16.6278 24.5085 16.3381C24.5085 16.3226 24.522 16.2983 24.5288 16.2784C25.1453 14.6176 25.8136 12.9148 26.2088 11.17C26.3854 10.4231 26.4942 9.66237 26.5339 8.89668C26.5339 8.74188 26.5475 8.58708 26.5497 8.43449C26.5339 7.76247 26.4026 7.09787 26.1614 6.46854C26.1117 6.31374 26.0575 6.16115 26.001 6.00635C25.9694 5.92011 25.9356 5.82944 25.904 5.73877C26.6423 6.18105 27.6517 6.7892 28.0852 7.06562C29.3862 7.92539 30.6093 8.89314 31.7409 9.95816C32.5182 10.6736 33.254 11.4311 33.9447 12.2271C36.0176 14.6176 37.6705 17.393 38.0882 20.489C38.4134 22.8375 37.8872 25.1772 36.8418 27.3178Z" fill="#88BD27"/>
<path id="Vector_5" d="M36.8418 27.3178C35.6864 29.6164 34.0797 31.6694 32.1135 33.3594C31.6029 33.8083 31.0685 34.2306 30.5126 34.6244L28.7807 33.4766C27.0781 32.0503 25.4636 30.4802 24.2895 28.6248C23.9252 28.0491 23.6168 27.4412 23.3682 26.8092C23.5158 27.0946 23.6953 27.3631 23.9034 27.6097C24.6079 28.4257 25.7685 29.213 26.8388 29.4231C27.6833 29.589 28.2523 29.0825 28.3968 28.3174C28.5999 27.2325 28.7267 26.1353 28.7762 25.0334C28.9071 22.3687 28.4239 19.7857 28.1665 17.1541C28.0762 16.2054 27.9542 15.2589 27.7826 14.3213C27.6968 13.8591 27.5997 13.3969 27.5004 12.9325C27.2136 11.5813 26.9246 10.2169 26.5339 8.89225C26.5339 8.73745 26.5475 8.58265 26.5498 8.43007C26.5334 7.75953 26.4021 7.09646 26.1614 6.46853C26.1117 6.31374 26.0575 6.16115 26.0011 6.00635C26.5453 6.90953 27.0048 7.85916 27.3739 8.8436C29.9974 15.439 31.2925 22.4695 31.1877 29.5469C31.1877 29.8145 31.1877 30.1131 31.3819 30.2988C31.6077 30.52 32.0006 30.4691 32.3145 30.374C34.1103 29.839 35.6922 28.7711 36.8418 27.3178Z" fill="#70A02A"/>
<path id="Vector_6" d="M26.2901 43.4944C26.2101 44.0794 26.0978 44.6596 25.9536 45.2326C25.8289 45.7322 25.6781 46.2253 25.502 46.7098L23.9214 46.6634C22.2257 46.4246 20.5344 46.0575 18.9741 45.3211C17.9961 44.8561 17.1142 44.218 16.3729 43.4392C16.269 43.3308 16.1697 43.218 16.0726 43.1074C15.8697 42.8733 15.6805 42.6282 15.5058 42.3732C14.6816 41.1747 14.3587 39.8854 14.0404 38.5232C13.9929 38.3219 13.9478 38.1229 13.9026 37.9194C13.8439 37.6806 13.7874 37.4374 13.7265 37.2007C13.7265 37.1875 13.7265 37.1698 13.7152 37.1543C13.372 35.8164 13.0491 34.4342 12.532 33.1317C12.2737 32.4595 11.9445 31.8154 11.5498 31.21C11.3418 30.8998 11.0919 30.6186 10.8069 30.3741C10.6917 30.2723 10.5811 30.1728 10.4524 30.08C10.3237 29.9871 10.2108 29.8898 10.0888 29.7969L9.97141 29.7084C10.6307 29.6974 11.5294 29.6819 11.9246 29.6863C13.122 29.7205 14.3141 29.8559 15.4877 30.091C16.2908 30.242 17.0846 30.4369 17.8654 30.6748C20.216 31.3913 22.4695 32.5346 24.0863 34.3856C26.2178 36.8358 26.7259 40.3078 26.2901 43.4944Z" fill="#88BD27"/>
<path id="Vector_7" d="M26.2811 43.5077C26.224 44.091 26.1144 44.6682 25.9536 45.2326C25.8289 45.7322 25.6781 46.2253 25.502 46.7098L23.9214 46.6634C22.2257 46.4246 20.5344 46.0575 18.9741 45.3211C17.9961 44.856 17.1142 44.218 16.3729 43.4391C16.5535 43.5055 16.7319 43.5762 16.9058 43.636C17.6431 43.8977 18.4302 43.9974 19.2112 43.9279C19.6064 43.8925 20.0376 43.7885 20.2589 43.4613C20.4802 43.134 20.4238 42.747 20.3425 42.3843C19.8909 40.3498 18.4954 38.6625 17.1542 37.0592C16.3638 36.1171 15.5743 35.1758 14.7855 34.2352C13.8823 33.1538 12.9791 32.0702 11.8862 31.1635C11.5441 30.878 11.1836 30.6143 10.8069 30.3741C10.6917 30.2723 10.5811 30.1728 10.4524 30.0799C10.3237 29.9871 10.2108 29.8898 10.0888 29.7969C10.5324 30.0206 10.9615 30.271 11.3736 30.5465C11.676 30.7131 11.9944 30.8502 12.3243 30.9557C13.1868 31.3183 13.9703 31.9088 14.7539 32.4218C16.4722 33.5585 18.0325 34.9075 19.5883 36.2343C21.327 37.716 22.6027 39.8124 23.8785 41.6877C24.3459 42.3821 24.7614 43.3131 25.6217 43.5984C25.8904 43.6912 26.0169 43.5762 26.2811 43.5077Z" fill="#70A02A"/>
<path id="Vector_8" d="M53.4201 30.1684C53.226 30.2524 53.0318 30.3298 52.8444 30.416C52.3366 30.6221 51.8702 30.9149 51.467 31.2807L51.4195 31.3294C50.8965 31.8448 50.4309 32.4134 50.0309 33.0255C49.2112 34.2506 48.5722 35.6217 47.9241 36.9397C47.9157 36.954 47.9082 36.9688 47.9016 36.984C47.7864 37.2162 47.6758 37.4594 47.5628 37.6938C47.4499 37.9282 47.3777 38.0941 47.2851 38.2931C47.2174 38.4369 47.1519 38.5806 47.0819 38.7221C46.8032 39.332 46.4834 39.923 46.1245 40.4913C45.7884 41.0187 45.3855 41.5024 44.9255 41.9309C44.8833 41.9707 44.8404 42.0083 44.7968 42.0437C44.6017 42.2202 44.3959 42.3849 44.1803 42.5368C43.1518 43.2819 41.962 43.7851 40.703 44.0074C38.9463 44.3192 37.115 44.1932 35.3176 43.9345L33.6738 43.4922C33.5993 42.9283 33.5519 42.3533 33.5338 41.785C33.4934 40.6376 33.5644 39.4892 33.7461 38.355C33.8308 37.8144 33.9446 37.2785 34.087 36.7495C34.726 34.3678 35.9363 32.2117 37.8669 30.8406C39.9398 29.3634 42.5117 28.8349 45.0926 28.7862C45.9519 28.7683 46.8115 28.8015 47.6667 28.8857C48.9356 28.9944 50.1922 29.2127 51.4218 29.5381C51.8237 29.6686 52.745 29.9583 53.4201 30.1684Z" fill="#7CB834"/>
<path id="Vector_9" d="M51.5392 30.5244C51.2118 30.5709 50.636 31.1149 50.3425 31.305C49.9044 31.5822 49.4649 31.855 49.0238 32.1233C48.1409 32.6629 47.2535 33.1936 46.3751 33.7398C44.0525 35.1837 41.8977 36.8714 39.9488 38.773C39.3346 39.3723 38.6188 40.0269 38.4901 40.9181C38.4399 41.2216 38.4692 41.5327 38.5755 41.8221C38.6818 42.1114 38.8614 42.3696 39.0975 42.5722C39.327 42.7416 39.5889 42.8642 39.8675 42.9327C40.7468 43.1495 41.6689 43.1358 42.541 42.8929C43.3183 42.68 44.0741 42.398 44.799 42.0503C44.604 42.2269 44.3981 42.3916 44.1826 42.5435C43.1541 43.2886 41.9643 43.7918 40.7053 44.0141C38.9485 44.3259 37.1173 44.1999 35.3199 43.9411L33.6761 43.4988C33.6015 42.9349 33.5541 42.3599 33.5361 41.7916C33.4956 40.6443 33.5667 39.4958 33.7483 38.3617C33.833 37.821 33.9468 37.2851 34.0893 36.7562C34.1367 36.9636 34.2127 37.1637 34.3151 37.3511C34.3761 37.4672 34.4626 37.5687 34.5684 37.6483C34.6742 37.7278 34.7966 37.7834 34.927 37.8111C35.4215 37.8885 35.7241 37.4727 36.0357 37.1764C36.4533 36.8149 36.8937 36.4796 37.3544 36.1724C38.1023 35.6511 38.8896 35.1861 39.7095 34.7814C41.0191 34.0981 42.3762 33.512 43.7423 32.9592C46.2713 31.9353 48.8341 30.9026 51.5392 30.5244Z" fill="#70A02A"/>
<path id="Vector_10" d="M51.3631 30.5775L51.3179 30.5952L51.257 30.6173C51.2291 30.6257 51.202 30.636 51.1757 30.6483C51.1441 30.6483 51.1079 30.6726 51.0695 30.6903C50.9905 30.7168 50.9137 30.7456 50.8437 30.7787C50.7942 30.7954 50.746 30.8154 50.6992 30.8384C50.6134 30.8716 50.5186 30.9092 50.417 30.9534C48.159 31.922 46.0206 33.3683 43.9974 34.7129C40.1024 37.2892 35.846 40.1441 33.7573 44.4763C32.9855 46.1333 32.4886 47.9003 32.2851 49.7107C32.179 50.5577 32.1203 51.4224 32.1 52.2937C32.0074 56.23 32.7051 60.33 33.3938 63.8439C33.1003 63.8992 32.8045 63.9479 32.5087 63.9899H32.4816C31.9532 64.0724 31.4226 64.1351 30.8897 64.1778C30.3884 64.2199 29.8871 64.2508 29.3836 64.2641C29.0155 64.2774 28.6475 64.2818 28.2794 64.2751C27.751 64.2751 27.2204 64.2508 26.6988 64.211L26.3601 64.1867C26.5294 62.9129 26.8275 61.6192 26.8117 60.3322C26.7959 59.5117 26.7891 58.6957 26.7665 57.8797C26.7417 57.0239 26.6988 56.1681 26.6107 55.31C26.2982 52.0686 25.4645 48.8958 24.1405 45.9093C21.5302 40.1198 17.0209 35.0733 12.2317 30.9733L12.2972 31.0176C18.9186 35.3962 24.2257 41.4275 27.6697 48.4878L27.7126 48.5741C27.5907 48.3219 28.1642 47.0968 28.2365 46.8049C30.5419 38.5121 30.3635 29.5978 29.7855 21.0839C29.4671 16.4001 28.5955 11.6853 26.6875 7.37305C26.8072 7.63842 26.9381 7.89937 27.0781 8.1581C27.5523 9.02719 28.11 9.84984 28.5639 10.7234C28.7062 11.002 28.8394 11.2828 28.9545 11.5703C29.6238 13.2486 30.1894 14.9648 30.6481 16.7097C31.7658 20.9534 32.0864 25.2834 32.24 29.6487C32.3137 31.7215 32.3137 33.7936 32.24 35.865C32.1948 37.2317 32.0932 38.5674 32.0525 39.9185C32.0322 40.5178 32.0232 41.1193 32.0367 41.7275C32.0367 41.2719 34.7464 39.5161 35.1731 39.1821C39.9827 35.2856 45.5148 32.5744 51.3563 30.593L51.3631 30.5775Z" fill="#8C6239"/>
<path id="Vector_11" d="M28.0965 50.8872C28.0965 50.8872 27.8052 49.4255 27.6449 48.4834L27.6878 48.5697C27.5659 48.3176 28.1394 47.0924 28.2117 46.8005C30.5171 38.5077 30.3387 29.5934 29.7607 21.0795C29.4423 16.3957 28.5707 11.6809 26.6627 7.36865C26.7033 7.44384 26.8456 7.71142 27.0533 8.15371C28.0829 10.343 30.7452 16.7959 30.8355 25.2038C30.9484 35.6306 31.0319 41.6612 28.0965 50.8872Z" fill="#7A5130"/>
<path id="Vector_12" d="M50.4057 30.9536C48.1477 31.9222 46.0093 33.3685 43.9861 34.713C40.0911 37.2893 35.8347 40.1443 33.746 44.4765C32.9742 46.1335 32.4773 47.9005 32.2738 49.7109C32.1677 50.5579 32.109 51.4225 32.0887 52.2938C31.908 48.3575 31.8516 46.4159 33.0957 44.2045C37.4943 36.365 47.2761 32.2407 50.4057 30.9536Z" fill="#7A5130"/>
<path id="Vector_13" d="M51.3638 30.5776L51.3179 30.5959L51.3409 30.5845L51.3638 30.5776Z" fill="#7A5130"/>
<path id="Vector_14" d="M26.7417 57.8798C26.7168 57.0239 26.6739 56.1681 26.5859 55.3101C26.2733 52.0686 25.4396 48.8959 24.1156 45.9093C21.5053 40.1198 16.9961 35.0734 12.2068 30.9734L12.2723 31.0176C13.2704 31.712 23.9801 39.3923 26.9494 51.7298C27.455 53.7599 27.3831 55.8868 26.7417 57.8798Z" fill="#7A5130"/>
<path id="Vector_15" opacity="0.1" d="M29.3836 64.2553C29.7155 64.273 30.4358 64.3504 30.7384 64.189C31.041 64.0276 30.9845 63.687 31.0297 63.3531C31.1821 62.0085 31.085 60.6479 30.7429 59.3371C30.4448 58.1275 29.8397 57.0395 29.4355 55.8674C29.1321 54.9137 29.0908 53.8984 29.3158 52.924C29.5936 51.5972 30.219 50.3742 30.8422 49.1646C30.2869 50.255 29.973 51.4479 29.921 52.6653C29.8736 54.5538 30.7429 56.4247 31.3029 58.1938C31.8922 60.0713 32.459 61.9931 32.459 63.9745C32.459 62.8113 32.6012 61.6923 32.4748 60.5225C32.3664 59.5185 32.1067 58.5499 31.9216 57.5569C31.5558 55.6927 31.3458 53.8023 31.2938 51.9045C31.2555 49.9541 31.4068 45.5998 33.0619 43.3861C34.6922 41.2079 37.2369 37.6055 42.9971 34.3392C41.7372 35.0336 36.205 38.2048 31.6348 42.5989L32.0322 39.9098C32.0729 38.5586 32.1745 37.2229 32.2196 35.8563C32.2874 33.7923 32.2874 31.7202 32.2196 29.6399C32.0661 25.2746 31.7455 20.9446 30.6277 16.7009C30.1691 14.9561 29.6035 13.2399 28.9342 11.5616C28.8191 11.2741 28.6858 10.9932 28.5413 10.7146C28.5413 10.7146 33.3622 23.5851 30.2032 44.6732C30.2032 44.6732 29.1871 48.9368 28.1168 51.7962C25.8249 41.6126 17.0074 35.0026 17.0074 35.0026C26.5475 44.1668 27.5659 53.1186 27.5659 53.1208C27.742 54.6688 27.5501 56.104 27.3401 57.6277C27.0736 59.5362 28.6316 61.2589 28.4442 63.1961C29.0516 61.7365 29.6636 60.2527 29.8419 58.6826C29.9684 59.8767 30.0903 61.1151 29.6997 62.254C29.5732 62.6189 29.3271 63.0169 29.3136 63.4106C29.2955 63.6914 29.3926 63.9701 29.3836 64.2553Z" fill="#3A6351"/>
<path id="Vector_16" d="M50.0489 32.0681C48.457 33.5829 47.5945 35.6904 46.8267 37.747C46.5924 38.4663 46.275 39.1571 45.8806 39.8059C45.6745 40.1247 45.4211 40.4116 45.1287 40.6573C44.8376 40.8587 44.5361 41.0454 44.2255 41.2168C43.6 41.6281 42.7104 41.7254 41.9788 41.8227C41.3578 41.9067 40.6398 41.9067 40.2107 41.449C39.8314 41.0465 39.8224 40.4008 40.0459 39.901C40.2993 39.4092 40.6528 38.9735 41.0846 38.6206C42.9294 36.9156 45.0565 35.6285 47.0142 34.0894C47.5245 33.6891 48.0483 33.3065 48.5948 32.9483C48.857 32.7582 49.1307 32.584 49.4144 32.4264C49.6436 32.3399 49.8576 32.219 50.0489 32.0681Z" fill="#97D340"/>
<path id="Vector_17" d="M36.8666 35.7037C37.0066 35.5799 37.1489 35.4582 37.2934 35.341C37.9204 34.8437 38.5897 34.3998 39.294 34.0142C41.4391 32.7979 43.7626 31.9354 46.1019 31.1747C48.037 30.5445 50.0534 29.9739 52.0766 30.184C49.9744 29.5095 47.7864 29.0341 45.5826 29.0097C43.3787 28.9854 41.132 29.4277 39.2014 30.4958C38.5972 30.8393 38.0171 31.222 37.465 31.6413C37.0748 31.9204 36.71 32.2319 36.3744 32.5723C35.4012 33.5861 34.7814 34.876 34.6041 36.2566C34.5702 36.533 34.5928 36.878 34.8435 37.004C35.0941 37.1301 35.3583 36.962 35.5683 36.8006C36.0108 36.4667 36.4353 36.0774 36.8666 35.7037Z" fill="#97D340"/>
<path id="Vector_18" d="M32.0887 20.6394C32.391 21.9845 32.5985 23.3485 32.7096 24.7216C32.7796 25.9468 32.7096 27.1763 32.8158 28.397C33.807 28.8083 34.9338 28.1449 35.6202 27.3223C36.826 25.8782 37.2821 23.9189 37.176 22.0436C36.8982 16.9949 33.6128 12.6694 30 9.3611C29.4807 8.88564 28.95 8.41903 28.4081 7.97011C27.9136 7.55879 27.3559 6.99267 26.7733 6.72729C27.1752 7.57427 27.9204 8.22222 28.4126 9.01833C30.0587 11.672 30.8806 14.6774 31.4903 17.707C31.701 18.6845 31.9005 19.6619 32.0887 20.6394Z" fill="#97D340"/>
<path id="Vector_19" d="M25.6556 27.5346C23.1085 26.4576 22.8647 23.6823 23.3705 21.2829C23.5164 20.667 23.708 20.0624 23.944 19.4739C24.6139 17.6724 25.2853 15.8708 25.9581 14.0692C26.2394 13.4015 26.4365 12.7027 26.5452 11.9883C26.5091 12.3266 26.7575 12.8728 26.8252 13.2112C26.911 13.6535 26.981 14.0958 27.051 14.5381C27.1504 15.2855 27.3446 16.0153 27.3581 16.765C27.3897 18.439 27.4101 20.1108 27.4326 21.7827C27.453 23.3594 27.6291 25.0246 27.331 26.5837C27.2655 26.9331 27.2271 27.424 26.9043 27.6297C26.5814 27.8353 26.1275 27.7181 25.8136 27.5987L25.6556 27.5346Z" fill="#97D340"/>
<path id="Vector_20" d="M25.9965 41.8072C25.9965 41.9443 25.9965 42.0815 25.9965 42.2208C25.9965 42.5525 25.8498 42.9174 25.4659 42.9483C25.3484 42.9511 25.2319 42.9269 25.1257 42.8778C25.0195 42.8286 24.9264 42.7559 24.854 42.6653C24.4521 42.2097 24.215 41.5861 23.8988 41.0708C23.524 40.4605 23.1108 39.8767 22.6953 39.3017C21.9479 38.196 21.1689 37.0107 20.1889 36.0907C18.4435 34.452 16.4451 33.0854 14.4965 31.7032C14.0661 31.3967 13.6191 31.1132 13.1575 30.8541C12.7059 30.5953 12.1955 30.4671 11.7349 30.2349C12.2249 30.3742 12.7623 30.4162 13.2658 30.5069C13.7694 30.5975 14.3339 30.7037 14.8645 30.8165C15.9444 31.0366 17.011 31.3149 18.0596 31.6502C20.5434 32.4618 23.253 33.6847 24.6756 35.9824L24.7637 36.1261C25.2511 36.9481 25.5917 37.8455 25.7707 38.7798C25.9488 39.7791 26.0244 40.7932 25.9965 41.8072Z" fill="#97D340"/>
<path id="Vector_21" d="M18.6354 43.2025C17.6444 43.1568 16.7058 42.7534 16.0003 42.0703C15.1942 41.2388 14.9119 40.038 14.6455 38.9522C14.3587 37.8022 13.9523 36.6987 13.6045 35.5709C13.4578 35.0932 13.3155 34.6134 13.1846 34.1291C13.0649 33.6868 13.0333 33.0057 12.8075 32.6165C14.4581 35.4603 17.0232 37.6076 18.8025 40.3564C19.1909 40.9557 19.5476 41.6147 19.5612 42.329C19.5756 42.4651 19.558 42.6025 19.5099 42.7309C19.4618 42.8593 19.3843 42.9752 19.2835 43.0698C19.0904 43.1881 18.8607 43.2352 18.6354 43.2025Z" fill="#97D340"/>
<path id="Vector_22" opacity="0.6" d="M52.5642 23.6233C55.1689 16.8619 49.2319 8.40686 39.3037 4.73852C29.3754 1.07018 19.2155 3.57765 16.6109 10.3391C14.0062 17.1006 19.9432 25.5556 29.8714 29.2239C39.7997 32.8922 49.9596 30.3848 52.5642 23.6233Z" fill="url(#paint1_radial_123_1126)"/>
<path id="Vector_23" d="M49.367 65.182V65.8675C49.3712 66.5121 49.1645 67.1411 48.7773 67.6624C48.3901 68.1837 47.8426 68.5699 47.2151 68.7645C46.9286 68.8518 46.6301 68.8958 46.33 68.895H13.871C13.5716 68.8958 13.2739 68.8518 12.9881 68.7645C12.3603 68.57 11.8126 68.1839 11.425 67.6626C11.0374 67.1414 10.8303 66.5123 10.834 65.8675V65.182C10.8304 64.7879 10.9061 64.397 11.0568 64.0316C11.2075 63.6661 11.4302 63.3333 11.7122 63.0522C11.9942 62.7711 12.33 62.5471 12.7004 62.3931C13.0708 62.2391 13.4686 62.158 13.871 62.1545H46.33C46.7324 62.158 47.1301 62.2391 47.5005 62.3931C47.8709 62.5471 48.2067 62.7711 48.4887 63.0522C48.7707 63.3333 48.9935 63.6661 49.1442 64.0316C49.2948 64.397 49.3706 64.7879 49.367 65.182Z" fill="#CDCDCD"/>
<g id="Group" opacity="0.3">
<path id="Vector_24" d="M48.9154 67.4508C48.5307 68.0748 47.9258 68.539 47.2151 68.7555C46.9286 68.8429 46.6301 68.8869 46.33 68.886H13.871C13.5716 68.8868 13.2739 68.8428 12.9881 68.7555C12.3603 68.561 11.8126 68.1749 11.425 67.6537C11.0374 67.1324 10.8303 66.5034 10.834 65.8585V65.1818C10.8322 64.7312 10.9325 64.2858 11.1277 63.8778C11.323 63.4698 11.6082 63.1093 11.963 62.8223C11.6659 63.3031 11.5097 63.8547 11.5114 64.4167V65.0934C11.5073 65.7377 11.7141 66.3664 12.1013 66.8873C12.4885 67.4082 13.0359 67.794 13.6632 67.9881C13.9496 68.0764 14.2482 68.1212 14.5484 68.1208H47.0096C47.3091 68.121 47.6069 68.0762 47.8925 67.9881C48.2659 67.8758 48.6133 67.6932 48.9154 67.4508Z" fill="#231F20"/>
</g>
<path id="Vector_25" opacity="0.3" d="M46.9464 63.5675H30.8648C30.7796 63.5663 30.6983 63.5322 30.6386 63.4726C30.579 63.4129 30.5458 63.3326 30.5464 63.2491V63.1407C30.5458 63.0993 30.5536 63.0582 30.5693 63.0197C30.585 62.9812 30.6083 62.9462 30.6379 62.9166C30.6675 62.887 30.7028 62.8634 30.7418 62.8472C30.7807 62.831 30.8225 62.8226 30.8648 62.8223H46.9464C46.9888 62.8226 47.0307 62.831 47.0698 62.8472C47.1089 62.8633 47.1443 62.8869 47.1741 62.9164C47.2038 62.946 47.2274 62.981 47.2433 63.0195C47.2593 63.058 47.2673 63.0992 47.267 63.1407V63.2491C47.2671 63.3328 47.2334 63.4131 47.1734 63.4727C47.1134 63.5323 47.0319 63.5664 46.9464 63.5675Z" fill="#3A6351"/>
<path id="Vector_26" d="M48.1319 70.9228V71.5995C48.1367 72.292 47.8978 72.965 47.4552 73.5052C47.0127 74.0453 46.3936 74.4196 45.7022 74.565C45.5025 74.6059 45.2989 74.6266 45.0948 74.6269H15.0971C14.893 74.6266 14.6895 74.6059 14.4897 74.565C13.7987 74.4192 13.1802 74.0447 12.7381 73.5046C12.296 72.9645 12.0573 72.2917 12.0623 71.5995V70.9228C12.061 70.5201 12.1413 70.1212 12.2987 69.7491C12.4561 69.3771 12.6873 69.0394 12.9791 68.7556C13.2649 68.8429 13.5626 68.8869 13.862 68.8861H46.33C46.6301 68.887 46.9286 68.843 47.2151 68.7556C47.5068 69.0394 47.7381 69.3771 47.8955 69.7491C48.0528 70.1212 48.1332 70.5201 48.1319 70.9228Z" fill="#B4B4B4"/>
<g id="Group_2" opacity="0.3">
<path id="Vector_27" d="M47.6825 73.1873C47.4674 73.5384 47.1804 73.8421 46.8396 74.0792C46.4988 74.3163 46.1116 74.4817 45.7022 74.565C45.5025 74.6059 45.2989 74.6266 45.0948 74.6269H15.0971C14.893 74.6266 14.6895 74.6059 14.4897 74.565C13.7987 74.4192 13.1802 74.0447 12.7381 73.5046C12.296 72.9645 12.0573 72.2917 12.0623 71.5995V70.9228C12.061 70.5201 12.1413 70.1212 12.2987 69.7491C12.4561 69.3771 12.6873 69.0394 12.9791 68.7556L13.0694 68.7822C12.8522 69.2094 12.7393 69.6803 12.7397 70.1577V70.8321C12.7351 71.5245 12.9738 72.1974 13.4158 72.7378C13.8578 73.2782 14.4762 73.6532 15.1671 73.7999C15.3676 73.8407 15.5719 73.8615 15.7768 73.8618H45.7745C46.4697 73.8636 47.1441 73.6291 47.6825 73.1984V73.1873Z" fill="#231F20"/>
</g>
<path id="Vector_28" opacity="0.3" d="M46.4655 70.12H30.8648C30.7796 70.1188 30.6983 70.0847 30.6386 70.025C30.579 69.9654 30.5458 69.8851 30.5464 69.8016V69.6932C30.5458 69.6518 30.5536 69.6106 30.5693 69.5722C30.585 69.5337 30.6083 69.4987 30.6379 69.4691C30.6675 69.4395 30.7028 69.4159 30.7418 69.3997C30.7807 69.3835 30.8225 69.375 30.8648 69.3748H46.4655C46.5077 69.375 46.5496 69.3835 46.5885 69.3997C46.6274 69.4159 46.6627 69.4395 46.6923 69.4691C46.7219 69.4987 46.7452 69.5337 46.7609 69.5722C46.7766 69.6106 46.7844 69.6518 46.7838 69.6932V69.8016C46.7844 69.8851 46.7513 69.9654 46.6917 70.025C46.632 70.0847 46.5507 70.1188 46.4655 70.12Z" fill="#3A6351"/>
<path id="Vector_29" d="M46.0522 75.9736V76.6481C46.0571 77.3339 45.8231 78.0008 45.3888 78.5388C44.9544 79.0767 44.3458 79.4535 43.6633 79.607C43.4506 79.6543 43.2333 79.678 43.0152 79.6778H17.1858C17.0816 79.6775 16.9776 79.6716 16.8742 79.6601C16.1206 79.576 15.4255 79.2218 14.9227 78.6656C14.4199 78.1095 14.145 77.3909 14.151 76.6481V75.9736C14.1493 75.4835 14.2686 75.0002 14.4987 74.5649C14.6985 74.6058 14.902 74.6265 15.1061 74.6269H45.0948C45.2989 74.6265 45.5025 74.6058 45.7022 74.5649C45.9342 74.9996 46.0543 75.4832 46.0522 75.9736Z" fill="#CDCDCD"/>
<g id="Group_3" opacity="0.3">
<path id="Vector_30" d="M45.5984 78.2514C45.3865 78.5949 45.1058 78.8929 44.7733 79.1274C44.4407 79.3619 44.0631 79.528 43.6633 79.6158C43.4506 79.6631 43.2333 79.6869 43.0152 79.6866H17.1858C17.0816 79.6863 16.9776 79.6804 16.8742 79.6689C16.1206 79.5848 15.4255 79.2306 14.9227 78.6745C14.4199 78.1184 14.145 77.3997 14.151 76.657V75.9736C14.1493 75.4835 14.2686 75.0002 14.4987 74.5649C14.6267 74.5917 14.7565 74.6095 14.8871 74.618C14.8481 74.8118 14.8285 75.0088 14.8284 75.2063V75.883C14.8229 76.6256 15.098 77.344 15.6007 77.9C16.1034 78.456 16.7982 78.8104 17.5516 78.8949C17.6554 78.8949 17.757 78.9104 17.8654 78.9104H43.6926C43.9107 78.9107 44.128 78.8869 44.3407 78.8396C44.8012 78.7429 45.2321 78.5414 45.5984 78.2514Z" fill="#231F20"/>
</g>
<path id="Vector_31" opacity="0.3" d="M44.7765 75.8364L30.8648 75.8187C30.7796 75.8176 30.6983 75.7834 30.6386 75.7238C30.579 75.6641 30.5458 75.5838 30.5464 75.5003V75.3919C30.5458 75.3084 30.579 75.2281 30.6386 75.1684C30.6983 75.1088 30.7796 75.0747 30.8648 75.0735L44.7765 75.089C44.8623 75.0901 44.9442 75.1245 45.0043 75.1846C45.0643 75.2446 45.0977 75.3255 45.0971 75.4096V75.5158C45.0977 75.5575 45.0899 75.5989 45.074 75.6376C45.0582 75.6764 45.0347 75.7117 45.0049 75.7415C44.9751 75.7713 44.9396 75.795 44.9004 75.8113C44.8612 75.8276 44.8191 75.8361 44.7765 75.8364Z" fill="#3A6351"/>
<path id="Vector_32" d="M43.6632 79.6069C42.3988 83.5388 36.8892 86.4999 30.2597 86.4999C23.6301 86.4999 18.1702 83.5587 16.8741 79.66C16.9776 79.6715 17.0816 79.6774 17.1858 79.6777H43.0152C43.2332 79.678 43.4506 79.6542 43.6632 79.6069Z" fill="#B4B4B4"/>
<path id="Vector_33" opacity="0.3" d="M42.532 81.6902C40.3056 84.5408 35.645 86.5001 30.2597 86.5001C23.6708 86.5001 18.1702 83.5677 16.8741 79.6602C16.9776 79.6717 17.0816 79.6776 17.1858 79.6779H17.8744C19.6018 83.1852 24.7975 85.7349 30.9393 85.7349C35.8257 85.7349 40.1159 84.1184 42.532 81.6902Z" fill="#231F20"/>
<path id="Vector_34" opacity="0.3" d="M41.7936 81.1262L30.8648 81.1129C30.8225 81.1127 30.7807 81.1042 30.7418 81.088C30.7028 81.0718 30.6675 81.0482 30.6379 81.0186C30.6083 80.989 30.585 80.954 30.5693 80.9155C30.5536 80.877 30.5458 80.8359 30.5464 80.7945V80.6839C30.5458 80.6004 30.579 80.5201 30.6386 80.4604C30.6983 80.4008 30.7796 80.3666 30.8648 80.3655L41.7936 80.3787C41.8789 80.3799 41.9602 80.4141 42.0198 80.4737C42.0795 80.5334 42.1126 80.6137 42.112 80.6972V80.8055C42.1126 80.8471 42.1048 80.8883 42.0892 80.9269C42.0735 80.9655 42.0502 81.0007 42.0206 81.0305C41.9911 81.0602 41.9558 81.084 41.9168 81.1005C41.8779 81.1169 41.836 81.1256 41.7936 81.1262Z" fill="#3A6351"/>
</g>
<defs>
<radialGradient id="paint0_radial_123_1126" cx="0" cy="0" r="1" gradientUnits="userSpaceOnUse" gradientTransform="translate(30.6575 56.9055) rotate(-90) scale(47.3236 63.4801)">
<stop offset="0.37" stop-color="white" stop-opacity="0"/>
<stop offset="0.44" stop-color="white" stop-opacity="0.02"/>
<stop offset="0.51" stop-color="white" stop-opacity="0.07"/>
<stop offset="0.6" stop-color="white" stop-opacity="0.16"/>
<stop offset="0.68" stop-color="white" stop-opacity="0.28"/>
<stop offset="0.77" stop-color="white" stop-opacity="0.44"/>
<stop offset="0.86" stop-color="white" stop-opacity="0.63"/>
<stop offset="0.95" stop-color="white" stop-opacity="0.86"/>
<stop offset="1" stop-color="white"/>
</radialGradient>
<radialGradient id="paint1_radial_123_1126" cx="0" cy="0" r="1" gradientUnits="userSpaceOnUse" gradientTransform="translate(26.6599 44.0468) scale(41.0981 41.0551)">
<stop offset="0.37" stop-color="white" stop-opacity="0"/>
<stop offset="0.44" stop-color="white" stop-opacity="0.02"/>
<stop offset="0.51" stop-color="white" stop-opacity="0.07"/>
<stop offset="0.6" stop-color="white" stop-opacity="0.16"/>
<stop offset="0.68" stop-color="white" stop-opacity="0.28"/>
<stop offset="0.77" stop-color="white" stop-opacity="0.44"/>
<stop offset="0.86" stop-color="white" stop-opacity="0.63"/>
<stop offset="0.95" stop-color="white" stop-opacity="0.86"/>
<stop offset="1" stop-color="white"/>
</radialGradient>
<clipPath id="clip0_123_1126">
<rect width="60" height="86" fill="white" transform="translate(0 0.5)"/>
</clipPath>
</defs>
</svg>
