<svg xmlns="http://www.w3.org/2000/svg" width="25" height="30" viewBox="0 0 25 30" fill="none">
<g clip-path="url(#clip0_232_44)">
<path d="M24.4939 8.49377C24.5319 11.6763 24.409 14.6042 23.7978 17.4848C23.2348 20.1397 22.3125 22.6363 20.7505 24.8478C18.9576 27.3874 16.4923 28.7807 13.5679 29.3033C10.0609 29.9278 6.82277 29.0367 3.78839 27.2029C3.59551 27.0862 3.54118 26.9963 3.66954 26.7722C6.83907 21.2055 10.0127 15.6389 13.5517 10.3142C15.7215 7.05244 18.2635 4.13935 21.2938 1.71284C21.767 1.32747 22.2795 0.997342 22.8219 0.728378C23.0454 0.611222 23.2866 0.535138 23.535 0.503479C23.8589 0.471654 24.0586 0.644926 24.0783 0.982275C24.2413 3.5665 24.5041 6.14577 24.4939 8.49377Z" fill="white"/>
<path d="M2.07407 25.5352C1.28287 23.7919 0.779633 22.0698 0.579967 20.2543C0.397958 18.586 0.491679 16.9438 1.04857 15.349C1.47914 14.1134 2.1773 13.0484 2.98479 12.0568C5.09011 9.47614 7.71837 7.65077 10.7269 6.31128C7.85827 12.6905 4.98688 19.0669 2.07407 25.5352Z" fill="white"/>
</g>
<defs>
<clipPath id="clip0_232_44">
<rect width="24" height="29" fill="white" transform="translate(0.5 0.5)"/>
</clipPath>
</defs>
</svg>