<svg width="82" height="87" viewBox="0 0 82 87" fill="none" xmlns="http://www.w3.org/2000/svg">
<g id="Frame" clip-path="url(#clip0_123_226)">
<g id="Group">
<g id="Illustration">
<path id="Vector" d="M56.0994 5.40011L58.7201 0.5L60.2696 5.84064L63.8469 1.59494L64.2575 7.14254L68.6351 3.73714L67.8889 9.24916L72.8757 6.83262L71.0047 12.0682L76.3829 10.7463L73.4696 15.4767L79.0036 15.3071L75.1749 19.3254L80.6233 20.3157L76.047 23.4468L81.1711 25.553L76.047 27.6596L80.6233 30.7907L75.1749 31.7806L79.0036 35.7993L73.4696 35.6296L76.3829 40.3601L71.0047 39.0382L72.8757 44.2738L67.8889 41.8572L68.6351 47.3692L64.2575 43.9638L63.8469 49.5114L60.2696 45.2657L58.7201 50.6064L56.0994 45.7059L53.4787 50.6064L51.9292 45.2657L48.3519 49.5114L47.9413 43.9638L43.5638 47.3692L44.31 41.8572L39.3231 44.2738L41.1941 39.0382L35.8162 40.3601L38.7292 35.6296L33.1956 35.7993L37.0239 31.7806L31.5759 30.7907L36.1519 27.6596L31.0278 25.553L36.1519 23.4468L31.5759 20.3157L37.0239 19.3254L33.1956 15.3071L38.7292 15.4767L35.8162 10.7463L41.1941 12.0682L39.3231 6.83262L44.31 9.24916L43.5638 3.73714L47.9413 7.14254L48.3519 1.59494L51.9292 5.84064L53.4787 0.5L56.0994 5.40011Z" fill="url(#paint0_linear_123_226)"/>
<path id="Vector_2" d="M74.2571 29.3854L79.1708 27.9336L74.6536 25.5084L79.1591 23.0618L74.2389 21.6334L78.1398 18.2989L73.0312 17.9299L76.157 13.8535L71.0838 14.5594L73.2977 9.91873L68.4814 11.6691L69.6867 6.66777L65.338 9.38594L65.4821 4.2419L61.7906 7.80935L60.8673 2.74754L57.9945 7.0081L56.0441 2.25L54.116 7.01743L51.2233 2.77069L50.3237 7.83699L46.6153 4.28751L46.7838 9.43051L42.4225 6.73342L43.6515 11.7289L38.8269 10.0017L41.0628 14.6316L35.9865 13.9499L39.1316 18.0114L34.025 18.4049L37.9418 21.7209L33.0281 23.1727L37.5456 25.5976L33.0398 28.0445L37.96 29.4729L34.0594 32.8071L39.1677 33.1764L36.0418 37.2528L41.115 36.547L38.9012 41.1872L43.7175 39.4368L42.5122 44.4385L46.8609 41.7204L46.7168 46.8641L50.4083 43.297L51.3316 48.3584L54.204 44.0982L56.1548 48.8563L58.0829 44.0889L60.9756 48.3353L61.8752 43.2693L65.5835 46.8188L65.415 41.6758L69.7764 44.3729L68.5474 39.3774L73.372 41.1043L71.1361 36.4747L76.2124 37.1564L73.0673 33.0949L78.1739 32.701L74.2571 29.3854Z" fill="url(#paint1_linear_123_226)"/>
<path id="Vector_3" d="M76.092 25.5534C76.092 35.8305 68.4095 44.306 58.5 45.497C57.7035 45.5932 56.902 45.6412 56.0998 45.6407C45.0589 45.6407 36.1078 36.6469 36.1078 25.5534C36.1006 20.6996 37.8499 16.0087 41.0297 12.3547C44.6961 8.13355 50.0874 5.46582 56.0994 5.46582C67.1406 5.46582 76.092 14.46 76.092 25.5534Z" fill="url(#paint2_linear_123_226)"/>
<path id="Vector_4" style="mix-blend-mode:multiply" opacity="0.2" d="M65.2734 37.3991C64.2617 40.2324 61.8845 43.0152 58.499 45.497C57.7025 45.5932 56.901 45.6412 56.0988 45.6407C45.0579 45.6407 36.1068 36.6469 36.1068 25.5535C36.0996 20.6996 37.8488 16.0087 41.0287 12.3547C41.1869 13.817 41.9331 15.4461 43.7402 17.1201C45.5889 18.8294 48.5486 20.5867 53.128 22.2555C64.0588 26.2383 67.2335 31.9085 65.2734 37.3991Z" fill="url(#paint3_linear_123_226)"/>
<g id="Vector_5" style="mix-blend-mode:soft-light" opacity="0.3">
<path d="M56.0994 40.5619C64.3493 40.5619 71.0371 33.8422 71.0371 25.5531C71.0371 17.2639 64.3493 10.5442 56.0994 10.5442C47.8496 10.5442 41.1618 17.2639 41.1618 25.5531C41.1618 33.8422 47.8496 40.5619 56.0994 40.5619Z" fill="#3A6351"/>
</g>
<path id="Vector_6" d="M41.0545 85.0544L34.7134 85.1587L34.7334 84.894L30.9143 85.2302V86.4416L34.764 86.4979L34.7355 86.3504L41.0545 86.244V85.0544Z" fill="url(#paint4_linear_123_226)"/>
<path id="Vector_7" d="M44.1562 63.905V85.0047L35.9249 85.1415V63.9907L44.1562 63.905Z" fill="url(#paint5_linear_123_226)"/>
<path id="Vector_8" d="M48.093 86.2734L34.732 86.5001V84.861L48.093 84.6409V86.2734Z" fill="url(#paint6_linear_123_226)"/>
<path id="Vector_9" style="mix-blend-mode:multiply" opacity="0.4" d="M44.1562 70.3728V74.6281C43.202 74.9339 42.0455 75.1212 40.7632 75.1388C38.755 75.1658 36.9985 74.7677 35.9249 74.1389V71.0748C36.9985 70.4135 38.755 69.973 40.7632 69.9488C42.0455 69.9333 43.202 70.0901 44.1562 70.3728Z" fill="url(#paint7_linear_123_226)"/>
<path id="Vector_10" d="M72.1395 70.8254L63.7293 34.4124C63.5196 33.5041 62.6269 32.784 61.7603 32.7267L2.64014 28.8213C1.51567 28.747 0.704811 29.4512 0.846144 30.486L6.55758 72.3055C6.71817 73.4803 7.81891 74.436 9.00632 74.4039L70.904 72.7323C71.8039 72.7077 72.3737 71.8395 72.1395 70.8254Z" fill="url(#paint8_linear_123_226)"/>
<path id="Vector_11" d="M64.6316 32.7173L5.20611 28.8212C4.07579 28.7473 3.26115 29.4497 3.40317 30.4797L9.14589 72.1939C9.30717 73.3655 10.4134 74.3191 11.607 74.2874L73.8259 72.6265C74.7306 72.6023 75.3045 71.7361 75.0679 70.7244L66.6113 34.3989C66.4002 33.493 65.503 32.7743 64.6316 32.7173Z" fill="url(#paint9_linear_123_226)"/>
<path id="Vector_12" d="M12.8701 31.7882L13.727 37.4329C13.7834 37.805 13.5259 38.0928 13.1504 38.0749L7.32028 37.7984C6.93548 37.7801 6.56685 37.4585 6.51355 37.0811L5.70647 31.3556C5.6542 30.9849 5.9348 30.704 6.3165 30.7274L12.0902 31.084C12.4623 31.1079 12.8147 31.4226 12.8701 31.7882Z" fill="url(#paint10_linear_123_226)"/>
<path id="Vector_13" d="M14.0854 39.7949L14.9633 45.5785C15.0214 45.9586 14.7618 46.2602 14.3828 46.2485L8.49499 46.0667C8.10572 46.0547 7.73296 45.7306 7.67828 45.3432L6.85298 39.476C6.79933 39.096 7.082 38.8026 7.46783 38.8195L13.2979 39.0849C13.672 39.1029 14.0286 39.4201 14.0854 39.7949Z" fill="url(#paint11_linear_123_226)"/>
<path id="Vector_14" d="M15.3308 47.9987L16.2304 53.9267C16.2899 54.3179 16.0286 54.6313 15.6458 54.6261L9.69885 54.5445C9.3058 54.539 8.92822 54.2121 8.87354 53.8151L8.02554 47.7994C7.97052 47.4096 8.2556 47.1035 8.64452 47.1145L14.5327 47.2842C14.9117 47.2949 15.2724 47.6149 15.3308 47.9987Z" fill="url(#paint12_linear_123_226)"/>
<path id="Vector_15" d="M16.607 56.4083L17.53 62.4866C17.5908 62.8878 17.3278 63.2146 16.9413 63.2163L10.9341 63.2402C10.5373 63.2419 10.1549 62.9119 10.0974 62.5049L9.22778 56.3347C9.17138 55.9349 9.45886 55.6153 9.85226 55.6202L15.8013 55.6893C16.1823 55.692 16.5475 56.0148 16.607 56.4083Z" fill="url(#paint13_linear_123_226)"/>
<path id="Vector_16" d="M17.9158 65.0307L18.8618 71.2628C18.9244 71.6739 18.6596 72.015 18.2689 72.0229L12.1999 72.1611C11.7989 72.1701 11.412 71.8377 11.3529 71.4196L10.4588 65.0891C10.4011 64.6793 10.6909 64.3455 11.0881 64.3431L17.0956 64.3054C17.4852 64.302 17.8546 64.6288 17.9158 65.0307Z" fill="url(#paint14_linear_123_226)"/>
<path id="Vector_17" d="M21.0282 32.2836L21.9395 37.8364C21.9997 38.2026 21.7703 38.486 21.4075 38.4687L15.7735 38.2009C15.4014 38.1833 15.0389 37.8671 14.9825 37.4961L14.1174 31.8662C14.0613 31.5014 14.3374 31.2246 14.7061 31.2474L20.2769 31.5929C20.6348 31.6143 20.9687 31.9239 21.0282 32.2836Z" fill="url(#paint15_linear_123_226)"/>
<path id="Vector_18" d="M22.3205 40.1595L23.2538 45.847C23.3153 46.2219 23.085 46.5176 22.7187 46.5062L17.031 46.3307C16.6555 46.3193 16.2886 46.0008 16.2301 45.62L15.344 39.8519C15.2865 39.4781 15.5644 39.1896 15.9368 39.2065L21.5585 39.4629C21.922 39.4795 22.2603 39.7911 22.3205 40.1595Z" fill="url(#paint16_linear_123_226)"/>
<path id="Vector_19" d="M23.6444 48.2264L24.6004 54.0532C24.6636 54.4377 24.4319 54.7442 24.0622 54.7411L18.3195 54.6623C17.9412 54.6571 17.5691 54.3358 17.5093 53.9457L16.6015 48.0339C16.5426 47.6511 16.8226 47.3502 17.1988 47.3609L22.8727 47.5243C23.2403 47.535 23.5821 47.8491 23.6444 48.2264Z" fill="url(#paint17_linear_123_226)"/>
<path id="Vector_20" d="M25.0006 56.4918L25.9803 62.4634C26.045 62.8573 25.8118 63.1789 25.4387 63.1803L19.641 63.2035C19.2583 63.2035 18.8824 62.8811 18.8212 62.481L17.8896 56.4203C17.8295 56.0278 18.1118 55.7141 18.4914 55.7186L24.2207 55.7842C24.5911 55.7883 24.937 56.1052 25.0006 56.4918Z" fill="url(#paint18_linear_123_226)"/>
<path id="Vector_21" d="M26.3906 64.9629L27.395 71.0844C27.4614 71.4883 27.2269 71.8238 26.8503 71.8321L20.9959 71.9624C20.6093 71.971 20.229 71.6441 20.1661 71.234L19.2108 65.0185C19.1492 64.616 19.4333 64.2888 19.8167 64.2864L25.6017 64.2498C25.9752 64.2487 26.3256 64.5662 26.3906 64.9629Z" fill="url(#paint19_linear_123_226)"/>
<path id="Vector_22" d="M28.9404 32.7633C28.8778 32.4088 28.5622 32.1044 28.2152 32.083L22.8304 31.7495C22.4735 31.7274 22.2359 32.0004 22.2957 32.3597L23.2149 37.8973C23.2754 38.2632 23.622 38.5738 23.9821 38.5911L29.3974 38.8496C29.7485 38.8661 29.9652 38.587 29.9019 38.2259L28.9404 32.7633Z" fill="url(#paint20_linear_123_226)"/>
<path id="Vector_23" d="M30.3043 40.5119L31.2888 46.1061C31.3538 46.4748 31.1389 46.766 30.785 46.755L25.3071 46.5857C24.9443 46.5743 24.6035 46.2616 24.5413 45.8874L23.5997 40.2147C23.5385 39.8471 23.7868 39.5627 24.1465 39.5793L29.5694 39.827C29.9205 39.8436 30.2403 40.1501 30.3043 40.5119Z" fill="url(#paint21_linear_123_226)"/>
<path id="Vector_24" d="M31.7008 48.447L32.709 54.1764C32.7145 54.2068 32.7379 54.2379 32.7389 54.2669C32.7551 54.602 32.5405 54.8574 32.2121 54.8543L26.6795 54.7783C26.3132 54.7734 25.9635 54.458 25.8999 54.0748L24.9353 48.2632C24.8728 47.8866 25.1224 47.5905 25.4855 47.6008L30.9573 47.7584C31.3118 47.7677 31.6354 48.0759 31.7008 48.447Z" fill="url(#paint22_linear_123_226)"/>
<path id="Vector_25" d="M33.1309 56.5736L34.1625 62.4425C34.2313 62.8295 34.014 63.1456 33.6536 63.147L28.0746 63.1698C27.7049 63.1716 27.3562 62.854 27.2909 62.4608L26.3022 56.5055C26.2383 56.1199 26.4896 55.811 26.8562 55.8145L32.3782 55.8777C32.7372 55.8826 33.0642 56.1932 33.1309 56.5736Z" fill="url(#paint23_linear_123_226)"/>
<path id="Vector_26" d="M34.5962 64.8982L35.6546 70.9123C35.7234 71.3089 35.5068 71.6379 35.143 71.6465L29.5123 71.7726C29.1392 71.7812 28.7864 71.4616 28.7214 71.0581L27.708 64.9535C27.6423 64.5579 27.8951 64.2362 28.2651 64.2338L33.838 64.1992C34.197 64.1958 34.5278 64.5088 34.5962 64.8982Z" fill="url(#paint24_linear_123_226)"/>
<path id="Vector_27" d="M36.5907 33.2267C36.5253 32.8777 36.2227 32.5785 35.8854 32.5574L30.7056 32.235C30.36 32.214 30.1647 32.4828 30.2276 32.8366L31.1973 38.2864C31.2616 38.6461 31.5732 38.9515 31.9195 38.9681L37.1381 39.2179C37.4779 39.2342 37.6636 38.9588 37.5972 38.6036L36.5907 33.2267Z" fill="url(#paint25_linear_123_226)"/>
<path id="Vector_28" d="M38.0208 40.8543C37.952 40.497 37.6481 40.1957 37.308 40.1802L32.0835 39.9411C31.7351 39.9252 31.5391 40.2057 31.602 40.5678L32.5948 46.1469C32.6605 46.5156 32.9755 46.8227 33.3266 46.8338L38.5903 46.9969C38.9342 47.0076 39.1195 46.7204 39.0514 46.357L38.0208 40.8543Z" fill="url(#paint26_linear_123_226)"/>
<path id="Vector_29" d="M39.4847 48.6608C39.4159 48.2953 39.1065 47.9916 38.7626 47.9819L33.493 47.8299C33.1416 47.8195 32.9428 48.1121 33.0116 48.4829L34.0281 54.1963C34.0969 54.5736 34.4139 54.8832 34.7685 54.8874L40.0779 54.9596C40.4218 54.9644 40.6106 54.6656 40.5408 54.2934L39.4847 48.6608Z" fill="url(#paint27_linear_123_226)"/>
<path id="Vector_30" d="M40.9823 56.6519L42.0641 62.4221C42.1353 62.8021 41.9362 63.1131 41.5879 63.1152L36.2303 63.138C35.8733 63.138 35.5635 62.827 35.4947 62.4421L34.4531 56.5884C34.3844 56.2083 34.5952 55.9046 34.9494 55.9087L40.266 55.9695C40.6126 55.973 40.9135 56.2781 40.9823 56.6519Z" fill="url(#paint28_linear_123_226)"/>
<path id="Vector_31" d="M42.5177 64.8361L43.626 70.7444C43.6993 71.1342 43.4991 71.4579 43.1477 71.4658L37.743 71.5892C37.383 71.5971 37.0697 71.2838 36.9992 70.8881L35.9332 64.89C35.8644 64.5016 36.0745 64.1844 36.4318 64.182L41.7963 64.1475C42.1422 64.1451 42.4462 64.4529 42.5177 64.8361Z" fill="url(#paint29_linear_123_226)"/>
<path id="Vector_32" d="M44.0954 33.6754C44.0266 33.3319 43.6859 33.0372 43.3592 33.0172L38.2829 32.7062C37.9486 32.6855 37.7021 32.9505 37.7671 33.2984L38.7822 38.6626C38.851 39.0167 39.1948 39.319 39.5318 39.3332L44.6466 39.5751C44.9754 39.5906 45.2164 39.3201 45.147 38.9704L44.0954 33.6754Z" fill="url(#paint30_linear_123_226)"/>
<path id="Vector_33" d="M45.5902 41.1856C45.5215 40.8339 45.1752 40.5371 44.8461 40.5219L39.7275 40.2897C39.3905 40.2745 39.1429 40.5502 39.2117 40.9064L40.2509 46.3956C40.3197 46.7581 40.669 47.0611 41.0074 47.0714L46.1655 47.2304C46.497 47.2407 46.7391 46.9592 46.6683 46.6015L45.5902 41.1856Z" fill="url(#paint31_linear_123_226)"/>
<path id="Vector_34" d="M47.1157 48.8686C47.0441 48.5092 46.6954 48.2097 46.3636 48.2L41.2027 48.0518C40.8626 48.0421 40.6133 48.3282 40.6824 48.6934L41.746 54.3125C41.8148 54.6836 42.1697 54.989 42.5122 54.9935L47.7126 55.065C48.0469 55.0699 48.2903 54.7772 48.2174 54.4113L47.1157 48.8686Z" fill="url(#paint32_linear_123_226)"/>
<path id="Vector_35" d="M48.6786 56.7306L49.8065 62.405C49.8811 62.7796 49.6462 63.0836 49.3096 63.085L44.0658 63.1051C43.7219 63.1051 43.3523 62.7986 43.2804 62.4192L42.191 56.6643C42.1205 56.2915 42.3598 55.993 42.7023 55.9971L47.887 56.0565C48.1903 56.0603 48.5159 56.3077 48.6235 56.6291C48.6352 56.6615 48.6717 56.6964 48.6786 56.7306Z" fill="url(#paint33_linear_123_226)"/>
<path id="Vector_36" d="M50.2787 64.7792L51.4334 70.5891C51.5098 70.9723 51.2735 71.2888 50.9341 71.2964L45.646 71.4128C45.298 71.4204 44.9256 71.1098 44.852 70.7218L43.7361 64.8276C43.6639 64.4458 43.9046 64.1366 44.2499 64.1331L49.5008 64.1013C49.8378 64.0986 50.2037 64.4026 50.2787 64.7792Z" fill="url(#paint34_linear_123_226)"/>
<path id="Vector_37" d="M51.1796 34.1093C51.1084 33.7711 50.822 33.4812 50.5056 33.4619L45.6191 33.1595C45.2952 33.1395 45.0902 33.4014 45.159 33.7434L46.2171 39.026C46.2859 39.375 46.6198 39.6704 46.9458 39.686L51.8467 39.9202C52.1651 39.9354 52.3433 39.6684 52.271 39.3242L51.1796 34.1093Z" fill="url(#paint35_linear_123_226)"/>
<path id="Vector_38" d="M52.728 41.5042C52.6555 41.1587 52.3659 40.8664 52.0472 40.8519L47.1222 40.6273C46.7958 40.6124 46.5899 40.8844 46.66 41.2351L47.7425 46.6376C47.8141 46.9945 48.1504 47.2923 48.4791 47.3023L53.4189 47.4554C53.7397 47.4654 53.9182 47.1873 53.8443 46.8355L52.728 41.5042Z" fill="url(#paint36_linear_123_226)"/>
<path id="Vector_39" d="M54.3116 49.0664C54.2373 48.7122 53.945 48.4185 53.6239 48.4099L48.6597 48.2668C48.3306 48.2575 48.1239 48.5401 48.1958 48.8991L49.3034 54.4274C49.3766 54.7923 49.7161 55.0925 50.0479 55.097L55.0269 55.1661C55.3505 55.1702 55.5289 54.8814 55.4536 54.5214L54.3116 49.0664Z" fill="url(#paint37_linear_123_226)"/>
<path id="Vector_40" d="M55.9316 56.8018L57.1008 62.3833C57.1778 62.7512 57.0048 63.0518 56.6792 63.0532L51.6393 63.0736C51.3058 63.0736 50.9763 62.7733 50.9014 62.4002L49.7666 56.7403C49.7506 56.6478 49.7548 56.5529 49.779 56.4621C49.7998 56.3528 49.8589 56.2545 49.9455 56.1851C50.0322 56.1157 50.1407 56.0798 50.2515 56.0838L55.2339 56.1408C55.5575 56.1446 55.8556 56.44 55.9316 56.8018Z" fill="url(#paint38_linear_123_226)"/>
<path id="Vector_41" d="M57.5891 64.7177L58.7854 70.4301C58.8642 70.8067 58.6912 71.1194 58.3632 71.127L53.2827 71.2407C52.9464 71.2483 52.6132 70.9442 52.5365 70.5621L51.3756 64.7671C51.3003 64.3919 51.5224 64.0864 51.857 64.0843L56.8821 64.0515C57.2074 64.0498 57.5117 64.3473 57.5891 64.7177Z" fill="url(#paint39_linear_123_226)"/>
<path id="Vector_42" d="M58.2267 34.5309C58.1534 34.1975 57.8285 33.9121 57.5217 33.8931L52.8072 33.6004C52.4936 33.5807 52.3196 33.8388 52.3907 34.1764L53.4912 39.3778C53.5634 39.7212 53.8467 40.0115 54.1624 40.0267L58.933 40.2537C59.2425 40.2685 59.4323 40.0053 59.358 39.6663L58.2267 34.5309Z" fill="url(#paint40_linear_123_226)"/>
<path id="Vector_43" d="M59.8291 41.8148C59.7541 41.4741 59.4257 41.1863 59.1165 41.1721L54.3666 40.9552C54.0506 40.9406 53.8762 41.2088 53.9491 41.5543L55.0729 46.8732C55.1468 47.2242 55.4329 47.5169 55.7514 47.5265L60.5577 47.6751C60.8672 47.6848 61.0601 47.4115 60.9838 47.0649L59.8291 41.8148Z" fill="url(#paint41_linear_123_226)"/>
<path id="Vector_44" d="M61.467 49.2614C61.3903 48.9128 61.0584 48.6232 60.7472 48.6142L55.9615 48.476C55.6431 48.4671 55.4684 48.7459 55.543 49.098L56.6922 54.5399C56.7682 54.8992 57.0571 55.1932 57.3779 55.1963L62.2207 55.2627C62.534 55.2668 62.7259 54.9828 62.6478 54.6283L61.467 49.2614Z" fill="url(#paint42_linear_123_226)"/>
<path id="Vector_45" d="M63.142 56.8753L64.35 62.369C64.4298 62.7311 64.2207 63.0255 63.9057 63.0255L59.0506 63.0459C58.7277 63.0459 58.4268 62.7512 58.3494 62.3839L57.173 56.8159C57.097 56.4552 57.2627 56.1649 57.5832 56.1687L62.4319 56.2244C62.7452 56.2282 63.0636 56.5194 63.142 56.8753Z" fill="url(#paint43_linear_123_226)"/>
<path id="Vector_46" d="M64.8555 64.6634L66.0914 70.2826C66.1729 70.653 65.9635 70.9587 65.6444 70.966L60.7551 71.078C60.4298 71.0852 60.1258 70.787 60.0464 70.4111L58.8428 64.7129C58.7648 64.3435 58.9305 64.0419 59.2538 64.0398L64.1396 64.009C64.4532 64.007 64.7754 64.3003 64.8555 64.6634Z" fill="url(#paint44_linear_123_226)"/>
<path id="Vector_47" d="M64.9608 34.9389C64.8851 34.6103 64.5718 34.3294 64.273 34.3111L59.7077 34.0271C59.4037 34.0084 59.2445 34.2627 59.3181 34.5951L60.4529 39.7188C60.5279 40.057 60.8033 40.3428 61.109 40.3573L65.7259 40.5774C66.0251 40.5919 66.1994 40.3324 66.1224 39.9983L64.9608 34.9389Z" fill="url(#paint45_linear_123_226)"/>
<path id="Vector_48" d="M66.6114 42.1147C66.534 41.7792 66.2177 41.4959 65.9181 41.4824L61.3202 41.272C61.0141 41.2579 60.8549 41.5225 60.9302 41.8625L62.0908 47.1002C62.1675 47.4457 62.4453 47.7335 62.7538 47.7429L67.4037 47.8866C67.7049 47.8959 67.8793 47.6268 67.8009 47.2854L66.6114 42.1147Z" fill="url(#paint46_linear_123_226)"/>
<path id="Vector_49" d="M68.2984 49.4482C68.2196 49.1051 67.8998 48.8201 67.5983 48.8114L62.9673 48.6777C62.6578 48.6687 62.4993 48.9438 62.5763 49.2913L63.7633 54.6468C63.8417 55.0003 64.1224 55.2898 64.4329 55.294L69.1165 55.3583C69.4198 55.3624 69.5944 55.0818 69.5143 54.7336L68.2984 49.4482Z" fill="url(#paint47_linear_123_226)"/>
<path id="Vector_50" d="M70.0229 56.9442L71.2663 62.3484C71.3482 62.7046 71.1556 62.9945 70.8506 62.9956L66.1557 63.016C65.8431 63.016 65.5539 62.7257 65.4738 62.3647L64.2595 56.8858C64.2413 56.8036 64.2021 56.7231 64.2124 56.6509C64.2413 56.4131 64.3888 56.2456 64.6275 56.2483L69.3248 56.3022C69.6271 56.3071 69.9421 56.5938 70.0229 56.9442Z" fill="url(#paint48_linear_123_226)"/>
<path id="Vector_51" d="M71.7863 64.6096L73.0587 70.1378C73.1426 70.5024 72.9497 70.8033 72.6422 70.8102L67.9126 70.9173C67.5979 70.9242 67.3056 70.6312 67.2248 70.2608L65.982 64.6569C65.9016 64.2938 66.0549 63.9966 66.3675 63.9949L71.0903 63.9649C71.3957 63.9628 71.7038 64.2513 71.7863 64.6096Z" fill="url(#paint49_linear_123_226)"/>
<path id="Vector_52" style="mix-blend-mode:multiply" opacity="0.2" d="M10.4901 30.9856C11.2976 31.4347 12.1517 31.9257 12.9726 32.4626L13.727 37.4329C13.7834 37.805 13.5259 38.0928 13.1504 38.0749L7.32028 37.7984C6.93549 37.7801 6.56685 37.4585 6.51355 37.0811L5.70647 31.3556C5.65421 30.9849 5.93446 30.704 6.31651 30.7274L10.4901 30.9856Z" fill="url(#paint50_linear_123_226)"/>
<path id="Vector_53" style="mix-blend-mode:multiply" opacity="0.2" d="M14.0854 39.7949L14.9633 45.5785C15.0214 45.9586 14.7618 46.2602 14.3828 46.2485L8.49499 46.0667C8.10572 46.0547 7.73296 45.7306 7.67828 45.3432L6.85298 39.476C6.79933 39.096 7.082 38.8026 7.46783 38.8195L13.2979 39.0849C13.672 39.1029 14.0286 39.4201 14.0854 39.7949Z" fill="url(#paint51_linear_123_226)"/>
<path id="Vector_54" style="mix-blend-mode:multiply" opacity="0.2" d="M15.3308 47.9987L16.2304 53.9267C16.2899 54.3179 16.0286 54.6313 15.6458 54.6261L9.69885 54.5445C9.3058 54.539 8.92822 54.2121 8.87354 53.8151L8.02554 47.7994C7.97052 47.4096 8.2556 47.1035 8.64452 47.1145L14.5327 47.2842C14.9117 47.2949 15.2724 47.6149 15.3308 47.9987Z" fill="url(#paint52_linear_123_226)"/>
<path id="Vector_55" style="mix-blend-mode:multiply" opacity="0.2" d="M16.607 56.4083L17.53 62.4866C17.5908 62.8878 17.3278 63.2146 16.9413 63.2163L10.9341 63.2402C10.5373 63.2419 10.1549 62.9119 10.0974 62.5049L9.22778 56.3347C9.17138 55.9349 9.45886 55.6153 9.85226 55.6202L15.8013 55.6893C16.1823 55.692 16.5475 56.0148 16.607 56.4083Z" fill="url(#paint53_linear_123_226)"/>
<path id="Vector_56" style="mix-blend-mode:multiply" opacity="0.2" d="M17.9158 65.0307L18.8618 71.2628C18.9244 71.6739 18.6596 72.015 18.2689 72.0229L12.1999 72.1611C11.7989 72.1701 11.412 71.8377 11.3529 71.4196L10.4588 65.0891C10.4011 64.6793 10.6909 64.3455 11.0881 64.3431L17.0956 64.3054C17.4852 64.302 17.8546 64.6288 17.9158 65.0307Z" fill="url(#paint54_linear_123_226)"/>
<path id="Vector_57" style="mix-blend-mode:multiply" opacity="0.2" d="M14.9818 37.4962L14.3525 33.4011C16.4326 34.7953 18.4856 36.4551 20.4993 38.4256L15.7703 38.201C15.3979 38.1834 15.0389 37.8673 14.9818 37.4962Z" fill="url(#paint55_linear_123_226)"/>
<path id="Vector_58" style="mix-blend-mode:multiply" opacity="0.2" d="M21.5293 39.4612C21.8112 39.7562 22.0506 40.0582 22.3546 40.3661L23.2538 45.847C23.3153 46.2219 23.085 46.5176 22.7187 46.5062L17.031 46.3307C16.6555 46.3193 16.2886 46.0008 16.2301 45.62L15.344 39.8519C15.2865 39.4781 15.5565 39.1896 15.9285 39.2065L21.5293 39.4612Z" fill="url(#paint56_linear_123_226)"/>
<path id="Vector_59" style="mix-blend-mode:multiply" opacity="0.2" d="M23.6444 48.2264L24.6004 54.0532C24.6636 54.4377 24.4319 54.7442 24.0622 54.7411L18.3195 54.6623C17.9412 54.6571 17.5691 54.3358 17.5093 53.9457L16.6015 48.0339C16.5426 47.6511 16.8226 47.3502 17.1988 47.3609L22.8727 47.5243C23.2403 47.535 23.5821 47.8491 23.6444 48.2264Z" fill="url(#paint57_linear_123_226)"/>
<path id="Vector_60" style="mix-blend-mode:multiply" opacity="0.2" d="M25.0006 56.4918L25.9803 62.4634C26.045 62.8573 25.8118 63.1789 25.4387 63.1803L19.641 63.2035C19.2583 63.2035 18.8824 62.8811 18.8212 62.481L17.8896 56.4203C17.8295 56.0278 18.1118 55.7141 18.4914 55.7186L24.2207 55.7842C24.5911 55.7883 24.937 56.1052 25.0006 56.4918Z" fill="url(#paint58_linear_123_226)"/>
<path id="Vector_61" style="mix-blend-mode:multiply" opacity="0.2" d="M26.3906 64.9629L27.395 71.0844C27.4614 71.4883 27.2269 71.8238 26.8503 71.8321L20.9959 71.9624C20.6093 71.971 20.229 71.6441 20.1661 71.234L19.2108 65.0185C19.1492 64.616 19.4333 64.2888 19.8167 64.2864L25.6017 64.2498C25.9752 64.2487 26.3256 64.5662 26.3906 64.9629Z" fill="url(#paint59_linear_123_226)"/>
<path id="Vector_62" style="mix-blend-mode:multiply" opacity="0.2" d="M24.5412 45.8879L23.926 42.1743C25.0834 43.5919 26.1469 45.0843 27.1096 46.6418L25.3149 46.5862C24.9511 46.5752 24.6035 46.2621 24.5412 45.8879Z" fill="url(#paint60_linear_123_226)"/>
<path id="Vector_63" style="mix-blend-mode:multiply" opacity="0.2" d="M25.8999 54.0733L24.9353 48.2617C24.8728 47.8851 25.1224 47.589 25.4855 47.5994L27.7283 47.664C27.9805 48.0934 28.2283 48.531 28.4718 48.977C29.7365 51.3092 31.1791 53.0247 32.7571 54.2661C32.7736 54.6013 32.5508 54.8559 32.2214 54.8514L26.685 54.7758C26.3181 54.772 25.9635 54.4565 25.8999 54.0733Z" fill="url(#paint61_linear_123_226)"/>
<path id="Vector_64" style="mix-blend-mode:multiply" opacity="0.2" d="M33.1309 56.5736L34.1625 62.4425C34.2313 62.8295 34.014 63.1456 33.6536 63.147L28.0746 63.1698C27.7049 63.1716 27.3562 62.854 27.2909 62.4608L26.3022 56.5055C26.2383 56.1199 26.4896 55.811 26.8562 55.8145L32.3782 55.8777C32.7372 55.8826 33.0642 56.1932 33.1309 56.5736Z" fill="url(#paint62_linear_123_226)"/>
<path id="Vector_65" style="mix-blend-mode:multiply" opacity="0.2" d="M34.5962 64.8982L35.6546 70.9123C35.7234 71.3089 35.5068 71.6379 35.143 71.6465L29.5123 71.7726C29.1392 71.7812 28.7864 71.4616 28.7214 71.0581L27.708 64.9535C27.6423 64.5579 27.8951 64.2362 28.2651 64.2338L33.838 64.1992C34.197 64.1958 34.5278 64.5088 34.5962 64.8982Z" fill="url(#paint63_linear_123_226)"/>
<path id="Vector_66" style="mix-blend-mode:multiply" opacity="0.2" d="M35.4696 55.9139C37.2502 56.7006 39.1876 57.0541 41.0748 57.1446L42.0644 62.4217C42.1356 62.8017 41.9365 63.1127 41.5882 63.1148L36.2306 63.1376C35.8737 63.1376 35.5638 62.8266 35.4951 62.4417L34.4534 56.588C34.3847 56.2079 34.5834 55.9042 34.9376 55.908L35.4696 55.9139Z" fill="url(#paint64_linear_123_226)"/>
<path id="Vector_67" style="mix-blend-mode:multiply" opacity="0.2" d="M42.5177 64.8361L43.626 70.7444C43.6993 71.1342 43.4991 71.4579 43.1477 71.4658L37.743 71.5892C37.383 71.5971 37.0697 71.2838 36.9992 70.8881L35.9332 64.89C35.8644 64.5016 36.0745 64.1844 36.4318 64.182L41.7963 64.1475C42.1422 64.1451 42.4462 64.4529 42.5177 64.8361Z" fill="url(#paint65_linear_123_226)"/>
<path id="Vector_68" style="mix-blend-mode:multiply" opacity="0.2" d="M48.6095 56.6289C48.6212 56.6614 48.6717 56.698 48.6782 56.7308L49.8062 62.4052C49.8808 62.7798 49.6459 63.0838 49.3092 63.0852L44.0655 63.1053C43.7216 63.1053 43.3519 62.7988 43.2801 62.4194L42.2866 57.1703C44.4379 57.1683 46.4874 56.9205 48.6095 56.6289Z" fill="url(#paint66_linear_123_226)"/>
<path id="Vector_69" style="mix-blend-mode:multiply" opacity="0.2" d="M50.2787 64.7792L51.4334 70.5891C51.5098 70.9723 51.2735 71.2888 50.9341 71.2964L45.646 71.4128C45.298 71.4204 44.9256 71.1098 44.852 70.7218L43.7361 64.8276C43.6639 64.4458 43.9046 64.1366 44.2499 64.1331L49.5008 64.1013C49.8378 64.0986 50.2037 64.4026 50.2787 64.7792Z" fill="url(#paint67_linear_123_226)"/>
<path id="Vector_70" style="mix-blend-mode:multiply" opacity="0.2" d="M55.9316 56.802L57.1008 62.3834C57.1778 62.7514 57.0048 63.052 56.6792 63.0534L51.6393 63.0738C51.3058 63.0738 50.9763 62.7735 50.9014 62.4003L49.7666 56.7405C49.7506 56.6479 49.7548 56.553 49.779 56.4623C50.6311 56.3403 51.4898 56.2204 52.3415 56.1082L55.2339 56.1427C55.5575 56.1448 55.8556 56.4402 55.9316 56.802Z" fill="url(#paint68_linear_123_226)"/>
<path id="Vector_71" style="mix-blend-mode:multiply" opacity="0.2" d="M57.5891 64.7177L58.7854 70.4301C58.8642 70.8067 58.6912 71.1194 58.3632 71.127L53.2827 71.2407C52.9464 71.2483 52.6132 70.9442 52.5365 70.5621L51.3756 64.7671C51.3003 64.3919 51.5224 64.0864 51.857 64.0843L56.8821 64.0515C57.2074 64.0498 57.5117 64.3473 57.5891 64.7177Z" fill="url(#paint69_linear_123_226)"/>
<path id="Vector_72" style="mix-blend-mode:multiply" opacity="0.2" d="M63.142 56.8753L64.35 62.369C64.4298 62.7311 64.2207 63.0255 63.9057 63.0255L59.0506 63.0459C58.7277 63.0459 58.4268 62.7512 58.3494 62.3839L57.173 56.8159C57.097 56.4552 57.2627 56.1649 57.5832 56.1687L62.4319 56.2244C62.7452 56.2282 63.0636 56.5194 63.142 56.8753Z" fill="url(#paint70_linear_123_226)"/>
<path id="Vector_73" style="mix-blend-mode:multiply" opacity="0.2" d="M64.8555 64.6634L66.0914 70.2826C66.1729 70.653 65.9635 70.9587 65.6444 70.966L60.7551 71.078C60.4298 71.0852 60.1258 70.787 60.0464 70.4111L58.8428 64.7129C58.7648 64.3435 58.9305 64.0419 59.2538 64.0398L64.1396 64.009C64.4532 64.007 64.7754 64.3003 64.8555 64.6634Z" fill="url(#paint71_linear_123_226)"/>
<path id="Vector_74" style="mix-blend-mode:multiply" opacity="0.2" d="M71.0621 61.461L71.2663 62.3497C71.3482 62.7059 71.1556 62.9958 70.8506 62.9968L66.1557 63.0172C65.8431 63.0172 65.5539 62.727 65.4738 62.3659L64.2595 56.8871C64.2413 56.8048 64.2021 56.7243 64.2124 56.6521C66.3142 57.4008 68.3479 58.6537 70.2959 60.6601C70.5593 60.9317 70.7172 61.1949 71.0621 61.461Z" fill="url(#paint72_linear_123_226)"/>
<path id="Vector_75" style="mix-blend-mode:multiply" opacity="0.2" d="M71.7863 64.6096L73.0587 70.1378C73.1426 70.5024 72.9497 70.8033 72.6422 70.8102L67.9126 70.9173C67.5979 70.9242 67.3056 70.6312 67.2248 70.2608L65.982 64.6569C65.9016 64.2938 66.0549 63.9966 66.3675 63.9949L71.0903 63.9649C71.3957 63.9628 71.7038 64.2513 71.7863 64.6096Z" fill="url(#paint73_linear_123_226)"/>
</g>
</g>
</g>
<defs>
<linearGradient id="paint0_linear_123_226" x1="52.5616" y1="88.0161" x2="57.1937" y2="7.0058" gradientUnits="userSpaceOnUse">
<stop stop-color="#FFC444"/>
<stop offset="1" stop-color="#F36F56"/>
</linearGradient>
<linearGradient id="paint1_linear_123_226" x1="52.0308" y1="83.6162" x2="57.0641" y2="8.79387" gradientUnits="userSpaceOnUse">
<stop stop-color="#FFC444"/>
<stop offset="1" stop-color="#F36F56"/>
</linearGradient>
<linearGradient id="paint2_linear_123_226" x1="69.4542" y1="-7.38324" x2="40.3729" y2="63.6598" gradientUnits="userSpaceOnUse">
<stop stop-color="#FCB148"/>
<stop offset="0.05" stop-color="#FDBA46"/>
<stop offset="0.14" stop-color="#FFC244"/>
<stop offset="0.32" stop-color="#FFC444"/>
<stop offset="0.48" stop-color="#FDB946"/>
<stop offset="0.78" stop-color="#F99C4D"/>
<stop offset="0.87" stop-color="#F8924F"/>
<stop offset="1" stop-color="#F8924F"/>
</linearGradient>
<linearGradient id="paint3_linear_123_226" x1="36.1075" y1="28.9976" x2="65.8177" y2="28.9976" gradientUnits="userSpaceOnUse">
<stop stop-color="#FCB148"/>
<stop offset="0.05" stop-color="#FDBA46"/>
<stop offset="0.14" stop-color="#FFC244"/>
<stop offset="0.32" stop-color="#FFC444"/>
<stop offset="0.48" stop-color="#FDB946"/>
<stop offset="0.78" stop-color="#F99C4D"/>
<stop offset="0.87" stop-color="#F8924F"/>
<stop offset="1" stop-color="#F8924F"/>
</linearGradient>
<linearGradient id="paint4_linear_123_226" x1="36.6945" y1="88.3972" x2="36.0159" y2="85.8894" gradientUnits="userSpaceOnUse">
<stop stop-color="#EBEFF2"/>
<stop offset="0.47" stop-color="#D2D9E1"/>
<stop offset="0.99" stop-color="#B7C0CE"/>
</linearGradient>
<linearGradient id="paint5_linear_123_226" x1="42.4166" y1="60.5874" x2="36.1659" y2="96.8335" gradientUnits="userSpaceOnUse">
<stop stop-color="#EBEFF2"/>
<stop offset="0.47" stop-color="#D2D9E1"/>
<stop offset="0.99" stop-color="#B7C0CE"/>
</linearGradient>
<linearGradient id="paint6_linear_123_226" x1="41.8492" y1="83.0097" x2="40.7008" y2="89.6705" gradientUnits="userSpaceOnUse">
<stop stop-color="#EBEFF2"/>
<stop offset="0.47" stop-color="#D2D9E1"/>
<stop offset="0.99" stop-color="#B7C0CE"/>
</linearGradient>
<linearGradient id="paint7_linear_123_226" x1="41.3048" y1="76.9742" x2="40.2147" y2="72.9443" gradientUnits="userSpaceOnUse">
<stop stop-color="#EBEFF2"/>
<stop offset="0.47" stop-color="#D2D9E1"/>
<stop offset="0.99" stop-color="#B7C0CE"/>
</linearGradient>
<linearGradient id="paint8_linear_123_226" x1="61.7785" y1="31.5446" x2="6.77912" y2="73.0869" gradientUnits="userSpaceOnUse">
<stop stop-color="#EBEFF2"/>
<stop offset="0.47" stop-color="#D2D9E1"/>
<stop offset="0.99" stop-color="#B7C0CE"/>
</linearGradient>
<linearGradient id="paint9_linear_123_226" x1="3.38701" y1="51.5528" x2="75.1192" y2="51.5528" gradientUnits="userSpaceOnUse">
<stop stop-color="#EBEFF2"/>
<stop offset="0.47" stop-color="#D2D9E1"/>
<stop offset="0.99" stop-color="#B7C0CE"/>
</linearGradient>
<linearGradient id="paint10_linear_123_226" x1="60.5186" y1="-4.33314" x2="2.11092" y2="39.7835" gradientUnits="userSpaceOnUse">
<stop stop-color="#AA80F9"/>
<stop offset="1" stop-color="#6165D7"/>
</linearGradient>
<linearGradient id="paint11_linear_123_226" x1="66.4973" y1="0.148689" x2="6.70758" y2="45.3094" gradientUnits="userSpaceOnUse">
<stop stop-color="#AA80F9"/>
<stop offset="1" stop-color="#6165D7"/>
</linearGradient>
<linearGradient id="paint12_linear_123_226" x1="72.7217" y1="4.66893" x2="11.4993" y2="50.9121" gradientUnits="userSpaceOnUse">
<stop stop-color="#AA80F9"/>
<stop offset="1" stop-color="#6165D7"/>
</linearGradient>
<linearGradient id="paint13_linear_123_226" x1="79.2058" y1="9.226" x2="16.4962" y2="56.5922" gradientUnits="userSpaceOnUse">
<stop stop-color="#AA80F9"/>
<stop offset="1" stop-color="#6165D7"/>
</linearGradient>
<linearGradient id="paint14_linear_123_226" x1="85.9633" y1="13.8183" x2="21.7101" y2="62.35" gradientUnits="userSpaceOnUse">
<stop stop-color="#AA80F9"/>
<stop offset="1" stop-color="#6165D7"/>
</linearGradient>
<linearGradient id="paint15_linear_123_226" x1="62.4137" y1="1.02201" x2="6.08647" y2="43.5674" gradientUnits="userSpaceOnUse">
<stop stop-color="#AA80F9"/>
<stop offset="1" stop-color="#6165D7"/>
</linearGradient>
<linearGradient id="paint16_linear_123_226" x1="68.1732" y1="5.59781" x2="10.5368" y2="49.1323" gradientUnits="userSpaceOnUse">
<stop stop-color="#AA80F9"/>
<stop offset="1" stop-color="#6165D7"/>
</linearGradient>
<linearGradient id="paint17_linear_123_226" x1="74.1646" y1="10.2172" x2="15.171" y2="54.7765" gradientUnits="userSpaceOnUse">
<stop stop-color="#AA80F9"/>
<stop offset="1" stop-color="#6165D7"/>
</linearGradient>
<linearGradient id="paint18_linear_123_226" x1="80.3991" y1="14.8796" x2="19.999" y2="60.5015" gradientUnits="userSpaceOnUse">
<stop stop-color="#AA80F9"/>
<stop offset="1" stop-color="#6165D7"/>
</linearGradient>
<linearGradient id="paint19_linear_123_226" x1="86.8903" y1="19.5832" x2="25.0303" y2="66.3078" gradientUnits="userSpaceOnUse">
<stop stop-color="#AA80F9"/>
<stop offset="1" stop-color="#6165D7"/>
</linearGradient>
<linearGradient id="paint20_linear_123_226" x1="64.3823" y1="6.11016" x2="10.1642" y2="47.0627" gradientUnits="userSpaceOnUse">
<stop stop-color="#AA80F9"/>
<stop offset="1" stop-color="#6165D7"/>
</linearGradient>
<linearGradient id="paint21_linear_123_226" x1="69.9408" y1="10.7695" x2="14.469" y2="52.6689" gradientUnits="userSpaceOnUse">
<stop stop-color="#AA80F9"/>
<stop offset="1" stop-color="#6165D7"/>
</linearGradient>
<linearGradient id="paint22_linear_123_226" x1="75.7042" y1="15.4889" x2="18.9545" y2="58.3534" gradientUnits="userSpaceOnUse">
<stop stop-color="#AA80F9"/>
<stop offset="1" stop-color="#6165D7"/>
</linearGradient>
<linearGradient id="paint23_linear_123_226" x1="81.7034" y1="20.2415" x2="23.6149" y2="64.1171" gradientUnits="userSpaceOnUse">
<stop stop-color="#AA80F9"/>
<stop offset="1" stop-color="#6165D7"/>
</linearGradient>
<linearGradient id="paint24_linear_123_226" x1="87.9402" y1="25.0482" x2="28.4712" y2="69.9667" gradientUnits="userSpaceOnUse">
<stop stop-color="#AA80F9"/>
<stop offset="1" stop-color="#6165D7"/>
</linearGradient>
<linearGradient id="paint25_linear_123_226" x1="66.4216" y1="10.9388" x2="14.3404" y2="50.2769" gradientUnits="userSpaceOnUse">
<stop stop-color="#AA80F9"/>
<stop offset="1" stop-color="#6165D7"/>
</linearGradient>
<linearGradient id="paint26_linear_123_226" x1="71.7644" y1="15.6862" x2="18.5079" y2="55.9121" gradientUnits="userSpaceOnUse">
<stop stop-color="#AA80F9"/>
<stop offset="1" stop-color="#6165D7"/>
</linearGradient>
<linearGradient id="paint27_linear_123_226" x1="77.3125" y1="20.4864" x2="22.8393" y2="61.6314" gradientUnits="userSpaceOnUse">
<stop stop-color="#AA80F9"/>
<stop offset="1" stop-color="#6165D7"/>
</linearGradient>
<linearGradient id="paint28_linear_123_226" x1="83.1116" y1="25.3119" x2="27.3344" y2="67.4418" gradientUnits="userSpaceOnUse">
<stop stop-color="#AA80F9"/>
<stop offset="1" stop-color="#6165D7"/>
</linearGradient>
<linearGradient id="paint29_linear_123_226" x1="89.1046" y1="30.2144" x2="32.0217" y2="73.3305" gradientUnits="userSpaceOnUse">
<stop stop-color="#AA80F9"/>
<stop offset="1" stop-color="#6165D7"/>
</linearGradient>
<linearGradient id="paint30_linear_123_226" x1="69.1973" y1="14.9871" x2="18.0476" y2="53.6219" gradientUnits="userSpaceOnUse">
<stop stop-color="#AA80F9"/>
<stop offset="1" stop-color="#6165D7"/>
</linearGradient>
<linearGradient id="paint31_linear_123_226" x1="74.4198" y1="19.7532" x2="22.1479" y2="59.2353" gradientUnits="userSpaceOnUse">
<stop stop-color="#AA80F9"/>
<stop offset="1" stop-color="#6165D7"/>
</linearGradient>
<linearGradient id="paint32_linear_123_226" x1="79.8372" y1="24.5746" x2="26.4044" y2="64.9338" gradientUnits="userSpaceOnUse">
<stop stop-color="#AA80F9"/>
<stop offset="1" stop-color="#6165D7"/>
</linearGradient>
<linearGradient id="paint33_linear_123_226" x1="85.3392" y1="29.5423" x2="30.8602" y2="70.6921" gradientUnits="userSpaceOnUse">
<stop stop-color="#AA80F9"/>
<stop offset="1" stop-color="#6165D7"/>
</linearGradient>
<linearGradient id="paint34_linear_123_226" x1="91.2748" y1="34.3994" x2="35.4221" y2="76.5862" gradientUnits="userSpaceOnUse">
<stop stop-color="#AA80F9"/>
<stop offset="1" stop-color="#6165D7"/>
</linearGradient>
<linearGradient id="paint35_linear_123_226" x1="71.2705" y1="19.3458" x2="22.3005" y2="56.3341" gradientUnits="userSpaceOnUse">
<stop stop-color="#AA80F9"/>
<stop offset="1" stop-color="#6165D7"/>
</linearGradient>
<linearGradient id="paint36_linear_123_226" x1="76.2983" y1="24.1866" x2="26.2651" y2="61.9778" gradientUnits="userSpaceOnUse">
<stop stop-color="#AA80F9"/>
<stop offset="1" stop-color="#6165D7"/>
</linearGradient>
<linearGradient id="paint37_linear_123_226" x1="81.5105" y1="29.0858" x2="30.3776" y2="67.7078" gradientUnits="userSpaceOnUse">
<stop stop-color="#AA80F9"/>
<stop offset="1" stop-color="#6165D7"/>
</linearGradient>
<linearGradient id="paint38_linear_123_226" x1="86.9292" y1="34.0416" x2="34.6403" y2="73.5369" gradientUnits="userSpaceOnUse">
<stop stop-color="#AA80F9"/>
<stop offset="1" stop-color="#6165D7"/>
</linearGradient>
<linearGradient id="paint39_linear_123_226" x1="92.5324" y1="39.0603" x2="39.0709" y2="79.4411" gradientUnits="userSpaceOnUse">
<stop stop-color="#AA80F9"/>
<stop offset="1" stop-color="#6165D7"/>
</linearGradient>
<linearGradient id="paint40_linear_123_226" x1="73.8139" y1="23.2415" x2="26.4105" y2="59.0461" gradientUnits="userSpaceOnUse">
<stop stop-color="#AA80F9"/>
<stop offset="1" stop-color="#6165D7"/>
</linearGradient>
<linearGradient id="paint41_linear_123_226" x1="78.6934" y1="28.123" x2="30.2786" y2="64.692" gradientUnits="userSpaceOnUse">
<stop stop-color="#AA80F9"/>
<stop offset="1" stop-color="#6165D7"/>
</linearGradient>
<linearGradient id="paint42_linear_123_226" x1="83.7477" y1="33.066" x2="34.287" y2="70.425" gradientUnits="userSpaceOnUse">
<stop stop-color="#AA80F9"/>
<stop offset="1" stop-color="#6165D7"/>
</linearGradient>
<linearGradient id="paint43_linear_123_226" x1="88.9891" y1="38.0592" x2="38.4359" y2="76.2437" gradientUnits="userSpaceOnUse">
<stop stop-color="#AA80F9"/>
<stop offset="1" stop-color="#6165D7"/>
</linearGradient>
<linearGradient id="paint44_linear_123_226" x1="94.4175" y1="43.1261" x2="42.746" y2="82.1547" gradientUnits="userSpaceOnUse">
<stop stop-color="#AA80F9"/>
<stop offset="1" stop-color="#6165D7"/>
</linearGradient>
<linearGradient id="paint45_linear_123_226" x1="76.3128" y1="26.9336" x2="30.4923" y2="61.543" gradientUnits="userSpaceOnUse">
<stop stop-color="#AA80F9"/>
<stop offset="1" stop-color="#6165D7"/>
</linearGradient>
<linearGradient id="paint46_linear_123_226" x1="81.048" y1="31.8533" x2="34.2647" y2="67.19" gradientUnits="userSpaceOnUse">
<stop stop-color="#AA80F9"/>
<stop offset="1" stop-color="#6165D7"/>
</linearGradient>
<linearGradient id="paint47_linear_123_226" x1="85.9485" y1="36.8358" x2="38.1704" y2="72.9241" gradientUnits="userSpaceOnUse">
<stop stop-color="#AA80F9"/>
<stop offset="1" stop-color="#6165D7"/>
</linearGradient>
<linearGradient id="paint48_linear_123_226" x1="91.0186" y1="41.871" x2="42.2073" y2="78.7392" gradientUnits="userSpaceOnUse">
<stop stop-color="#AA80F9"/>
<stop offset="1" stop-color="#6165D7"/>
</linearGradient>
<linearGradient id="paint49_linear_123_226" x1="96.2847" y1="46.981" x2="46.3972" y2="84.6624" gradientUnits="userSpaceOnUse">
<stop stop-color="#AA80F9"/>
<stop offset="1" stop-color="#6165D7"/>
</linearGradient>
<linearGradient id="paint50_linear_123_226" x1="12.7136" y1="32.1202" x2="6.30567" y2="36.9602" gradientUnits="userSpaceOnUse">
<stop stop-color="#AA80F9"/>
<stop offset="1" stop-color="#6165D7"/>
</linearGradient>
<linearGradient id="paint51_linear_123_226" x1="14.3123" y1="39.9421" x2="7.41403" y2="45.1527" gradientUnits="userSpaceOnUse">
<stop stop-color="#AA80F9"/>
<stop offset="1" stop-color="#6165D7"/>
</linearGradient>
<linearGradient id="paint52_linear_123_226" x1="15.6139" y1="48.2164" x2="8.54992" y2="53.552" gradientUnits="userSpaceOnUse">
<stop stop-color="#AA80F9"/>
<stop offset="1" stop-color="#6165D7"/>
</linearGradient>
<linearGradient id="paint53_linear_123_226" x1="16.9492" y1="56.6999" x2="9.71373" y2="62.1646" gradientUnits="userSpaceOnUse">
<stop stop-color="#AA80F9"/>
<stop offset="1" stop-color="#6165D7"/>
</linearGradient>
<linearGradient id="paint54_linear_123_226" x1="18.3198" y1="65.3997" x2="10.9063" y2="70.999" gradientUnits="userSpaceOnUse">
<stop stop-color="#AA80F9"/>
<stop offset="1" stop-color="#6165D7"/>
</linearGradient>
<linearGradient id="paint55_linear_123_226" x1="18.172" y1="35.3447" x2="15.0342" y2="37.7147" gradientUnits="userSpaceOnUse">
<stop stop-color="#AA80F9"/>
<stop offset="1" stop-color="#6165D7"/>
</linearGradient>
<linearGradient id="paint56_linear_123_226" x1="22.4357" y1="40.4732" x2="15.936" y2="45.3825" gradientUnits="userSpaceOnUse">
<stop stop-color="#AA80F9"/>
<stop offset="1" stop-color="#6165D7"/>
</linearGradient>
<linearGradient id="paint57_linear_123_226" x1="23.9652" y1="48.4966" x2="17.1587" y2="53.6378" gradientUnits="userSpaceOnUse">
<stop stop-color="#AA80F9"/>
<stop offset="1" stop-color="#6165D7"/>
</linearGradient>
<linearGradient id="paint58_linear_123_226" x1="25.3796" y1="56.8346" x2="18.4109" y2="62.0984" gradientUnits="userSpaceOnUse">
<stop stop-color="#AA80F9"/>
<stop offset="1" stop-color="#6165D7"/>
</linearGradient>
<linearGradient id="paint59_linear_123_226" x1="26.8304" y1="65.382" x2="19.6933" y2="70.7729" gradientUnits="userSpaceOnUse">
<stop stop-color="#AA80F9"/>
<stop offset="1" stop-color="#6165D7"/>
</linearGradient>
<linearGradient id="paint60_linear_123_226" x1="25.6021" y1="44.3431" x2="24.1114" y2="45.4689" gradientUnits="userSpaceOnUse">
<stop stop-color="#AA80F9"/>
<stop offset="1" stop-color="#6165D7"/>
</linearGradient>
<linearGradient id="paint61_linear_123_226" x1="29.87" y1="50.4444" x2="25.5234" y2="53.7276" gradientUnits="userSpaceOnUse">
<stop stop-color="#AA80F9"/>
<stop offset="1" stop-color="#6165D7"/>
</linearGradient>
<linearGradient id="paint62_linear_123_226" x1="33.5449" y1="56.9644" x2="26.843" y2="62.0269" gradientUnits="userSpaceOnUse">
<stop stop-color="#AA80F9"/>
<stop offset="1" stop-color="#6165D7"/>
</linearGradient>
<linearGradient id="paint63_linear_123_226" x1="35.0701" y1="65.3643" x2="28.2087" y2="70.5467" gradientUnits="userSpaceOnUse">
<stop stop-color="#AA80F9"/>
<stop offset="1" stop-color="#6165D7"/>
</linearGradient>
<linearGradient id="paint64_linear_123_226" x1="41.18" y1="57.2831" x2="34.9994" y2="61.9514" gradientUnits="userSpaceOnUse">
<stop stop-color="#AA80F9"/>
<stop offset="1" stop-color="#6165D7"/>
</linearGradient>
<linearGradient id="paint65_linear_123_226" x1="43.029" y1="65.3495" x2="36.4427" y2="70.3241" gradientUnits="userSpaceOnUse">
<stop stop-color="#AA80F9"/>
<stop offset="1" stop-color="#6165D7"/>
</linearGradient>
<linearGradient id="paint66_linear_123_226" x1="49.2907" y1="57.5304" x2="43.0466" y2="62.2464" gradientUnits="userSpaceOnUse">
<stop stop-color="#AA80F9"/>
<stop offset="1" stop-color="#6165D7"/>
</linearGradient>
<linearGradient id="paint67_linear_123_226" x1="50.7646" y1="65.2903" x2="44.3204" y2="70.1577" gradientUnits="userSpaceOnUse">
<stop stop-color="#AA80F9"/>
<stop offset="1" stop-color="#6165D7"/>
</linearGradient>
<linearGradient id="paint68_linear_123_226" x1="56.457" y1="57.3537" x2="50.4242" y2="61.9107" gradientUnits="userSpaceOnUse">
<stop stop-color="#AA80F9"/>
<stop offset="1" stop-color="#6165D7"/>
</linearGradient>
<linearGradient id="paint69_linear_123_226" x1="58.1331" y1="65.2916" x2="51.965" y2="69.9506" gradientUnits="userSpaceOnUse">
<stop stop-color="#AA80F9"/>
<stop offset="1" stop-color="#6165D7"/>
</linearGradient>
<linearGradient id="paint70_linear_123_226" x1="63.632" y1="57.3953" x2="57.7993" y2="61.8009" gradientUnits="userSpaceOnUse">
<stop stop-color="#AA80F9"/>
<stop offset="1" stop-color="#6165D7"/>
</linearGradient>
<linearGradient id="paint71_linear_123_226" x1="65.3999" y1="65.2532" x2="59.4381" y2="69.7563" gradientUnits="userSpaceOnUse">
<stop stop-color="#AA80F9"/>
<stop offset="1" stop-color="#6165D7"/>
</linearGradient>
<linearGradient id="paint72_linear_123_226" x1="69.014" y1="58.7494" x2="64.9521" y2="61.8173" gradientUnits="userSpaceOnUse">
<stop stop-color="#AA80F9"/>
<stop offset="1" stop-color="#6165D7"/>
</linearGradient>
<linearGradient id="paint73_linear_123_226" x1="72.353" y1="65.2301" x2="66.5969" y2="69.5776" gradientUnits="userSpaceOnUse">
<stop stop-color="#AA80F9"/>
<stop offset="1" stop-color="#6165D7"/>
</linearGradient>
<clipPath id="clip0_123_226">
<rect width="80.3421" height="86" fill="white" transform="translate(0.828918 0.5)"/>
</clipPath>
</defs>
</svg>
